Tajawal-Black.ufo
<glyph name="exclam" format="1">
 <advance width="323" />
 <unicode hex="0021" />
 <outline>
  <contour>
   <point x="75" y="196" type="line" smooth="no" name="13" />
   <point x="240" y="196" type="line" smooth="no" name="13" />
   <point x="240" y="633" type="line" smooth="no" name="13" />
   <point x="75" y="633" type="line" smooth="no" name="13" />
  </contour>
  <contour>
   <point x="259" y="64" type="curve" smooth="yes" name="15" />
   <point x="259" y="110" type="offcurve" name="14" />
   <point x="227" y="156" type="offcurve" name="14" />
   <point x="164" y="156" type="curve" smooth="yes" name="15" />
   <point x="103" y="156" type="offcurve" name="14" />
   <point x="71" y="113" type="offcurve" name="14" />
   <point x="68" y="69" type="curve" smooth="yes" name="15" />
   <point x="68" y="68" type="offcurve" name="14" />
   <point x="68" y="66" type="offcurve" name="14" />
   <point x="68" y="65" type="curve" smooth="yes" name="15" />
   <point x="68" y="17" type="offcurve" name="14" />
   <point x="99" y="-30" type="offcurve" name="14" />
   <point x="164" y="-30" type="curve" smooth="yes" name="15" />
   <point x="227" y="-30" type="offcurve" name="14" />
   <point x="259" y="15" type="offcurve" name="14" />
   <point x="259" y="62" type="curve" smooth="yes" name="15" />
   <point x="259" y="63" type="offcurve" name="14" />
   <point x="259" y="63" type="offcurve" name="14" />
  </contour>
 </outline>
</glyph>
<glyph name="quotedbl" format="1">
 <advance width="409" />
 <unicode hex="0022" />
 <outline>
  <contour>
   <point x="70" y="399" type="line" smooth="no" name="13" />
   <point x="187" y="462" type="line" smooth="no" name="13" />
   <point x="187" y="645" type="line" smooth="no" name="13" />
   <point x="70" y="582" type="line" smooth="no" name="13" />
  </contour>
  <contour>
   <point x="222" y="399" type="line" smooth="no" name="13" />
   <point x="339" y="462" type="line" smooth="no" name="13" />
   <point x="339" y="645" type="line" smooth="no" name="13" />
   <point x="222" y="582" type="line" smooth="no" name="13" />
  </contour>
 </outline>
</glyph>
<glyph name="numbersign" format="1">
 <advance width="470" />
 <unicode hex="0023" />
 <outline>
  <contour>
   <point x="237" y="450" type="line" smooth="no" name="13" />
   <point x="270" y="609" type="line" smooth="no" name="13" />
   <point x="170" y="609" type="line" smooth="no" name="13" />
   <point x="137" y="450" type="line" smooth="no" name="13" />
   <point x="30" y="450" type="line" smooth="no" name="13" />
   <point x="30" y="332" type="line" smooth="no" name="13" />
   <point x="113" y="332" type="line" smooth="no" name="13" />
   <point x="95" y="244" type="line" smooth="no" name="13" />
   <point x="2" y="244" type="line" smooth="no" name="13" />
   <point x="2" y="124" type="line" smooth="no" name="13" />
   <point x="70" y="124" type="line" smooth="no" name="13" />
   <point x="44" y="0" type="line" smooth="no" name="13" />
   <point x="143" y="0" type="line" smooth="no" name="13" />
   <point x="169" y="124" type="line" smooth="no" name="13" />
   <point x="230" y="124" type="line" smooth="no" name="13" />
   <point x="204" y="0" type="line" smooth="no" name="13" />
   <point x="303" y="0" type="line" smooth="no" name="13" />
   <point x="329" y="124" type="line" smooth="no" name="13" />
   <point x="436" y="124" type="line" smooth="no" name="13" />
   <point x="436" y="244" type="line" smooth="no" name="13" />
   <point x="354" y="244" type="line" smooth="no" name="13" />
   <point x="372" y="332" type="line" smooth="no" name="13" />
   <point x="469" y="332" type="line" smooth="no" name="13" />
   <point x="469" y="450" type="line" smooth="no" name="13" />
   <point x="397" y="450" type="line" smooth="no" name="13" />
   <point x="430" y="609" type="line" smooth="no" name="13" />
   <point x="330" y="609" type="line" smooth="no" name="13" />
   <point x="297" y="450" type="line" smooth="no" name="13" />
  </contour>
  <contour>
   <point x="212" y="332" type="line" smooth="no" name="13" />
   <point x="273" y="332" type="line" smooth="no" name="13" />
   <point x="255" y="244" type="line" smooth="no" name="13" />
   <point x="194" y="244" type="line" smooth="no" name="13" />
  </contour>
 </outline>
</glyph>
<glyph name="dollar" format="1">
 <advance width="557" />
 <unicode hex="0024" />
 <outline>
  <contour>
   <point x="245" y="643" type="line" smooth="no" name="13" />
   <point x="122" y="627" type="offcurve" name="14" />
   <point x="69" y="554" type="offcurve" name="14" />
   <point x="69" y="469" type="curve" smooth="yes" name="15" />
   <point x="69" y="362" type="offcurve" name="14" />
   <point x="144" y="312" type="offcurve" name="14" />
   <point x="245" y="268" type="curve" smooth="no" name="13" />
   <point x="245" y="127" type="line" smooth="no" name="13" />
   <point x="244" y="127" type="offcurve" name="14" />
   <point x="243" y="127" type="offcurve" name="14" />
   <point x="242" y="127" type="curve" smooth="yes" name="15" />
   <point x="212" y="127" type="offcurve" name="14" />
   <point x="147" y="142" type="offcurve" name="14" />
   <point x="121" y="152" type="curve" smooth="no" name="13" />
   <point x="54" y="62" type="line" smooth="no" name="13" />
   <point x="90" y="40" type="offcurve" name="14" />
   <point x="153" y="0" type="offcurve" name="14" />
   <point x="245" y="-11" type="curve" smooth="no" name="13" />
   <point x="245" y="-74" type="line" smooth="no" name="13" />
   <point x="299" y="-74" type="line" smooth="no" name="13" />
   <point x="299" y="-11" type="line" smooth="no" name="13" />
   <point x="347" y="-7" type="offcurve" name="14" />
   <point x="399" y="8" type="offcurve" name="14" />
   <point x="438" y="38" type="curve" smooth="yes" name="15" />
   <point x="486" y="76" type="offcurve" name="14" />
   <point x="501" y="127" type="offcurve" name="14" />
   <point x="502" y="186" type="curve" smooth="yes" name="15" />
   <point x="502" y="187" type="offcurve" name="14" />
   <point x="502" y="188" type="offcurve" name="14" />
   <point x="502" y="189" type="curve" smooth="yes" name="15" />
   <point x="502" y="279" type="offcurve" name="14" />
   <point x="434" y="329" type="offcurve" name="14" />
   <point x="346" y="373" type="curve" smooth="yes" name="15" />
   <point x="297" y="398" type="line" smooth="no" name="13" />
   <point x="297" y="419" type="offcurve" name="14" />
   <point x="297" y="440" type="offcurve" name="14" />
   <point x="297" y="461" type="curve" smooth="yes" name="15" />
   <point x="297" y="479" type="offcurve" name="14" />
   <point x="297" y="498" type="offcurve" name="14" />
   <point x="297" y="517" type="curve" smooth="no" name="13" />
   <point x="341" y="513" type="offcurve" name="14" />
   <point x="382" y="497" type="offcurve" name="14" />
   <point x="423" y="480" type="curve" smooth="no" name="13" />
   <point x="489" y="577" type="line" smooth="no" name="13" />
   <point x="427" y="618" type="offcurve" name="14" />
   <point x="374" y="641" type="offcurve" name="14" />
   <point x="299" y="644" type="curve" smooth="no" name="13" />
   <point x="299" y="700" type="line" smooth="no" name="13" />
   <point x="245" y="700" type="line" smooth="no" name="13" />
  </contour>
  <contour>
   <point x="247" y="419" type="curve" smooth="no" name="13" />
   <point x="220" y="430" type="offcurve" name="14" />
   <point x="211" y="448" type="offcurve" name="14" />
   <point x="211" y="466" type="curve" smooth="yes" name="15" />
   <point x="211" y="492" type="offcurve" name="14" />
   <point x="223" y="507" type="offcurve" name="14" />
   <point x="247" y="515" type="curve" smooth="no" name="13" />
   <point x="247" y="499" type="offcurve" name="14" />
   <point x="248" y="483" type="offcurve" name="14" />
   <point x="248" y="467" type="curve" smooth="yes" name="15" />
   <point x="248" y="451" type="offcurve" name="14" />
   <point x="247" y="435" type="offcurve" name="14" />
  </contour>
  <contour>
   <point x="299" y="131" type="curve" smooth="no" name="13" />
   <point x="299" y="247" type="line" smooth="no" name="13" />
   <point x="324" y="234" type="offcurve" name="14" />
   <point x="341" y="220" type="offcurve" name="14" />
   <point x="341" y="191" type="curve" smooth="yes" name="15" />
   <point x="341" y="164" type="offcurve" name="14" />
   <point x="327" y="136" type="offcurve" name="14" />
  </contour>
 </outline>
</glyph>
<glyph name="percent" format="1">
 <advance width="783" />
 <unicode hex="0025" />
 <outline>
  <contour>
   <point x="303" y="412" type="curve" smooth="yes" name="15" />
   <point x="303" y="502" type="offcurve" name="14" />
   <point x="252" y="565" type="offcurve" name="14" />
   <point x="178" y="565" type="curve" smooth="yes" name="15" />
   <point x="99" y="565" type="offcurve" name="14" />
   <point x="50" y="506" type="offcurve" name="14" />
   <point x="50" y="411" type="curve" smooth="yes" name="15" />
   <point x="50" y="311" type="offcurve" name="14" />
   <point x="98" y="250" type="offcurve" name="14" />
   <point x="178" y="250" type="curve" smooth="yes" name="15" />
   <point x="255" y="250" type="offcurve" name="14" />
   <point x="303" y="314" type="offcurve" name="14" />
  </contour>
  <contour>
   <point x="218" y="410" type="curve" smooth="yes" name="15" />
   <point x="218" y="362" type="offcurve" name="14" />
   <point x="200" y="327" type="offcurve" name="14" />
   <point x="176" y="327" type="curve" smooth="yes" name="15" />
   <point x="151" y="327" type="offcurve" name="14" />
   <point x="134" y="362" type="offcurve" name="14" />
   <point x="134" y="410" type="curve" smooth="yes" name="15" />
   <point x="134" y="454" type="offcurve" name="14" />
   <point x="152" y="487" type="offcurve" name="14" />
   <point x="176" y="487" type="curve" smooth="yes" name="15" />
   <point x="200" y="487" type="offcurve" name="14" />
   <point x="218" y="452" type="offcurve" name="14" />
  </contour>
  <contour>
   <point x="190" y="0" type="line" smooth="no" name="13" />
   <point x="307" y="0" type="line" smooth="no" name="13" />
   <point x="598" y="565" type="line" smooth="no" name="13" />
   <point x="481" y="565" type="line" smooth="no" name="13" />
  </contour>
  <contour>
   <point x="733" y="156" type="curve" smooth="yes" name="15" />
   <point x="733" y="246" type="offcurve" name="14" />
   <point x="682" y="309" type="offcurve" name="14" />
   <point x="608" y="309" type="curve" smooth="yes" name="15" />
   <point x="529" y="309" type="offcurve" name="14" />
   <point x="480" y="250" type="offcurve" name="14" />
   <point x="480" y="155" type="curve" smooth="yes" name="15" />
   <point x="480" y="55" type="offcurve" name="14" />
   <point x="528" y="-6" type="offcurve" name="14" />
   <point x="608" y="-6" type="curve" smooth="yes" name="15" />
   <point x="685" y="-6" type="offcurve" name="14" />
   <point x="733" y="58" type="offcurve" name="14" />
  </contour>
  <contour>
   <point x="648" y="154" type="curve" smooth="yes" name="15" />
   <point x="648" y="106" type="offcurve" name="14" />
   <point x="630" y="71" type="offcurve" name="14" />
   <point x="606" y="71" type="curve" smooth="yes" name="15" />
   <point x="581" y="71" type="offcurve" name="14" />
   <point x="564" y="106" type="offcurve" name="14" />
   <point x="564" y="154" type="curve" smooth="yes" name="15" />
   <point x="564" y="198" type="offcurve" name="14" />
   <point x="582" y="231" type="offcurve" name="14" />
   <point x="606" y="231" type="curve" smooth="yes" name="15" />
   <point x="630" y="231" type="offcurve" name="14" />
   <point x="648" y="196" type="offcurve" name="14" />
  </contour>
 </outline>
</glyph>
<glyph name="ampersand" format="1">
 <advance width="578" />
 <unicode hex="0026" />
 <outline>
  <contour>
   <point x="368" y="329" type="line" smooth="no" name="13" />
   <point x="368" y="303" type="line" smooth="yes" name="15" />
   <point x="368" y="303" type="offcurve" name="14" />
   <point x="368" y="302" type="offcurve" name="14" />
   <point x="368" y="302" type="curve" smooth="yes" name="15" />
   <point x="368" y="278" type="offcurve" name="14" />
   <point x="368" y="260" type="offcurve" name="14" />
   <point x="356" y="240" type="curve" smooth="no" name="13" />
   <point x="259" y="359" type="line" smooth="yes" name="15" />
   <point x="247" y="374" type="offcurve" name="14" />
   <point x="194" y="437" type="offcurve" name="14" />
   <point x="194" y="471" type="curve" smooth="yes" name="15" />
   <point x="194" y="501" type="offcurve" name="14" />
   <point x="215" y="519" type="offcurve" name="14" />
   <point x="241" y="519" type="curve" smooth="yes" name="15" />
   <point x="242" y="519" type="offcurve" name="14" />
   <point x="244" y="519" type="offcurve" name="14" />
   <point x="246" y="519" type="curve" smooth="yes" name="15" />
   <point x="261" y="519" type="offcurve" name="14" />
   <point x="299" y="517" type="offcurve" name="14" />
   <point x="360" y="487" type="curve" smooth="no" name="13" />
   <point x="416" y="574" type="line" smooth="no" name="13" />
   <point x="398" y="590" type="offcurve" name="14" />
   <point x="333" y="646" type="offcurve" name="14" />
   <point x="240" y="646" type="curve" smooth="yes" name="15" />
   <point x="144" y="646" type="offcurve" name="14" />
   <point x="75" y="590" type="offcurve" name="14" />
   <point x="75" y="480" type="curve" smooth="yes" name="15" />
   <point x="75" y="416" type="offcurve" name="14" />
   <point x="112" y="373" type="offcurve" name="14" />
   <point x="135" y="341" type="curve" smooth="no" name="13" />
   <point x="67" y="281" type="offcurve" name="14" />
   <point x="47" y="219" type="offcurve" name="14" />
   <point x="47" y="163" type="curve" smooth="yes" name="15" />
   <point x="47" y="81" type="offcurve" name="14" />
   <point x="97" y="-12" type="offcurve" name="14" />
   <point x="235" y="-12" type="curve" smooth="yes" name="15" />
   <point x="322" y="-12" type="offcurve" name="14" />
   <point x="372" y="18" type="offcurve" name="14" />
   <point x="385" y="29" type="curve" smooth="no" name="13" />
   <point x="408" y="0" type="line" smooth="no" name="13" />
   <point x="577" y="0" type="line" smooth="no" name="13" />
   <point x="537" y="40" type="offcurve" name="14" />
   <point x="497" y="83" type="offcurve" name="14" />
   <point x="461" y="125" type="curve" smooth="no" name="13" />
   <point x="495" y="179" type="offcurve" name="14" />
   <point x="515" y="241" type="offcurve" name="14" />
   <point x="515" y="290" type="curve" smooth="yes" name="15" />
   <point x="515" y="329" type="line" smooth="no" name="13" />
  </contour>
  <contour>
   <point x="297" y="134" type="line" smooth="no" name="13" />
   <point x="286" y="123" type="offcurve" name="14" />
   <point x="256" y="120" type="offcurve" name="14" />
   <point x="252" y="120" type="curve" smooth="yes" name="15" />
   <point x="232" y="120" type="offcurve" name="14" />
   <point x="197" y="128" type="offcurve" name="14" />
   <point x="197" y="184" type="curve" smooth="yes" name="15" />
   <point x="197" y="201" type="offcurve" name="14" />
   <point x="199" y="222" type="offcurve" name="14" />
   <point x="207" y="249" type="curve" smooth="no" name="13" />
  </contour>
 </outline>
</glyph>
<glyph name="quotesingle" format="1">
 <advance width="257" />
 <unicode hex="0027" />
 <outline>
  <contour>
   <point x="70" y="399" type="line" smooth="no" name="13" />
   <point x="187" y="462" type="line" smooth="no" name="13" />
   <point x="187" y="645" type="line" smooth="no" name="13" />
   <point x="70" y="582" type="line" smooth="no" name="13" />
  </contour>
 </outline>
</glyph>
<glyph name="parenleft" format="1">
 <advance width="422" />
 <unicode hex="0028" />
 <outline>
  <contour>
   <point x="359" y="645" type="curve" smooth="no" name="13" />
   <point x="227" y="645" type="line" smooth="no" name="13" />
   <point x="139" y="553" type="offcurve" name="14" />
   <point x="78" y="400" type="offcurve" name="14" />
   <point x="78" y="262" type="curve" smooth="yes" name="15" />
   <point x="78" y="16" type="offcurve" name="14" />
   <point x="196" y="-114" type="offcurve" name="14" />
   <point x="222" y="-135" type="curve" smooth="no" name="13" />
   <point x="227" y="-140" type="line" smooth="no" name="13" />
   <point x="347" y="-140" type="line" smooth="no" name="13" />
   <point x="340" y="-129" type="line" smooth="yes" name="15" />
   <point x="311" y="-78" type="offcurve" name="14" />
   <point x="217" y="72" type="offcurve" name="14" />
   <point x="217" y="262" type="curve" smooth="yes" name="15" />
   <point x="217" y="418" type="offcurve" name="14" />
   <point x="303" y="578" type="offcurve" name="14" />
  </contour>
 </outline>
</glyph>
<glyph name="parenright" format="1">
 <advance width="422" />
 <unicode hex="0029" />
 <outline>
  <contour>
   <point x="61" y="645" type="line" smooth="no" name="13" />
   <point x="117" y="578" type="offcurve" name="14" />
   <point x="203" y="418" type="offcurve" name="14" />
   <point x="203" y="262" type="curve" smooth="yes" name="15" />
   <point x="203" y="76" type="offcurve" name="14" />
   <point x="117" y="-74" type="offcurve" name="14" />
   <point x="82" y="-126" type="curve" smooth="yes" name="15" />
   <point x="72" y="-140" type="line" smooth="no" name="13" />
   <point x="192" y="-140" type="line" smooth="no" name="13" />
   <point x="203" y="-131" type="offcurve" name="14" />
   <point x="211" y="-124" type="offcurve" name="14" />
   <point x="222" y="-109" type="curve" smooth="yes" name="15" />
   <point x="264" y="-53" type="offcurve" name="14" />
   <point x="342" y="69" type="offcurve" name="14" />
   <point x="342" y="262" type="curve" smooth="yes" name="15" />
   <point x="342" y="400" type="offcurve" name="14" />
   <point x="281" y="553" type="offcurve" name="14" />
   <point x="192" y="645" type="curve" smooth="no" name="13" />
  </contour>
 </outline>
</glyph>
<glyph name="asterisk" format="1">
 <advance width="321" />
 <unicode hex="002a" />
 <outline>
  <contour>
   <point x="144" y="548" type="line" smooth="no" name="13" />
   <point x="133" y="564" type="offcurve" name="14" />
   <point x="121" y="580" type="offcurve" name="14" />
   <point x="108" y="597" type="curve" smooth="yes" name="15" />
   <point x="100" y="607" type="offcurve" name="14" />
   <point x="92" y="618" type="offcurve" name="14" />
   <point x="84" y="629" type="curve" smooth="no" name="13" />
   <point x="15" y="529" type="line" smooth="no" name="13" />
   <point x="38" y="521" type="offcurve" name="14" />
   <point x="59" y="515" type="offcurve" name="14" />
   <point x="80" y="509" type="curve" smooth="yes" name="15" />
   <point x="93" y="506" type="offcurve" name="14" />
   <point x="106" y="502" type="offcurve" name="14" />
   <point x="119" y="498" type="curve" smooth="no" name="13" />
   <point x="107" y="493" type="offcurve" name="14" />
   <point x="94" y="489" type="offcurve" name="14" />
   <point x="82" y="485" type="curve" smooth="yes" name="15" />
   <point x="61" y="478" type="offcurve" name="14" />
   <point x="39" y="471" type="offcurve" name="14" />
   <point x="21" y="463" type="curve" smooth="no" name="13" />
   <point x="94" y="370" type="line" smooth="no" name="13" />
   <point x="108" y="391" type="offcurve" name="14" />
   <point x="120" y="409" type="offcurve" name="14" />
   <point x="133" y="428" type="curve" smooth="no" name="13" />
   <point x="140" y="436" type="offcurve" name="14" />
   <point x="146" y="445" type="offcurve" name="14" />
   <point x="152" y="454" type="curve" smooth="no" name="13" />
   <point x="152" y="442" type="offcurve" name="14" />
   <point x="152" y="430" type="offcurve" name="14" />
   <point x="152" y="418" type="curve" smooth="yes" name="15" />
   <point x="152" y="405" type="offcurve" name="14" />
   <point x="151" y="392" type="offcurve" name="14" />
   <point x="151" y="379" type="curve" smooth="yes" name="15" />
   <point x="151" y="369" type="offcurve" name="14" />
   <point x="151" y="360" type="offcurve" name="14" />
   <point x="152" y="350" type="curve" smooth="no" name="13" />
   <point x="169" y="356" type="offcurve" name="14" />
   <point x="186" y="364" type="offcurve" name="14" />
   <point x="204" y="372" type="curve" smooth="yes" name="15" />
   <point x="225" y="381" type="offcurve" name="14" />
   <point x="247" y="390" type="offcurve" name="14" />
   <point x="268" y="398" type="curve" smooth="no" name="13" />
   <point x="256" y="411" type="offcurve" name="14" />
   <point x="245" y="424" type="offcurve" name="14" />
   <point x="234" y="436" type="curve" smooth="yes" name="15" />
   <point x="222" y="449" type="offcurve" name="14" />
   <point x="210" y="462" type="offcurve" name="14" />
   <point x="198" y="476" type="curve" smooth="no" name="13" />
   <point x="224" y="470" type="offcurve" name="14" />
   <point x="250" y="462" type="offcurve" name="14" />
   <point x="276" y="454" type="curve" smooth="yes" name="15" />
   <point x="286" y="451" type="offcurve" name="14" />
   <point x="296" y="448" type="offcurve" name="14" />
   <point x="306" y="445" type="curve" smooth="no" name="13" />
   <point x="294" y="573" type="line" smooth="no" name="13" />
   <point x="190" y="528" type="line" smooth="no" name="13" />
   <point x="204" y="547" type="offcurve" name="14" />
   <point x="216" y="566" type="offcurve" name="14" />
   <point x="227" y="584" type="curve" smooth="yes" name="15" />
   <point x="235" y="596" type="offcurve" name="14" />
   <point x="242" y="608" type="offcurve" name="14" />
   <point x="250" y="619" type="curve" smooth="no" name="13" />
   <point x="237" y="622" type="offcurve" name="14" />
   <point x="225" y="626" type="offcurve" name="14" />
   <point x="211" y="629" type="curve" smooth="yes" name="15" />
   <point x="188" y="635" type="offcurve" name="14" />
   <point x="163" y="642" type="offcurve" name="14" />
   <point x="141" y="646" type="curve" smooth="no" name="13" />
  </contour>
 </outline>
</glyph>
<glyph name="plus" format="1">
 <advance width="491" />
 <unicode hex="002b" />
 <outline>
  <contour>
   <point x="176" y="166" type="line" smooth="no" name="13" />
   <point x="176" y="0" type="line" smooth="no" name="13" />
   <point x="315" y="0" type="line" smooth="no" name="13" />
   <point x="315" y="166" type="line" smooth="no" name="13" />
   <point x="463" y="166" type="line" smooth="no" name="13" />
   <point x="463" y="284" type="line" smooth="no" name="13" />
   <point x="315" y="284" type="line" smooth="no" name="13" />
   <point x="315" y="454" type="line" smooth="no" name="13" />
   <point x="176" y="454" type="line" smooth="no" name="13" />
   <point x="176" y="284" type="line" smooth="no" name="13" />
   <point x="29" y="284" type="line" smooth="no" name="13" />
   <point x="29" y="166" type="line" smooth="no" name="13" />
  </contour>
 </outline>
</glyph>
<glyph name="comma" format="1">
 <advance width="286" />
 <unicode hex="002c" />
 <outline>
  <contour>
   <point x="47" y="-27" type="curve" smooth="no" name="13" />
   <point x="99" y="-122" type="line" smooth="no" name="13" />
   <point x="150" y="-107" type="offcurve" name="14" />
   <point x="165" y="-100" type="offcurve" name="14" />
   <point x="189" y="-76" type="curve" smooth="yes" name="15" />
   <point x="221" y="-46" type="offcurve" name="14" />
   <point x="239" y="1" type="offcurve" name="14" />
   <point x="239" y="49" type="curve" smooth="yes" name="15" />
   <point x="239" y="101" type="offcurve" name="14" />
   <point x="204" y="154" type="offcurve" name="14" />
   <point x="149" y="154" type="curve" smooth="yes" name="15" />
   <point x="95" y="154" type="offcurve" name="14" />
   <point x="54" y="118" type="offcurve" name="14" />
   <point x="54" y="66" type="curve" smooth="yes" name="15" />
   <point x="54" y="32" type="offcurve" name="14" />
   <point x="64" y="10" type="offcurve" name="14" />
   <point x="88" y="-4" type="curve" smooth="no" name="13" />
   <point x="71" y="-20" type="offcurve" name="14" />
   <point x="71" y="-20" type="offcurve" name="14" />
  </contour>
 </outline>
</glyph>
<glyph name="hyphen" format="1">
 <advance width="308" />
 <unicode hex="002d" />
 <outline>
  <contour>
   <point x="297" y="178" type="line" smooth="no" name="13" />
   <point x="297" y="296" type="line" smooth="no" name="13" />
   <point x="12" y="296" type="line" smooth="no" name="13" />
   <point x="12" y="178" type="line" smooth="no" name="13" />
  </contour>
 </outline>
</glyph>
<glyph name="period" format="1">
 <advance width="331" />
 <unicode hex="002e" />
 <outline>
  <contour>
   <point x="283" y="89" type="curve" smooth="yes" name="15" />
   <point x="283" y="135" type="offcurve" name="14" />
   <point x="251" y="181" type="offcurve" name="14" />
   <point x="188" y="181" type="curve" smooth="yes" name="15" />
   <point x="127" y="181" type="offcurve" name="14" />
   <point x="95" y="138" type="offcurve" name="14" />
   <point x="92" y="94" type="curve" smooth="yes" name="15" />
   <point x="92" y="93" type="offcurve" name="14" />
   <point x="92" y="91" type="offcurve" name="14" />
   <point x="92" y="90" type="curve" smooth="yes" name="15" />
   <point x="92" y="42" type="offcurve" name="14" />
   <point x="123" y="-5" type="offcurve" name="14" />
   <point x="188" y="-5" type="curve" smooth="yes" name="15" />
   <point x="251" y="-5" type="offcurve" name="14" />
   <point x="283" y="40" type="offcurve" name="14" />
   <point x="283" y="87" type="curve" smooth="yes" name="15" />
   <point x="283" y="88" type="offcurve" name="14" />
   <point x="283" y="88" type="offcurve" name="14" />
  </contour>
 </outline>
</glyph>
<glyph name="slash" format="1">
 <advance width="347" />
 <unicode hex="002f" />
 <outline>
  <contour>
   <point x="387" y="633" type="line" smooth="no" name="13" />
   <point x="271" y="633" type="line" smooth="no" name="13" />
   <point x="-38" y="-30" type="line" smooth="no" name="13" />
   <point x="75" y="-30" type="line" smooth="no" name="13" />
  </contour>
 </outline>
</glyph>
<glyph name="zero" format="1">
 <advance width="572" />
 <unicode hex="0030" />
 <outline>
  <contour>
   <point x="283" y="645" type="curve" smooth="yes" name="15" />
   <point x="130" y="645" type="offcurve" name="14" />
   <point x="35" y="491" type="offcurve" name="14" />
   <point x="35" y="315" type="curve" smooth="yes" name="15" />
   <point x="35" y="131" type="offcurve" name="14" />
   <point x="127" y="-12" type="offcurve" name="14" />
   <point x="283" y="-12" type="curve" smooth="yes" name="15" />
   <point x="438" y="-12" type="offcurve" name="14" />
   <point x="535" y="131" type="offcurve" name="14" />
   <point x="535" y="315" type="curve" smooth="yes" name="15" />
   <point x="535" y="491" type="offcurve" name="14" />
   <point x="435" y="645" type="offcurve" name="14" />
  </contour>
  <contour>
   <point x="286" y="514" type="curve" smooth="yes" name="15" />
   <point x="358" y="514" type="offcurve" name="14" />
   <point x="376" y="439" type="offcurve" name="14" />
   <point x="376" y="321" type="curve" smooth="yes" name="15" />
   <point x="376" y="202" type="offcurve" name="14" />
   <point x="345" y="116" type="offcurve" name="14" />
   <point x="282" y="116" type="curve" smooth="yes" name="15" />
   <point x="227" y="116" type="offcurve" name="14" />
   <point x="194" y="202" type="offcurve" name="14" />
   <point x="194" y="321" type="curve" smooth="yes" name="15" />
   <point x="194" y="439" type="offcurve" name="14" />
   <point x="212" y="514" type="offcurve" name="14" />
  </contour>
 </outline>
</glyph>
<glyph name="one" format="1">
 <advance width="420" />
 <unicode hex="0031" />
 <outline>
  <contour>
   <point x="326" y="633" type="line" smooth="no" name="13" />
   <point x="173" y="633" type="line" smooth="no" name="13" />
   <point x="154" y="620" type="offcurve" name="14" />
   <point x="136" y="607" type="offcurve" name="14" />
   <point x="118" y="594" type="curve" smooth="yes" name="15" />
   <point x="83" y="570" type="offcurve" name="14" />
   <point x="50" y="546" type="offcurve" name="14" />
   <point x="17" y="521" type="curve" smooth="no" name="13" />
   <point x="24" y="510" type="offcurve" name="14" />
   <point x="30" y="498" type="offcurve" name="14" />
   <point x="37" y="487" type="curve" smooth="yes" name="15" />
   <point x="54" y="458" type="offcurve" name="14" />
   <point x="71" y="429" type="offcurve" name="14" />
   <point x="88" y="401" type="curve" smooth="no" name="13" />
   <point x="103" y="412" type="offcurve" name="14" />
   <point x="119" y="422" type="offcurve" name="14" />
   <point x="136" y="433" type="curve" smooth="yes" name="15" />
   <point x="148" y="440" type="offcurve" name="14" />
   <point x="160" y="447" type="offcurve" name="14" />
   <point x="173" y="456" type="curve" smooth="no" name="13" />
   <point x="173" y="0" type="line" smooth="no" name="13" />
   <point x="326" y="0" type="line" smooth="no" name="13" />
  </contour>
 </outline>
</glyph>
<glyph name="two" format="1">
 <advance width="495" />
 <unicode hex="0032" />
 <outline>
  <contour>
   <point x="49" y="0" type="line" smooth="no" name="13" />
   <point x="448" y="0" type="line" smooth="no" name="13" />
   <point x="448" y="122" type="line" smooth="no" name="13" />
   <point x="238" y="122" type="line" smooth="no" name="13" />
   <point x="341" y="236" type="offcurve" name="14" />
   <point x="451" y="348" type="offcurve" name="14" />
   <point x="451" y="470" type="curve" smooth="yes" name="15" />
   <point x="451" y="601" type="offcurve" name="14" />
   <point x="359" y="646" type="offcurve" name="14" />
   <point x="262" y="646" type="curve" smooth="yes" name="15" />
   <point x="179" y="646" type="offcurve" name="14" />
   <point x="112" y="621" type="offcurve" name="14" />
   <point x="37" y="560" type="curve" smooth="no" name="13" />
   <point x="102" y="466" type="line" smooth="no" name="13" />
   <point x="149" y="500" type="offcurve" name="14" />
   <point x="179" y="516" type="offcurve" name="14" />
   <point x="229" y="516" type="curve" smooth="yes" name="15" />
   <point x="260" y="516" type="offcurve" name="14" />
   <point x="292" y="494" type="offcurve" name="14" />
   <point x="292" y="461" type="curve" smooth="yes" name="15" />
   <point x="292" y="410" type="offcurve" name="14" />
   <point x="254" y="370" type="offcurve" name="14" />
   <point x="177" y="279" type="curve" smooth="yes" name="15" />
   <point x="49" y="129" type="line" smooth="no" name="13" />
  </contour>
 </outline>
</glyph>
<glyph name="three" format="1">
 <advance width="516" />
 <unicode hex="0033" />
 <outline>
  <contour>
   <point x="134" y="274" type="line" smooth="no" name="13" />
   <point x="224" y="274" type="line" smooth="yes" name="15" />
   <point x="276" y="274" type="offcurve" name="14" />
   <point x="308" y="258" type="offcurve" name="14" />
   <point x="308" y="199" type="curve" smooth="yes" name="15" />
   <point x="308" y="147" type="offcurve" name="14" />
   <point x="277" y="123" type="offcurve" name="14" />
   <point x="233" y="123" type="curve" smooth="yes" name="15" />
   <point x="162" y="123" type="offcurve" name="14" />
   <point x="115" y="154" type="offcurve" name="14" />
   <point x="95" y="174" type="curve" smooth="no" name="13" />
   <point x="34" y="80" type="line" smooth="no" name="13" />
   <point x="67" y="47" type="offcurve" name="14" />
   <point x="166" y="-11" type="offcurve" name="14" />
   <point x="242" y="-11" type="curve" smooth="yes" name="15" />
   <point x="348" y="-11" type="offcurve" name="14" />
   <point x="467" y="30" type="offcurve" name="14" />
   <point x="467" y="203" type="curve" smooth="yes" name="15" />
   <point x="467" y="235" type="offcurve" name="14" />
   <point x="459" y="311" type="offcurve" name="14" />
   <point x="380" y="347" type="curve" smooth="no" name="13" />
   <point x="401" y="358" type="offcurve" name="14" />
   <point x="445" y="371" type="offcurve" name="14" />
   <point x="445" y="468" type="curve" smooth="yes" name="15" />
   <point x="445" y="587" type="offcurve" name="14" />
   <point x="345" y="645" type="offcurve" name="14" />
   <point x="241" y="645" type="curve" smooth="yes" name="15" />
   <point x="151" y="645" type="offcurve" name="14" />
   <point x="92" y="603" type="offcurve" name="14" />
   <point x="46" y="557" type="curve" smooth="no" name="13" />
   <point x="101" y="457" type="line" smooth="no" name="13" />
   <point x="131" y="485" type="offcurve" name="14" />
   <point x="182" y="517" type="offcurve" name="14" />
   <point x="228" y="517" type="curve" smooth="yes" name="15" />
   <point x="269" y="517" type="offcurve" name="14" />
   <point x="286" y="484" type="offcurve" name="14" />
   <point x="286" y="454" type="curve" smooth="yes" name="15" />
   <point x="286" y="399" type="offcurve" name="14" />
   <point x="254" y="397" type="offcurve" name="14" />
   <point x="224" y="397" type="curve" smooth="yes" name="15" />
   <point x="134" y="397" type="line" smooth="no" name="13" />
  </contour>
 </outline>
</glyph>
<glyph name="four" format="1">
 <advance width="556" />
 <unicode hex="0034" />
 <outline>
  <contour>
   <point x="22" y="240" type="curve" smooth="no" name="13" />
   <point x="22" y="118" type="line" smooth="no" name="13" />
   <point x="277" y="118" type="line" smooth="no" name="13" />
   <point x="277" y="0" type="line" smooth="no" name="13" />
   <point x="430" y="0" type="line" smooth="no" name="13" />
   <point x="430" y="118" type="line" smooth="no" name="13" />
   <point x="529" y="118" type="line" smooth="no" name="13" />
   <point x="529" y="240" type="line" smooth="no" name="13" />
   <point x="430" y="240" type="line" smooth="no" name="13" />
   <point x="430" y="633" type="line" smooth="no" name="13" />
   <point x="281" y="633" type="line" smooth="no" name="13" />
   <point x="194" y="502" type="offcurve" name="14" />
   <point x="109" y="373" type="offcurve" name="14" />
  </contour>
  <contour>
   <point x="151" y="240" type="line" smooth="no" name="13" />
   <point x="277" y="439" type="line" smooth="no" name="13" />
   <point x="277" y="240" type="line" smooth="no" name="13" />
  </contour>
 </outline>
</glyph>
<glyph name="five" format="1">
 <advance width="550" />
 <unicode hex="0035" />
 <outline>
  <contour>
   <point x="461" y="511" type="line" smooth="no" name="13" />
   <point x="461" y="633" type="line" smooth="no" name="13" />
   <point x="96" y="633" type="line" smooth="no" name="13" />
   <point x="96" y="269" type="line" smooth="no" name="13" />
   <point x="126" y="278" type="offcurve" name="14" />
   <point x="155" y="288" type="offcurve" name="14" />
   <point x="216" y="288" type="curve" smooth="yes" name="15" />
   <point x="306" y="288" type="offcurve" name="14" />
   <point x="345" y="256" type="offcurve" name="14" />
   <point x="345" y="195" type="curve" smooth="yes" name="15" />
   <point x="345" y="147" type="offcurve" name="14" />
   <point x="309" y="123" type="offcurve" name="14" />
   <point x="257" y="123" type="curve" smooth="yes" name="15" />
   <point x="216" y="123" type="offcurve" name="14" />
   <point x="162" y="144" type="offcurve" name="14" />
   <point x="112" y="183" type="curve" smooth="no" name="13" />
   <point x="48" y="83" type="line" smooth="no" name="13" />
   <point x="107" y="23" type="offcurve" name="14" />
   <point x="196" y="-12" type="offcurve" name="14" />
   <point x="270" y="-12" type="curve" smooth="yes" name="15" />
   <point x="407" y="-12" type="offcurve" name="14" />
   <point x="501" y="92" type="offcurve" name="14" />
   <point x="501" y="205" type="curve" smooth="yes" name="15" />
   <point x="501" y="346" type="offcurve" name="14" />
   <point x="421" y="409" type="offcurve" name="14" />
   <point x="267" y="409" type="curve" smooth="yes" name="15" />
   <point x="263" y="409" type="offcurve" name="14" />
   <point x="256" y="408" type="offcurve" name="14" />
   <point x="249" y="407" type="curve" smooth="no" name="13" />
   <point x="249" y="511" type="line" smooth="no" name="13" />
  </contour>
 </outline>
</glyph>
<glyph name="six" format="1">
 <advance width="546" />
 <unicode hex="0036" />
 <outline>
  <contour>
   <point x="474" y="578" type="line" smooth="no" name="13" />
   <point x="448" y="606" type="offcurve" name="14" />
   <point x="376" y="645" type="offcurve" name="14" />
   <point x="296" y="645" type="curve" smooth="yes" name="15" />
   <point x="116" y="645" type="offcurve" name="14" />
   <point x="48" y="504" type="offcurve" name="14" />
   <point x="48" y="286" type="curve" smooth="yes" name="15" />
   <point x="48" y="174" type="offcurve" name="14" />
   <point x="72" y="-12" type="offcurve" name="14" />
   <point x="272" y="-12" type="curve" smooth="yes" name="15" />
   <point x="441" y="-12" type="offcurve" name="14" />
   <point x="497" y="118" type="offcurve" name="14" />
   <point x="497" y="206" type="curve" smooth="yes" name="15" />
   <point x="497" y="365" type="offcurve" name="14" />
   <point x="403" y="415" type="offcurve" name="14" />
   <point x="294" y="415" type="curve" smooth="yes" name="15" />
   <point x="245" y="415" type="offcurve" name="14" />
   <point x="207" y="396" type="offcurve" name="14" />
   <point x="202" y="394" type="curve" smooth="no" name="13" />
   <point x="202" y="396" type="offcurve" name="14" />
   <point x="202" y="399" type="offcurve" name="14" />
   <point x="202" y="401" type="curve" smooth="yes" name="15" />
   <point x="202" y="471" type="offcurve" name="14" />
   <point x="245" y="514" type="offcurve" name="14" />
   <point x="300" y="514" type="curve" smooth="yes" name="15" />
   <point x="342" y="514" type="offcurve" name="14" />
   <point x="377" y="501" type="offcurve" name="14" />
   <point x="422" y="480" type="curve" smooth="no" name="13" />
  </contour>
  <contour>
   <point x="203" y="291" type="curve" smooth="no" name="13" />
   <point x="217" y="302" type="offcurve" name="14" />
   <point x="252" y="309" type="offcurve" name="14" />
   <point x="257" y="309" type="curve" smooth="yes" name="15" />
   <point x="293" y="309" type="offcurve" name="14" />
   <point x="338" y="297" type="offcurve" name="14" />
   <point x="338" y="206" type="curve" smooth="yes" name="15" />
   <point x="338" y="173" type="offcurve" name="14" />
   <point x="316" y="106" type="offcurve" name="14" />
   <point x="270" y="106" type="curve" smooth="yes" name="15" />
   <point x="207" y="106" type="offcurve" name="14" />
   <point x="203" y="185" type="offcurve" name="14" />
   <point x="203" y="253" type="curve" smooth="yes" name="15" />
   <point x="203" y="264" type="offcurve" name="14" />
   <point x="203" y="275" type="offcurve" name="14" />
   <point x="203" y="284" type="curve" smooth="yes" name="15" />
   <point x="203" y="287" type="offcurve" name="14" />
   <point x="203" y="289" type="offcurve" name="14" />
  </contour>
 </outline>
</glyph>
<glyph name="seven" format="1">
 <advance width="438" />
 <unicode hex="0037" />
 <outline>
  <contour>
   <point x="246" y="511" type="line" smooth="no" name="13" />
   <point x="45" y="0" type="line" smooth="no" name="13" />
   <point x="207" y="0" type="line" smooth="no" name="13" />
   <point x="416" y="522" type="line" smooth="no" name="13" />
   <point x="416" y="633" type="line" smooth="no" name="13" />
   <point x="30" y="633" type="line" smooth="no" name="13" />
   <point x="30" y="511" type="line" smooth="no" name="13" />
  </contour>
 </outline>
</glyph>
<glyph name="eight" format="1">
 <advance width="568" />
 <unicode hex="0038" />
 <outline>
  <contour>
   <point x="185" y="316" type="curve" smooth="no" name="13" />
   <point x="116" y="304" type="offcurve" name="14" />
   <point x="48" y="250" type="offcurve" name="14" />
   <point x="48" y="157" type="curve" smooth="yes" name="15" />
   <point x="48" y="43" type="offcurve" name="14" />
   <point x="156" y="-12" type="offcurve" name="14" />
   <point x="284" y="-12" type="curve" smooth="yes" name="15" />
   <point x="412" y="-12" type="offcurve" name="14" />
   <point x="517" y="40" type="offcurve" name="14" />
   <point x="517" y="155" type="curve" smooth="yes" name="15" />
   <point x="517" y="254" type="offcurve" name="14" />
   <point x="466" y="297" type="offcurve" name="14" />
   <point x="386" y="319" type="curve" smooth="no" name="13" />
   <point x="456" y="336" type="offcurve" name="14" />
   <point x="494" y="394" type="offcurve" name="14" />
   <point x="494" y="450" type="curve" smooth="yes" name="15" />
   <point x="494" y="578" type="offcurve" name="14" />
   <point x="393" y="645" type="offcurve" name="14" />
   <point x="287" y="645" type="curve" smooth="yes" name="15" />
   <point x="179" y="645" type="offcurve" name="14" />
   <point x="76" y="579" type="offcurve" name="14" />
   <point x="76" y="457" type="curve" smooth="yes" name="15" />
   <point x="76" y="397" type="offcurve" name="14" />
   <point x="114" y="338" type="offcurve" name="14" />
  </contour>
  <contour>
   <point x="287" y="368" type="curve" smooth="no" name="13" />
   <point x="258" y="379" type="offcurve" name="14" />
   <point x="226" y="413" type="offcurve" name="14" />
   <point x="226" y="455" type="curve" smooth="yes" name="15" />
   <point x="226" y="511" type="offcurve" name="14" />
   <point x="266" y="529" type="offcurve" name="14" />
   <point x="289" y="529" type="curve" smooth="yes" name="15" />
   <point x="318" y="529" type="offcurve" name="14" />
   <point x="345" y="504" type="offcurve" name="14" />
   <point x="345" y="455" type="curve" smooth="yes" name="15" />
   <point x="345" y="414" type="offcurve" name="14" />
   <point x="309" y="375" type="offcurve" name="14" />
  </contour>
  <contour>
   <point x="290" y="264" type="curve" smooth="no" name="13" />
   <point x="329" y="245" type="offcurve" name="14" />
   <point x="358" y="208" type="offcurve" name="14" />
   <point x="358" y="166" type="curve" smooth="yes" name="15" />
   <point x="358" y="117" type="offcurve" name="14" />
   <point x="313" y="106" type="offcurve" name="14" />
   <point x="284" y="106" type="curve" smooth="yes" name="15" />
   <point x="243" y="106" type="offcurve" name="14" />
   <point x="207" y="132" type="offcurve" name="14" />
   <point x="207" y="169" type="curve" smooth="yes" name="15" />
   <point x="207" y="201" type="offcurve" name="14" />
   <point x="227" y="241" type="offcurve" name="14" />
  </contour>
 </outline>
</glyph>
<glyph name="nine" format="1">
 <advance width="546" />
 <unicode hex="0039" />
 <outline>
  <contour>
   <point x="76" y="55" type="line" smooth="no" name="13" />
   <point x="103" y="27" type="offcurve" name="14" />
   <point x="174" y="-12" type="offcurve" name="14" />
   <point x="255" y="-12" type="curve" smooth="yes" name="15" />
   <point x="434" y="-12" type="offcurve" name="14" />
   <point x="502" y="129" type="offcurve" name="14" />
   <point x="502" y="347" type="curve" smooth="yes" name="15" />
   <point x="502" y="459" type="offcurve" name="14" />
   <point x="479" y="645" type="offcurve" name="14" />
   <point x="278" y="645" type="curve" smooth="yes" name="15" />
   <point x="109" y="645" type="offcurve" name="14" />
   <point x="53" y="515" type="offcurve" name="14" />
   <point x="53" y="427" type="curve" smooth="yes" name="15" />
   <point x="53" y="268" type="offcurve" name="14" />
   <point x="148" y="218" type="offcurve" name="14" />
   <point x="257" y="218" type="curve" smooth="yes" name="15" />
   <point x="305" y="218" type="offcurve" name="14" />
   <point x="343" y="237" type="offcurve" name="14" />
   <point x="348" y="239" type="curve" smooth="no" name="13" />
   <point x="348" y="237" type="offcurve" name="14" />
   <point x="348" y="234" type="offcurve" name="14" />
   <point x="348" y="232" type="curve" smooth="yes" name="15" />
   <point x="348" y="162" type="offcurve" name="14" />
   <point x="305" y="119" type="offcurve" name="14" />
   <point x="251" y="119" type="curve" smooth="yes" name="15" />
   <point x="208" y="119" type="offcurve" name="14" />
   <point x="173" y="132" type="offcurve" name="14" />
   <point x="128" y="153" type="curve" smooth="no" name="13" />
  </contour>
  <contour>
   <point x="351" y="345" type="curve" smooth="no" name="13" />
   <point x="338" y="333" type="offcurve" name="14" />
   <point x="309" y="324" type="offcurve" name="14" />
   <point x="293" y="324" type="curve" smooth="yes" name="15" />
   <point x="258" y="324" type="offcurve" name="14" />
   <point x="213" y="336" type="offcurve" name="14" />
   <point x="213" y="427" type="curve" smooth="yes" name="15" />
   <point x="213" y="460" type="offcurve" name="14" />
   <point x="234" y="527" type="offcurve" name="14" />
   <point x="278" y="527" type="curve" smooth="yes" name="15" />
   <point x="347" y="527" type="offcurve" name="14" />
   <point x="351" y="411" type="offcurve" name="14" />
  </contour>
 </outline>
</glyph>
<glyph name="colon" format="1">
 <advance width="331" />
 <unicode hex="003a" />
 <outline>
  <contour>
   <point x="283" y="329" type="curve" smooth="yes" name="15" />
   <point x="283" y="375" type="offcurve" name="14" />
   <point x="251" y="421" type="offcurve" name="14" />
   <point x="188" y="421" type="curve" smooth="yes" name="15" />
   <point x="127" y="421" type="offcurve" name="14" />
   <point x="95" y="378" type="offcurve" name="14" />
   <point x="92" y="334" type="curve" smooth="yes" name="15" />
   <point x="92" y="333" type="offcurve" name="14" />
   <point x="92" y="331" type="offcurve" name="14" />
   <point x="92" y="330" type="curve" smooth="yes" name="15" />
   <point x="92" y="282" type="offcurve" name="14" />
   <point x="123" y="235" type="offcurve" name="14" />
   <point x="188" y="235" type="curve" smooth="yes" name="15" />
   <point x="251" y="235" type="offcurve" name="14" />
   <point x="283" y="280" type="offcurve" name="14" />
   <point x="283" y="327" type="curve" smooth="yes" name="15" />
   <point x="283" y="328" type="offcurve" name="14" />
   <point x="283" y="328" type="offcurve" name="14" />
  </contour>
  <contour>
   <point x="283" y="89" type="curve" smooth="yes" name="15" />
   <point x="283" y="135" type="offcurve" name="14" />
   <point x="251" y="181" type="offcurve" name="14" />
   <point x="188" y="181" type="curve" smooth="yes" name="15" />
   <point x="127" y="181" type="offcurve" name="14" />
   <point x="95" y="138" type="offcurve" name="14" />
   <point x="92" y="94" type="curve" smooth="yes" name="15" />
   <point x="92" y="93" type="offcurve" name="14" />
   <point x="92" y="91" type="offcurve" name="14" />
   <point x="92" y="90" type="curve" smooth="yes" name="15" />
   <point x="92" y="42" type="offcurve" name="14" />
   <point x="123" y="-5" type="offcurve" name="14" />
   <point x="188" y="-5" type="curve" smooth="yes" name="15" />
   <point x="251" y="-5" type="offcurve" name="14" />
   <point x="283" y="40" type="offcurve" name="14" />
   <point x="283" y="87" type="curve" smooth="yes" name="15" />
   <point x="283" y="88" type="offcurve" name="14" />
   <point x="283" y="88" type="offcurve" name="14" />
  </contour>
 </outline>
</glyph>
<glyph name="semicolon" format="1">
 <advance width="286" />
 <unicode hex="003b" />
 <outline>
  <contour>
   <point x="51" y="327" type="curve" smooth="no" name="13" />
   <point x="54" y="275" type="offcurve" name="14" />
   <point x="91" y="240" type="offcurve" name="14" />
   <point x="142" y="240" type="curve" smooth="yes" name="15" />
   <point x="190" y="241" type="offcurve" name="14" />
   <point x="230" y="279" type="offcurve" name="14" />
   <point x="230" y="326" type="curve" smooth="yes" name="15" />
   <point x="230" y="377" type="offcurve" name="14" />
   <point x="191" y="419" type="offcurve" name="14" />
   <point x="142" y="419" type="curve" smooth="yes" name="15" />
   <point x="91" y="419" type="offcurve" name="14" />
   <point x="55" y="383" type="offcurve" name="14" />
  </contour>
  <contour>
   <point x="47" y="-27" type="curve" smooth="no" name="13" />
   <point x="99" y="-122" type="line" smooth="no" name="13" />
   <point x="150" y="-107" type="offcurve" name="14" />
   <point x="165" y="-100" type="offcurve" name="14" />
   <point x="189" y="-76" type="curve" smooth="yes" name="15" />
   <point x="221" y="-46" type="offcurve" name="14" />
   <point x="239" y="1" type="offcurve" name="14" />
   <point x="239" y="49" type="curve" smooth="yes" name="15" />
   <point x="239" y="101" type="offcurve" name="14" />
   <point x="204" y="154" type="offcurve" name="14" />
   <point x="149" y="154" type="curve" smooth="yes" name="15" />
   <point x="95" y="154" type="offcurve" name="14" />
   <point x="54" y="118" type="offcurve" name="14" />
   <point x="54" y="66" type="curve" smooth="yes" name="15" />
   <point x="54" y="32" type="offcurve" name="14" />
   <point x="64" y="10" type="offcurve" name="14" />
   <point x="88" y="-4" type="curve" smooth="no" name="13" />
   <point x="71" y="-20" type="offcurve" name="14" />
   <point x="71" y="-20" type="offcurve" name="14" />
  </contour>
 </outline>
</glyph>
<glyph name="less" format="1">
 <advance width="529" />
 <unicode hex="003c" />
 <outline>
  <contour>
   <point x="491" y="-16" type="line" smooth="no" name="13" />
   <point x="491" y="107" type="line" smooth="no" name="13" />
   <point x="132" y="234" type="line" smooth="no" name="13" />
   <point x="491" y="360" type="line" smooth="no" name="13" />
   <point x="491" y="480" type="line" smooth="no" name="13" />
   <point x="29" y="321" type="line" smooth="no" name="13" />
   <point x="29" y="146" type="line" smooth="no" name="13" />
  </contour>
 </outline>
</glyph>
<glyph name="equal" format="1">
 <advance width="520" />
 <unicode hex="003d" />
 <outline>
  <contour>
   <point x="492" y="254" type="line" smooth="no" name="13" />
   <point x="492" y="372" type="line" smooth="no" name="13" />
   <point x="29" y="372" type="line" smooth="no" name="13" />
   <point x="29" y="254" type="line" smooth="no" name="13" />
  </contour>
  <contour>
   <point x="492" y="82" type="line" smooth="no" name="13" />
   <point x="492" y="202" type="line" smooth="no" name="13" />
   <point x="29" y="202" type="line" smooth="no" name="13" />
   <point x="29" y="82" type="line" smooth="no" name="13" />
  </contour>
 </outline>
</glyph>
<glyph name="greater" format="1">
 <advance width="529" />
 <unicode hex="003e" />
 <outline>
  <contour>
   <point x="38" y="-16" type="line" smooth="no" name="13" />
   <point x="500" y="146" type="line" smooth="no" name="13" />
   <point x="500" y="321" type="line" smooth="no" name="13" />
   <point x="38" y="480" type="line" smooth="no" name="13" />
   <point x="38" y="360" type="line" smooth="no" name="13" />
   <point x="397" y="234" type="line" smooth="no" name="13" />
   <point x="38" y="107" type="line" smooth="no" name="13" />
  </contour>
 </outline>
</glyph>
<glyph name="question" format="1">
 <advance width="410" />
 <unicode hex="003f" />
 <outline>
  <contour>
   <point x="247" y="166" type="line" smooth="no" name="13" />
   <point x="247" y="219" type="line" smooth="yes" name="15" />
   <point x="247" y="270" type="offcurve" name="14" />
   <point x="276" y="293" type="offcurve" name="14" />
   <point x="301" y="313" type="curve" smooth="yes" name="15" />
   <point x="346" y="347" type="offcurve" name="14" />
   <point x="376" y="406" type="offcurve" name="14" />
   <point x="376" y="477" type="curve" smooth="yes" name="15" />
   <point x="376" y="554" type="offcurve" name="14" />
   <point x="326" y="645" type="offcurve" name="14" />
   <point x="208" y="645" type="curve" smooth="yes" name="15" />
   <point x="129" y="645" type="offcurve" name="14" />
   <point x="65" y="612" type="offcurve" name="14" />
   <point x="29" y="573" type="curve" smooth="no" name="13" />
   <point x="86" y="491" type="line" smooth="no" name="13" />
   <point x="100" y="510" type="offcurve" name="14" />
   <point x="144" y="535" type="offcurve" name="14" />
   <point x="177" y="535" type="curve" smooth="yes" name="15" />
   <point x="212" y="535" type="offcurve" name="14" />
   <point x="239" y="511" type="offcurve" name="14" />
   <point x="239" y="477" type="curve" smooth="yes" name="15" />
   <point x="239" y="425" type="offcurve" name="14" />
   <point x="202" y="388" type="offcurve" name="14" />
   <point x="177" y="369" type="curve" smooth="yes" name="15" />
   <point x="112" y="320" type="offcurve" name="14" />
   <point x="107" y="287" type="offcurve" name="14" />
   <point x="107" y="243" type="curve" smooth="yes" name="15" />
   <point x="107" y="237" type="offcurve" name="14" />
   <point x="107" y="230" type="offcurve" name="14" />
   <point x="107" y="222" type="curve" smooth="yes" name="15" />
   <point x="107" y="166" type="line" smooth="no" name="13" />
  </contour>
  <contour>
   <point x="104" y="61" type="curve" smooth="yes" name="15" />
   <point x="104" y="21" type="offcurve" name="14" />
   <point x="138" y="-12" type="offcurve" name="14" />
   <point x="182" y="-12" type="curve" smooth="yes" name="15" />
   <point x="222" y="-12" type="offcurve" name="14" />
   <point x="256" y="21" type="offcurve" name="14" />
   <point x="256" y="61" type="curve" smooth="yes" name="15" />
   <point x="256" y="105" type="offcurve" name="14" />
   <point x="222" y="140" type="offcurve" name="14" />
   <point x="182" y="140" type="curve" smooth="yes" name="15" />
   <point x="138" y="140" type="offcurve" name="14" />
   <point x="104" y="105" type="offcurve" name="14" />
  </contour>
 </outline>
</glyph>
<glyph name="at" format="1">
 <advance width="694" />
 <unicode hex="0040" />
 <outline>
  <contour>
   <point x="431" y="-78" type="line" smooth="no" name="13" />
   <point x="424" y="-80" type="offcurve" name="14" />
   <point x="409" y="-81" type="offcurve" name="14" />
   <point x="401" y="-81" type="curve" smooth="yes" name="15" />
   <point x="400" y="-81" type="offcurve" name="14" />
   <point x="399" y="-81" type="offcurve" name="14" />
   <point x="398" y="-81" type="curve" smooth="yes" name="15" />
   <point x="300" y="-78" type="offcurve" name="14" />
   <point x="154" y="-36" type="offcurve" name="14" />
   <point x="154" y="155" type="curve" smooth="yes" name="15" />
   <point x="154" y="292" type="offcurve" name="14" />
   <point x="237" y="370" type="offcurve" name="14" />
   <point x="354" y="370" type="curve" smooth="yes" name="15" />
   <point x="439" y="370" type="offcurve" name="14" />
   <point x="545" y="308" type="offcurve" name="14" />
   <point x="545" y="183" type="curve" smooth="yes" name="15" />
   <point x="545" y="117" type="offcurve" name="14" />
   <point x="528" y="84" type="offcurve" name="14" />
   <point x="500" y="84" type="curve" smooth="yes" name="15" />
   <point x="487" y="84" type="offcurve" name="14" />
   <point x="486" y="99" type="offcurve" name="14" />
   <point x="486" y="119" type="curve" smooth="yes" name="15" />
   <point x="486" y="120" type="offcurve" name="14" />
   <point x="486" y="121" type="offcurve" name="14" />
   <point x="486" y="122" type="curve" smooth="yes" name="15" />
   <point x="486" y="311" type="line" smooth="no" name="13" />
   <point x="389" y="311" type="line" smooth="no" name="13" />
   <point x="379" y="299" type="line" smooth="no" name="13" />
   <point x="370" y="308" type="offcurve" name="14" />
   <point x="342" y="310" type="offcurve" name="14" />
   <point x="335" y="310" type="curve" smooth="yes" name="15" />
   <point x="265" y="310" type="offcurve" name="14" />
   <point x="180" y="250" type="offcurve" name="14" />
   <point x="180" y="135" type="curve" smooth="yes" name="15" />
   <point x="180" y="58" type="offcurve" name="14" />
   <point x="232" y="-12" type="offcurve" name="14" />
   <point x="302" y="-12" type="curve" smooth="yes" name="15" />
   <point x="371" y="-12" type="offcurve" name="14" />
   <point x="386" y="21" type="offcurve" name="14" />
   <point x="402" y="44" type="curve" smooth="no" name="13" />
   <point x="403" y="10" type="offcurve" name="14" />
   <point x="441" y="-12" type="offcurve" name="14" />
   <point x="497" y="-12" type="curve" smooth="yes" name="15" />
   <point x="624" y="-12" type="offcurve" name="14" />
   <point x="660" y="109" type="offcurve" name="14" />
   <point x="660" y="183" type="curve" smooth="yes" name="15" />
   <point x="660" y="361" type="offcurve" name="14" />
   <point x="507" y="466" type="offcurve" name="14" />
   <point x="354" y="466" type="curve" smooth="yes" name="15" />
   <point x="176" y="466" type="offcurve" name="14" />
   <point x="35" y="345" type="offcurve" name="14" />
   <point x="35" y="152" type="curve" smooth="yes" name="15" />
   <point x="35" y="-47" type="offcurve" name="14" />
   <point x="180" y="-173" type="offcurve" name="14" />
   <point x="355" y="-176" type="curve" smooth="yes" name="15" />
   <point x="356" y="-176" type="offcurve" name="14" />
   <point x="357" y="-176" type="offcurve" name="14" />
   <point x="359" y="-176" type="curve" smooth="yes" name="15" />
   <point x="381" y="-176" type="offcurve" name="14" />
   <point x="421" y="-173" type="offcurve" name="14" />
   <point x="435" y="-172" type="curve" smooth="no" name="13" />
  </contour>
  <contour>
   <point x="365" y="218" type="curve" smooth="no" name="13" />
   <point x="365" y="137" type="line" smooth="yes" name="15" />
   <point x="365" y="91" type="offcurve" name="14" />
   <point x="356" y="87" type="offcurve" name="14" />
   <point x="336" y="87" type="curve" smooth="yes" name="15" />
   <point x="316" y="87" type="offcurve" name="14" />
   <point x="306" y="109" type="offcurve" name="14" />
   <point x="306" y="149" type="curve" smooth="yes" name="15" />
   <point x="306" y="193" type="offcurve" name="14" />
   <point x="318" y="220" type="offcurve" name="14" />
   <point x="340" y="220" type="curve" smooth="yes" name="15" />
   <point x="347" y="220" type="offcurve" name="14" />
   <point x="359" y="219" type="offcurve" name="14" />
  </contour>
 </outline>
</glyph>
<glyph name="B" format="1">
 <advance width="564" />
 <unicode hex="0042" />
 <outline>
  <contour>
   <point x="77" y="1" type="line" smooth="no" name="13" />
   <point x="112" y="-6" type="offcurve" name="14" />
   <point x="221" y="-12" type="offcurve" name="14" />
   <point x="250" y="-12" type="curve" smooth="yes" name="15" />
   <point x="426" y="-12" type="offcurve" name="14" />
   <point x="528" y="58" type="offcurve" name="14" />
   <point x="528" y="178" type="curve" smooth="yes" name="15" />
   <point x="528" y="238" type="offcurve" name="14" />
   <point x="497" y="325" type="offcurve" name="14" />
   <point x="380" y="337" type="curve" smooth="no" name="13" />
   <point x="380" y="338" type="line" smooth="no" name="13" />
   <point x="382" y="338" type="offcurve" name="14" />
   <point x="384" y="338" type="offcurve" name="14" />
   <point x="387" y="338" type="curve" smooth="yes" name="15" />
   <point x="451" y="338" type="offcurve" name="14" />
   <point x="512" y="402" type="offcurve" name="14" />
   <point x="512" y="457" type="curve" smooth="yes" name="15" />
   <point x="512" y="564" type="offcurve" name="14" />
   <point x="438" y="645" type="offcurve" name="14" />
   <point x="269" y="645" type="curve" smooth="yes" name="15" />
   <point x="226" y="645" type="offcurve" name="14" />
   <point x="123" y="640" type="offcurve" name="14" />
   <point x="77" y="632" type="curve" smooth="no" name="13" />
  </contour>
  <contour>
   <point x="231" y="518" type="line" smooth="no" name="13" />
   <point x="244" y="521" type="offcurve" name="14" />
   <point x="260" y="523" type="offcurve" name="14" />
   <point x="276" y="523" type="curve" smooth="yes" name="15" />
   <point x="319" y="523" type="offcurve" name="14" />
   <point x="362" y="507" type="offcurve" name="14" />
   <point x="362" y="457" type="curve" smooth="yes" name="15" />
   <point x="362" y="398" type="offcurve" name="14" />
   <point x="324" y="395" type="offcurve" name="14" />
   <point x="293" y="395" type="curve" smooth="yes" name="15" />
   <point x="231" y="395" type="line" smooth="no" name="13" />
  </contour>
  <contour>
   <point x="231" y="273" type="line" smooth="no" name="13" />
   <point x="284" y="273" type="line" smooth="yes" name="15" />
   <point x="341" y="273" type="offcurve" name="14" />
   <point x="369" y="238" type="offcurve" name="14" />
   <point x="369" y="179" type="curve" smooth="yes" name="15" />
   <point x="369" y="127" type="offcurve" name="14" />
   <point x="328" y="106" type="offcurve" name="14" />
   <point x="285" y="106" type="curve" smooth="yes" name="15" />
   <point x="266" y="106" type="offcurve" name="14" />
   <point x="247" y="110" type="offcurve" name="14" />
   <point x="231" y="117" type="curve" smooth="no" name="13" />
  </contour>
 </outline>
</glyph>
<glyph name="C" format="1">
 <advance width="580" />
 <unicode hex="0043" />
 <outline>
  <contour>
   <point x="535" y="557" type="line" smooth="no" name="13" />
   <point x="472" y="612" type="offcurve" name="14" />
   <point x="405" y="645" type="offcurve" name="14" />
   <point x="342" y="645" type="curve" smooth="yes" name="15" />
   <point x="117" y="645" type="offcurve" name="14" />
   <point x="37" y="487" type="offcurve" name="14" />
   <point x="37" y="310" type="curve" smooth="yes" name="15" />
   <point x="37" y="180" type="offcurve" name="14" />
   <point x="102" y="-12" type="offcurve" name="14" />
   <point x="341" y="-12" type="curve" smooth="yes" name="15" />
   <point x="421" y="-12" type="offcurve" name="14" />
   <point x="491" y="20" type="offcurve" name="14" />
   <point x="543" y="77" type="curve" smooth="no" name="13" />
   <point x="484" y="170" type="line" smooth="no" name="13" />
   <point x="416" y="127" type="offcurve" name="14" />
   <point x="386" y="123" type="offcurve" name="14" />
   <point x="360" y="123" type="curve" smooth="yes" name="15" />
   <point x="230" y="123" type="offcurve" name="14" />
   <point x="196" y="251" type="offcurve" name="14" />
   <point x="196" y="310" type="curve" smooth="yes" name="15" />
   <point x="196" y="428" type="offcurve" name="14" />
   <point x="249" y="514" type="offcurve" name="14" />
   <point x="347" y="514" type="curve" smooth="yes" name="15" />
   <point x="393" y="514" type="offcurve" name="14" />
   <point x="435" y="489" type="offcurve" name="14" />
   <point x="476" y="458" type="curve" smooth="no" name="13" />
  </contour>
 </outline>
</glyph>
<glyph name="D" format="1">
 <advance width="639" />
 <unicode hex="0044" />
 <outline>
  <contour>
   <point x="77" y="1" type="line" smooth="no" name="13" />
   <point x="119" y="-8" type="offcurve" name="14" />
   <point x="218" y="-12" type="offcurve" name="14" />
   <point x="242" y="-12" type="curve" smooth="yes" name="15" />
   <point x="486" y="-12" type="offcurve" name="14" />
   <point x="602" y="114" type="offcurve" name="14" />
   <point x="602" y="323" type="curve" smooth="yes" name="15" />
   <point x="602" y="515" type="offcurve" name="14" />
   <point x="479" y="645" type="offcurve" name="14" />
   <point x="258" y="645" type="curve" smooth="yes" name="15" />
   <point x="187" y="645" type="offcurve" name="14" />
   <point x="87" y="636" type="offcurve" name="14" />
   <point x="77" y="632" type="curve" smooth="no" name="13" />
  </contour>
  <contour>
   <point x="231" y="518" type="line" smooth="no" name="13" />
   <point x="244" y="520" type="offcurve" name="14" />
   <point x="252" y="521" type="offcurve" name="14" />
   <point x="265" y="521" type="curve" smooth="yes" name="15" />
   <point x="364" y="521" type="offcurve" name="14" />
   <point x="442" y="455" type="offcurve" name="14" />
   <point x="442" y="319" type="curve" smooth="yes" name="15" />
   <point x="442" y="175" type="offcurve" name="14" />
   <point x="380" y="110" type="offcurve" name="14" />
   <point x="268" y="108" type="curve" smooth="yes" name="15" />
   <point x="267" y="108" type="offcurve" name="14" />
   <point x="267" y="108" type="offcurve" name="14" />
   <point x="266" y="108" type="curve" smooth="yes" name="15" />
   <point x="254" y="108" type="offcurve" name="14" />
   <point x="242" y="110" type="offcurve" name="14" />
   <point x="231" y="112" type="curve" smooth="no" name="13" />
  </contour>
 </outline>
</glyph>
<glyph name="E" format="1">
 <advance width="558" />
 <unicode hex="0045" />
 <outline>
  <contour>
   <point x="73" y="633" type="line" smooth="no" name="13" />
   <point x="73" y="0" type="line" smooth="no" name="13" />
   <point x="517" y="0" type="line" smooth="no" name="13" />
   <point x="517" y="122" type="line" smooth="no" name="13" />
   <point x="227" y="122" type="line" smooth="no" name="13" />
   <point x="227" y="264" type="line" smooth="no" name="13" />
   <point x="457" y="264" type="line" smooth="no" name="13" />
   <point x="457" y="386" type="line" smooth="no" name="13" />
   <point x="227" y="386" type="line" smooth="no" name="13" />
   <point x="227" y="511" type="line" smooth="no" name="13" />
   <point x="504" y="511" type="line" smooth="no" name="13" />
   <point x="504" y="633" type="line" smooth="no" name="13" />
  </contour>
 </outline>
</glyph>
<glyph name="F" format="1">
 <advance width="545" />
 <unicode hex="0046" />
 <outline>
  <contour>
   <point x="73" y="0" type="line" smooth="no" name="13" />
   <point x="227" y="0" type="line" smooth="no" name="13" />
   <point x="227" y="263" type="line" smooth="no" name="13" />
   <point x="457" y="263" type="line" smooth="no" name="13" />
   <point x="457" y="385" type="line" smooth="no" name="13" />
   <point x="227" y="385" type="line" smooth="no" name="13" />
   <point x="227" y="511" type="line" smooth="no" name="13" />
   <point x="504" y="511" type="line" smooth="no" name="13" />
   <point x="504" y="633" type="line" smooth="no" name="13" />
   <point x="73" y="633" type="line" smooth="no" name="13" />
  </contour>
 </outline>
</glyph>
<glyph name="G" format="1">
 <advance width="614" />
 <unicode hex="0047" />
 <outline>
  <contour>
   <point x="535" y="557" type="line" smooth="no" name="13" />
   <point x="488" y="606" type="offcurve" name="14" />
   <point x="409" y="645" type="offcurve" name="14" />
   <point x="328" y="645" type="curve" smooth="yes" name="15" />
   <point x="144" y="645" type="offcurve" name="14" />
   <point x="37" y="495" type="offcurve" name="14" />
   <point x="37" y="315" type="curve" smooth="yes" name="15" />
   <point x="37" y="160" type="offcurve" name="14" />
   <point x="111" y="-12" type="offcurve" name="14" />
   <point x="324" y="-12" type="curve" smooth="yes" name="15" />
   <point x="441" y="-12" type="offcurve" name="14" />
   <point x="499" y="24" type="offcurve" name="14" />
   <point x="558" y="56" type="curve" smooth="no" name="13" />
   <point x="558" y="365" type="line" smooth="no" name="13" />
   <point x="301" y="365" type="line" smooth="no" name="13" />
   <point x="301" y="232" type="line" smooth="no" name="13" />
   <point x="414" y="232" type="line" smooth="no" name="13" />
   <point x="414" y="126" type="line" smooth="no" name="13" />
   <point x="408" y="123" type="offcurve" name="14" />
   <point x="396" y="118" type="offcurve" name="14" />
   <point x="356" y="118" type="curve" smooth="yes" name="15" />
   <point x="279" y="118" type="offcurve" name="14" />
   <point x="196" y="193" type="offcurve" name="14" />
   <point x="196" y="311" type="curve" smooth="yes" name="15" />
   <point x="196" y="450" type="offcurve" name="14" />
   <point x="277" y="514" type="offcurve" name="14" />
   <point x="336" y="514" type="curve" smooth="yes" name="15" />
   <point x="388" y="514" type="offcurve" name="14" />
   <point x="435" y="489" type="offcurve" name="14" />
   <point x="476" y="458" type="curve" smooth="no" name="13" />
  </contour>
 </outline>
</glyph>
<glyph name="H" format="1">
 <advance width="711" />
 <unicode hex="0048" />
 <outline>
  <contour>
   <point x="77" y="0" type="line" smooth="no" name="13" />
   <point x="228" y="0" type="line" smooth="no" name="13" />
   <point x="228" y="264" type="line" smooth="no" name="13" />
   <point x="480" y="264" type="line" smooth="no" name="13" />
   <point x="480" y="0" type="line" smooth="no" name="13" />
   <point x="634" y="0" type="line" smooth="no" name="13" />
   <point x="634" y="633" type="line" smooth="no" name="13" />
   <point x="480" y="633" type="line" smooth="no" name="13" />
   <point x="480" y="386" type="line" smooth="no" name="13" />
   <point x="228" y="386" type="line" smooth="no" name="13" />
   <point x="228" y="633" type="line" smooth="no" name="13" />
   <point x="77" y="633" type="line" smooth="no" name="13" />
  </contour>
 </outline>
</glyph>
<glyph name="I" format="1">
 <advance width="305" />
 <unicode hex="0049" />
 <outline>
  <contour>
   <point x="228" y="633" type="line" smooth="no" name="13" />
   <point x="77" y="633" type="line" smooth="no" name="13" />
   <point x="77" y="0" type="line" smooth="no" name="13" />
   <point x="228" y="0" type="line" smooth="no" name="13" />
  </contour>
 </outline>
</glyph>
<glyph name="J" format="1">
 <advance width="283" />
 <unicode hex="004a" />
 <outline>
  <contour>
   <point x="206" y="633" type="line" smooth="no" name="13" />
   <point x="55" y="633" type="line" smooth="no" name="13" />
   <point x="55" y="-13" type="line" smooth="yes" name="15" />
   <point x="55" y="-49" type="offcurve" name="14" />
   <point x="47" y="-55" type="offcurve" name="14" />
   <point x="33" y="-55" type="curve" smooth="yes" name="15" />
   <point x="17" y="-55" type="offcurve" name="14" />
   <point x="-16" y="-47" type="offcurve" name="14" />
   <point x="-47" y="-27" type="curve" smooth="no" name="13" />
   <point x="-98" y="-112" type="line" smooth="no" name="13" />
   <point x="-69" y="-135" type="offcurve" name="14" />
   <point x="-8" y="-168" type="offcurve" name="14" />
   <point x="61" y="-168" type="curve" smooth="yes" name="15" />
   <point x="185" y="-168" type="offcurve" name="14" />
   <point x="206" y="-93" type="offcurve" name="14" />
   <point x="206" y="-20" type="curve" smooth="yes" name="15" />
  </contour>
 </outline>
</glyph>
<glyph name="K" format="1">
 <advance width="656" />
 <unicode hex="004b" />
 <outline>
  <contour>
   <point x="221" y="633" type="line" smooth="no" name="13" />
   <point x="77" y="633" type="line" smooth="no" name="13" />
   <point x="77" y="0" type="line" smooth="no" name="13" />
   <point x="221" y="0" type="line" smooth="no" name="13" />
   <point x="221" y="289" type="line" smooth="no" name="13" />
   <point x="226" y="289" type="line" smooth="no" name="13" />
   <point x="299" y="192" type="offcurve" name="14" />
   <point x="371" y="97" type="offcurve" name="14" />
   <point x="443" y="0" type="curve" smooth="no" name="13" />
   <point x="648" y="0" type="line" smooth="no" name="13" />
   <point x="556" y="112" type="offcurve" name="14" />
   <point x="464" y="223" type="offcurve" name="14" />
   <point x="368" y="335" type="curve" smooth="no" name="13" />
   <point x="586" y="633" type="line" smooth="no" name="13" />
   <point x="397" y="633" type="line" smooth="no" name="13" />
   <point x="222" y="381" type="line" smooth="no" name="13" />
   <point x="221" y="379" type="line" smooth="no" name="13" />
  </contour>
 </outline>
</glyph>
<glyph name="L" format="1">
 <advance width="504" />
 <unicode hex="004c" />
 <outline>
  <contour>
   <point x="77" y="0" type="line" smooth="no" name="13" />
   <point x="463" y="0" type="line" smooth="no" name="13" />
   <point x="463" y="122" type="line" smooth="no" name="13" />
   <point x="231" y="122" type="line" smooth="no" name="13" />
   <point x="231" y="633" type="line" smooth="no" name="13" />
   <point x="77" y="633" type="line" smooth="no" name="13" />
  </contour>
 </outline>
</glyph>
<glyph name="M" format="1">
 <advance width="865" />
 <unicode hex="004d" />
 <outline>
  <contour>
   <point x="788" y="633" type="line" smooth="no" name="13" />
   <point x="556" y="633" type="line" smooth="no" name="13" />
   <point x="533" y="547" type="offcurve" name="14" />
   <point x="512" y="477" type="offcurve" name="14" />
   <point x="492" y="411" type="curve" smooth="yes" name="15" />
   <point x="470" y="337" type="offcurve" name="14" />
   <point x="450" y="266" type="offcurve" name="14" />
   <point x="428" y="180" type="curve" smooth="no" name="13" />
   <point x="389" y="343" type="offcurve" name="14" />
   <point x="361" y="430" type="offcurve" name="14" />
   <point x="297" y="633" type="curve" smooth="no" name="13" />
   <point x="77" y="633" type="line" smooth="no" name="13" />
   <point x="77" y="0" type="line" smooth="no" name="13" />
   <point x="228" y="0" type="line" smooth="no" name="13" />
   <point x="228" y="503" type="line" smooth="no" name="13" />
   <point x="233" y="433" type="offcurve" name="14" />
   <point x="279" y="284" type="offcurve" name="14" />
   <point x="319" y="151" type="curve" smooth="yes" name="15" />
   <point x="336" y="96" type="offcurve" name="14" />
   <point x="353" y="43" type="offcurve" name="14" />
   <point x="364" y="0" type="curve" smooth="no" name="13" />
   <point x="496" y="0" type="line" smooth="no" name="13" />
   <point x="541" y="134" type="offcurve" name="14" />
   <point x="603" y="365" type="offcurve" name="14" />
   <point x="633" y="510" type="curve" smooth="no" name="13" />
   <point x="633" y="0" type="line" smooth="no" name="13" />
   <point x="788" y="0" type="line" smooth="no" name="13" />
  </contour>
 </outline>
</glyph>
<glyph name="N" format="1">
 <advance width="749" />
 <unicode hex="004e" />
 <outline>
  <contour>
   <point x="77" y="0" type="line" smooth="no" name="13" />
   <point x="228" y="0" type="line" smooth="no" name="13" />
   <point x="228" y="391" type="line" smooth="no" name="13" />
   <point x="291" y="307" type="offcurve" name="14" />
   <point x="471" y="84" type="offcurve" name="14" />
   <point x="543" y="0" type="curve" smooth="no" name="13" />
   <point x="673" y="0" type="line" smooth="no" name="13" />
   <point x="673" y="633" type="line" smooth="no" name="13" />
   <point x="519" y="633" type="line" smooth="no" name="13" />
   <point x="519" y="228" type="line" smooth="no" name="13" />
   <point x="455" y="313" type="offcurve" name="14" />
   <point x="273" y="544" type="offcurve" name="14" />
   <point x="203" y="633" type="curve" smooth="no" name="13" />
   <point x="77" y="633" type="line" smooth="no" name="13" />
  </contour>
 </outline>
</glyph>
<glyph name="P" format="1">
 <advance width="550" />
 <unicode hex="0050" />
 <outline>
  <contour>
   <point x="77" y="0" type="line" smooth="no" name="13" />
   <point x="231" y="0" type="line" smooth="no" name="13" />
   <point x="231" y="225" type="line" smooth="no" name="13" />
   <point x="229" y="222" type="offcurve" name="14" />
   <point x="279" y="216" type="offcurve" name="14" />
   <point x="298" y="216" type="curve" smooth="yes" name="15" />
   <point x="365" y="216" type="offcurve" name="14" />
   <point x="514" y="251" type="offcurve" name="14" />
   <point x="514" y="445" type="curve" smooth="yes" name="15" />
   <point x="514" y="554" type="offcurve" name="14" />
   <point x="452" y="645" type="offcurve" name="14" />
   <point x="265" y="645" type="curve" smooth="yes" name="15" />
   <point x="211" y="645" type="offcurve" name="14" />
   <point x="86" y="636" type="offcurve" name="14" />
   <point x="77" y="632" type="curve" smooth="no" name="13" />
  </contour>
  <contour>
   <point x="231" y="349" type="curve" smooth="no" name="13" />
   <point x="231" y="514" type="line" smooth="no" name="13" />
   <point x="239" y="518" type="offcurve" name="14" />
   <point x="257" y="521" type="offcurve" name="14" />
   <point x="281" y="521" type="curve" smooth="yes" name="15" />
   <point x="282" y="521" type="offcurve" name="14" />
   <point x="283" y="521" type="offcurve" name="14" />
   <point x="285" y="521" type="curve" smooth="yes" name="15" />
   <point x="320" y="521" type="offcurve" name="14" />
   <point x="352" y="503" type="offcurve" name="14" />
   <point x="352" y="432" type="curve" smooth="yes" name="15" />
   <point x="352" y="362" type="offcurve" name="14" />
   <point x="310" y="339" type="offcurve" name="14" />
   <point x="285" y="339" type="curve" smooth="yes" name="15" />
   <point x="277" y="339" type="offcurve" name="14" />
   <point x="254" y="339" type="offcurve" name="14" />
  </contour>
 </outline>
</glyph>
<glyph name="Q" format="1">
 <advance width="674" />
 <unicode hex="0051" />
 <outline>
  <contour>
   <point x="508" y="37" type="curve" smooth="no" name="13" />
   <point x="583" y="95" type="offcurve" name="14" />
   <point x="623" y="192" type="offcurve" name="14" />
   <point x="623" y="301" type="curve" smooth="yes" name="15" />
   <point x="623" y="477" type="offcurve" name="14" />
   <point x="528" y="645" type="offcurve" name="14" />
   <point x="330" y="645" type="curve" smooth="yes" name="15" />
   <point x="141" y="645" type="offcurve" name="14" />
   <point x="37" y="494" type="offcurve" name="14" />
   <point x="37" y="301" type="curve" smooth="yes" name="15" />
   <point x="37" y="129" type="offcurve" name="14" />
   <point x="131" y="-12" type="offcurve" name="14" />
   <point x="330" y="-12" type="curve" smooth="yes" name="15" />
   <point x="346" y="-12" type="offcurve" name="14" />
   <point x="362" y="-12" type="offcurve" name="14" />
   <point x="377" y="-11" type="curve" smooth="no" name="13" />
   <point x="457" y="-107" type="line" smooth="no" name="13" />
   <point x="637" y="-107" type="line" smooth="no" name="13" />
   <point x="595" y="-61" type="offcurve" name="14" />
   <point x="549" y="-11" type="offcurve" name="14" />
  </contour>
  <contour>
   <point x="196" y="301" type="curve" smooth="yes" name="15" />
   <point x="196" y="431" type="offcurve" name="14" />
   <point x="240" y="514" type="offcurve" name="14" />
   <point x="330" y="514" type="curve" smooth="yes" name="15" />
   <point x="415" y="514" type="offcurve" name="14" />
   <point x="463" y="431" type="offcurve" name="14" />
   <point x="463" y="301" type="curve" smooth="yes" name="15" />
   <point x="463" y="177" type="offcurve" name="14" />
   <point x="415" y="116" type="offcurve" name="14" />
   <point x="330" y="116" type="curve" smooth="yes" name="15" />
   <point x="240" y="116" type="offcurve" name="14" />
   <point x="196" y="177" type="offcurve" name="14" />
  </contour>
 </outline>
</glyph>
<glyph name="R" format="1">
 <advance width="582" />
 <unicode hex="0052" />
 <outline>
  <contour>
   <point x="77" y="0" type="line" smooth="no" name="13" />
   <point x="231" y="0" type="line" smooth="no" name="13" />
   <point x="231" y="223" type="line" smooth="no" name="13" />
   <point x="246" y="217" type="offcurve" name="14" />
   <point x="263" y="216" type="offcurve" name="14" />
   <point x="278" y="216" type="curve" smooth="yes" name="15" />
   <point x="285" y="216" type="offcurve" name="14" />
   <point x="293" y="217" type="offcurve" name="14" />
   <point x="302" y="219" type="curve" smooth="no" name="13" />
   <point x="340" y="143" type="offcurve" name="14" />
   <point x="374" y="69" type="offcurve" name="14" />
   <point x="403" y="0" type="curve" smooth="no" name="13" />
   <point x="558" y="0" type="line" smooth="no" name="13" />
   <point x="516" y="85" type="offcurve" name="14" />
   <point x="474" y="171" type="offcurve" name="14" />
   <point x="437" y="260" type="curve" smooth="no" name="13" />
   <point x="466" y="288" type="offcurve" name="14" />
   <point x="514" y="334" type="offcurve" name="14" />
   <point x="514" y="445" type="curve" smooth="yes" name="15" />
   <point x="514" y="554" type="offcurve" name="14" />
   <point x="452" y="645" type="offcurve" name="14" />
   <point x="265" y="645" type="curve" smooth="yes" name="15" />
   <point x="211" y="645" type="offcurve" name="14" />
   <point x="86" y="636" type="offcurve" name="14" />
   <point x="77" y="632" type="curve" smooth="no" name="13" />
  </contour>
  <contour>
   <point x="231" y="349" type="curve" smooth="no" name="13" />
   <point x="231" y="514" type="line" smooth="yes" name="15" />
   <point x="231" y="518" type="offcurve" name="14" />
   <point x="260" y="521" type="offcurve" name="14" />
   <point x="286" y="521" type="curve" smooth="yes" name="15" />
   <point x="322" y="521" type="offcurve" name="14" />
   <point x="352" y="503" type="offcurve" name="14" />
   <point x="352" y="445" type="curve" smooth="yes" name="15" />
   <point x="352" y="366" type="offcurve" name="14" />
   <point x="321" y="339" type="offcurve" name="14" />
   <point x="290" y="339" type="curve" smooth="yes" name="15" />
   <point x="251" y="339" type="offcurve" name="14" />
   <point x="240" y="345" type="offcurve" name="14" />
  </contour>
 </outline>
</glyph>
<glyph name="S" format="1">
 <advance width="546" />
 <unicode hex="0053" />
 <outline>
  <contour>
   <point x="37" y="69" type="line" smooth="no" name="13" />
   <point x="81" y="41" type="offcurve" name="14" />
   <point x="160" y="-12" type="offcurve" name="14" />
   <point x="272" y="-12" type="curve" smooth="yes" name="15" />
   <point x="400" y="-12" type="offcurve" name="14" />
   <point x="502" y="55" type="offcurve" name="14" />
   <point x="502" y="187" type="curve" smooth="yes" name="15" />
   <point x="502" y="277" type="offcurve" name="14" />
   <point x="439" y="335" type="offcurve" name="14" />
   <point x="314" y="386" type="curve" smooth="yes" name="15" />
   <point x="216" y="426" type="offcurve" name="14" />
   <point x="207" y="448" type="offcurve" name="14" />
   <point x="207" y="467" type="curve" smooth="yes" name="15" />
   <point x="207" y="496" type="offcurve" name="14" />
   <point x="225" y="516" type="offcurve" name="14" />
   <point x="273" y="516" type="curve" smooth="yes" name="15" />
   <point x="326" y="516" type="offcurve" name="14" />
   <point x="390" y="492" type="offcurve" name="14" />
   <point x="420" y="481" type="curve" smooth="no" name="13" />
   <point x="442" y="513" type="offcurve" name="14" />
   <point x="465" y="544" type="offcurve" name="14" />
   <point x="486" y="576" type="curve" smooth="no" name="13" />
   <point x="447" y="603" type="offcurve" name="14" />
   <point x="387" y="645" type="offcurve" name="14" />
   <point x="277" y="645" type="curve" smooth="yes" name="15" />
   <point x="134" y="645" type="offcurve" name="14" />
   <point x="63" y="565" type="offcurve" name="14" />
   <point x="63" y="468" type="curve" smooth="yes" name="15" />
   <point x="63" y="372" type="offcurve" name="14" />
   <point x="129" y="313" type="offcurve" name="14" />
   <point x="227" y="279" type="curve" smooth="yes" name="15" />
   <point x="316" y="249" type="offcurve" name="14" />
   <point x="345" y="226" type="offcurve" name="14" />
   <point x="345" y="196" type="curve" smooth="yes" name="15" />
   <point x="345" y="134" type="offcurve" name="14" />
   <point x="291" y="125" type="offcurve" name="14" />
   <point x="251" y="125" type="curve" smooth="yes" name="15" />
   <point x="207" y="125" type="offcurve" name="14" />
   <point x="152" y="131" type="offcurve" name="14" />
   <point x="106" y="164" type="curve" smooth="no" name="13" />
  </contour>
 </outline>
</glyph>
<glyph name="T" format="1">
 <advance width="550" />
 <unicode hex="0054" />
 <outline>
  <contour>
   <point x="191" y="511" type="line" smooth="no" name="13" />
   <point x="191" y="0" type="line" smooth="no" name="13" />
   <point x="346" y="0" type="line" smooth="no" name="13" />
   <point x="346" y="511" type="line" smooth="no" name="13" />
   <point x="538" y="511" type="line" smooth="no" name="13" />
   <point x="538" y="633" type="line" smooth="no" name="13" />
   <point x="12" y="633" type="line" smooth="no" name="13" />
   <point x="12" y="511" type="line" smooth="no" name="13" />
  </contour>
 </outline>
</glyph>
<glyph name="V" format="1">
 <advance width="583" />
 <unicode hex="0056" />
 <outline>
  <contour>
   <point x="290" y="252" type="line" smooth="no" name="13" />
   <point x="158" y="633" type="line" smooth="no" name="13" />
   <point x="2" y="633" type="line" smooth="no" name="13" />
   <point x="233" y="0" type="line" smooth="no" name="13" />
   <point x="349" y="0" type="line" smooth="no" name="13" />
   <point x="581" y="633" type="line" smooth="no" name="13" />
   <point x="424" y="633" type="line" smooth="no" name="13" />
  </contour>
 </outline>
</glyph>
<glyph name="W" format="1">
 <advance width="770" />
 <unicode hex="0057" />
 <outline>
  <contour>
   <point x="464" y="633" type="curve" smooth="no" name="13" />
   <point x="306" y="633" type="line" smooth="no" name="13" />
   <point x="273" y="502" type="offcurve" name="14" />
   <point x="240" y="379" type="offcurve" name="14" />
   <point x="206" y="251" type="curve" smooth="no" name="13" />
   <point x="156" y="633" type="line" smooth="no" name="13" />
   <point x="2" y="633" type="line" smooth="no" name="13" />
   <point x="136" y="0" type="line" smooth="no" name="13" />
   <point x="262" y="0" type="line" smooth="no" name="13" />
   <point x="298" y="134" type="offcurve" name="14" />
   <point x="339" y="266" type="offcurve" name="14" />
   <point x="384" y="409" type="curve" smooth="no" name="13" />
   <point x="429" y="266" type="offcurve" name="14" />
   <point x="468" y="134" type="offcurve" name="14" />
   <point x="504" y="0" type="curve" smooth="no" name="13" />
   <point x="628" y="0" type="line" smooth="no" name="13" />
   <point x="768" y="633" type="line" smooth="no" name="13" />
   <point x="613" y="633" type="line" smooth="no" name="13" />
   <point x="560" y="251" type="line" smooth="no" name="13" />
   <point x="527" y="376" type="offcurve" name="14" />
   <point x="496" y="500" type="offcurve" name="14" />
  </contour>
 </outline>
</glyph>
<glyph name="X" format="1">
 <advance width="634" />
 <unicode hex="0058" />
 <outline>
  <contour>
   <point x="630" y="633" type="curve" smooth="no" name="13" />
   <point x="451" y="633" type="line" smooth="no" name="13" />
   <point x="407" y="557" type="offcurve" name="14" />
   <point x="367" y="488" type="offcurve" name="14" />
   <point x="325" y="419" type="curve" smooth="no" name="13" />
   <point x="284" y="490" type="offcurve" name="14" />
   <point x="245" y="560" type="offcurve" name="14" />
   <point x="206" y="633" type="curve" smooth="no" name="13" />
   <point x="27" y="633" type="line" smooth="no" name="13" />
   <point x="91" y="529" type="offcurve" name="14" />
   <point x="152" y="427" type="offcurve" name="14" />
   <point x="213" y="324" type="curve" smooth="no" name="13" />
   <point x="144" y="216" type="offcurve" name="14" />
   <point x="74" y="108" type="offcurve" name="14" />
   <point x="5" y="0" type="curve" smooth="no" name="13" />
   <point x="184" y="0" type="line" smooth="no" name="13" />
   <point x="228" y="82" type="offcurve" name="14" />
   <point x="272" y="162" type="offcurve" name="14" />
   <point x="317" y="244" type="curve" smooth="no" name="13" />
   <point x="361" y="163" type="offcurve" name="14" />
   <point x="405" y="81" type="offcurve" name="14" />
   <point x="449" y="0" type="curve" smooth="no" name="13" />
   <point x="624" y="0" type="line" smooth="no" name="13" />
   <point x="557" y="107" type="offcurve" name="14" />
   <point x="492" y="210" type="offcurve" name="14" />
   <point x="424" y="321" type="curve" smooth="no" name="13" />
   <point x="493" y="426" type="offcurve" name="14" />
   <point x="560" y="529" type="offcurve" name="14" />
  </contour>
 </outline>
</glyph>
<glyph name="Z" format="1">
 <advance width="493" />
 <unicode hex="005a" />
 <outline>
  <contour>
   <point x="475" y="633" type="line" smooth="no" name="13" />
   <point x="21" y="633" type="line" smooth="no" name="13" />
   <point x="21" y="511" type="line" smooth="no" name="13" />
   <point x="293" y="511" type="line" smooth="no" name="13" />
   <point x="12" y="106" type="line" smooth="no" name="13" />
   <point x="12" y="0" type="line" smooth="no" name="13" />
   <point x="482" y="0" type="line" smooth="no" name="13" />
   <point x="482" y="122" type="line" smooth="no" name="13" />
   <point x="211" y="122" type="line" smooth="no" name="13" />
   <point x="475" y="507" type="line" smooth="no" name="13" />
  </contour>
 </outline>
</glyph>
<glyph name="bracketleft" format="1">
 <advance width="385" />
 <unicode hex="005b" />
 <outline>
  <contour>
   <point x="327" y="-140" type="line" smooth="no" name="13" />
   <point x="327" y="-32" type="line" smooth="no" name="13" />
   <point x="221" y="-32" type="line" smooth="no" name="13" />
   <point x="221" y="532" type="line" smooth="no" name="13" />
   <point x="327" y="532" type="line" smooth="no" name="13" />
   <point x="327" y="645" type="line" smooth="no" name="13" />
   <point x="78" y="645" type="line" smooth="no" name="13" />
   <point x="78" y="-140" type="line" smooth="no" name="13" />
  </contour>
 </outline>
</glyph>
<glyph name="backslash" format="1">
 <advance width="347" />
 <unicode hex="005c" />
 <outline>
  <contour>
   <point x="-51" y="633" type="line" smooth="no" name="13" />
   <point x="261" y="-30" type="line" smooth="no" name="13" />
   <point x="374" y="-30" type="line" smooth="no" name="13" />
   <point x="66" y="633" type="line" smooth="no" name="13" />
  </contour>
 </outline>
</glyph>
<glyph name="bracketright" format="1">
 <advance width="387" />
 <unicode hex="005d" />
 <outline>
  <contour>
   <point x="59" y="645" type="line" smooth="no" name="13" />
   <point x="59" y="532" type="line" smooth="no" name="13" />
   <point x="163" y="532" type="line" smooth="no" name="13" />
   <point x="163" y="-32" type="line" smooth="no" name="13" />
   <point x="59" y="-32" type="line" smooth="no" name="13" />
   <point x="59" y="-140" type="line" smooth="no" name="13" />
   <point x="310" y="-140" type="line" smooth="no" name="13" />
   <point x="310" y="645" type="line" smooth="no" name="13" />
  </contour>
 </outline>
</glyph>
<glyph name="asciicircum" format="1">
 <advance width="469" />
 <unicode hex="005e" />
 <outline>
  <contour>
   <point x="447" y="295" type="line" smooth="no" name="13" />
   <point x="290" y="609" type="line" smooth="no" name="13" />
   <point x="179" y="609" type="line" smooth="no" name="13" />
   <point x="22" y="295" type="line" smooth="no" name="13" />
   <point x="170" y="295" type="line" smooth="no" name="13" />
   <point x="232" y="426" type="line" smooth="no" name="13" />
   <point x="311" y="295" type="line" smooth="no" name="13" />
  </contour>
 </outline>
</glyph>
<glyph name="underscore" format="1">
 <advance width="409" />
 <unicode hex="005f" />
 <outline>
  <contour>
   <point x="418" y="-150" type="line" smooth="no" name="13" />
   <point x="418" y="-30" type="line" smooth="no" name="13" />
   <point x="-8" y="-30" type="line" smooth="no" name="13" />
   <point x="-8" y="-150" type="line" smooth="no" name="13" />
  </contour>
 </outline>
</glyph>
<glyph name="grave" format="1">
 <advance width="247" />
 <unicode hex="0060" />
 <outline>
  <contour>
   <point x="12" y="655" type="line" smooth="no" name="13" />
   <point x="131" y="495" type="line" smooth="no" name="13" />
   <point x="236" y="495" type="line" smooth="no" name="13" />
   <point x="156" y="655" type="line" smooth="no" name="13" />
  </contour>
 </outline>
</glyph>
<glyph name="b" format="1">
 <advance width="580" />
 <unicode hex="0062" />
 <outline>
  <contour>
   <point x="65" y="0" type="line" smooth="no" name="13" />
   <point x="188" y="0" type="line" smooth="no" name="13" />
   <point x="198" y="44" type="line" smooth="no" name="13" />
   <point x="233" y="3" type="offcurve" name="14" />
   <point x="277" y="-12" type="offcurve" name="14" />
   <point x="326" y="-12" type="curve" smooth="yes" name="15" />
   <point x="439" y="-12" type="offcurve" name="14" />
   <point x="546" y="56" type="offcurve" name="14" />
   <point x="546" y="236" type="curve" smooth="yes" name="15" />
   <point x="546" y="390" type="offcurve" name="14" />
   <point x="459" y="468" type="offcurve" name="14" />
   <point x="338" y="468" type="curve" smooth="yes" name="15" />
   <point x="321" y="468" type="offcurve" name="14" />
   <point x="295" y="463" type="offcurve" name="14" />
   <point x="280" y="456" type="curve" smooth="yes" name="15" />
   <point x="249" y="443" type="offcurve" name="14" />
   <point x="227" y="421" type="offcurve" name="14" />
   <point x="215" y="401" type="curve" smooth="no" name="13" />
   <point x="215" y="645" type="line" smooth="no" name="13" />
   <point x="65" y="559" type="line" smooth="no" name="13" />
  </contour>
  <contour>
   <point x="215" y="182" type="curve" smooth="yes" name="15" />
   <point x="215" y="249" type="line" smooth="yes" name="15" />
   <point x="217" y="324" type="offcurve" name="14" />
   <point x="235" y="361" type="offcurve" name="14" />
   <point x="308" y="361" type="curve" smooth="yes" name="15" />
   <point x="355" y="361" type="offcurve" name="14" />
   <point x="386" y="312" type="offcurve" name="14" />
   <point x="386" y="226" type="curve" smooth="yes" name="15" />
   <point x="386" y="135" type="offcurve" name="14" />
   <point x="355" y="89" type="offcurve" name="14" />
   <point x="302" y="89" type="curve" smooth="yes" name="15" />
   <point x="238" y="89" type="offcurve" name="14" />
   <point x="216" y="148" type="offcurve" name="14" />
  </contour>
 </outline>
</glyph>
<glyph name="c" format="1">
 <advance width="486" />
 <unicode hex="0063" />
 <outline>
  <contour>
   <point x="454" y="393" type="line" smooth="no" name="13" />
   <point x="425" y="429" type="offcurve" name="14" />
   <point x="363" y="466" type="offcurve" name="14" />
   <point x="277" y="466" type="curve" smooth="yes" name="15" />
   <point x="136" y="466" type="offcurve" name="14" />
   <point x="35" y="361" type="offcurve" name="14" />
   <point x="35" y="225" type="curve" smooth="yes" name="15" />
   <point x="35" y="84" type="offcurve" name="14" />
   <point x="134" y="-12" type="offcurve" name="14" />
   <point x="283" y="-12" type="curve" smooth="yes" name="15" />
   <point x="337" y="-12" type="offcurve" name="14" />
   <point x="395" y="3" type="offcurve" name="14" />
   <point x="458" y="65" type="curve" smooth="no" name="13" />
   <point x="405" y="146" type="line" smooth="no" name="13" />
   <point x="385" y="121" type="offcurve" name="14" />
   <point x="352" y="92" type="offcurve" name="14" />
   <point x="294" y="92" type="curve" smooth="yes" name="15" />
   <point x="249" y="92" type="offcurve" name="14" />
   <point x="187" y="125" type="offcurve" name="14" />
   <point x="187" y="222" type="curve" smooth="yes" name="15" />
   <point x="187" y="307" type="offcurve" name="14" />
   <point x="235" y="363" type="offcurve" name="14" />
   <point x="300" y="363" type="curve" smooth="yes" name="15" />
   <point x="338" y="363" type="offcurve" name="14" />
   <point x="370" y="350" type="offcurve" name="14" />
   <point x="408" y="313" type="curve" smooth="no" name="13" />
  </contour>
 </outline>
</glyph>
<glyph name="d" format="1">
 <advance width="574" />
 <unicode hex="0064" />
 <outline>
  <contour>
   <point x="359" y="434" type="line" smooth="no" name="13" />
   <point x="337" y="450" type="offcurve" name="14" />
   <point x="308" y="466" type="offcurve" name="14" />
   <point x="248" y="466" type="curve" smooth="yes" name="15" />
   <point x="150" y="466" type="offcurve" name="14" />
   <point x="35" y="392" type="offcurve" name="14" />
   <point x="35" y="207" type="curve" smooth="yes" name="15" />
   <point x="35" y="80" type="offcurve" name="14" />
   <point x="104" y="-12" type="offcurve" name="14" />
   <point x="246" y="-12" type="curve" smooth="yes" name="15" />
   <point x="308" y="-12" type="offcurve" name="14" />
   <point x="354" y="24" type="offcurve" name="14" />
   <point x="367" y="48" type="curve" smooth="no" name="13" />
   <point x="388" y="0" type="line" smooth="no" name="13" />
   <point x="509" y="0" type="line" smooth="no" name="13" />
   <point x="509" y="643" type="line" smooth="no" name="13" />
   <point x="359" y="560" type="line" smooth="no" name="13" />
  </contour>
  <contour>
   <point x="359" y="286" type="curve" smooth="no" name="13" />
   <point x="359" y="191" type="line" smooth="yes" name="15" />
   <point x="359" y="172" type="offcurve" name="14" />
   <point x="333" y="93" type="offcurve" name="14" />
   <point x="264" y="93" type="curve" smooth="yes" name="15" />
   <point x="210" y="93" type="offcurve" name="14" />
   <point x="187" y="140" type="offcurve" name="14" />
   <point x="187" y="228" type="curve" smooth="yes" name="15" />
   <point x="187" y="322" type="offcurve" name="14" />
   <point x="229" y="362" type="offcurve" name="14" />
   <point x="282" y="362" type="curve" smooth="yes" name="15" />
   <point x="313" y="362" type="offcurve" name="14" />
   <point x="348" y="341" type="offcurve" name="14" />
  </contour>
 </outline>
</glyph>
<glyph name="f" format="1">
 <advance width="396" />
 <unicode hex="0066" />
 <outline>
  <contour>
   <point x="29" y="333" type="line" smooth="no" name="13" />
   <point x="102" y="333" type="line" smooth="no" name="13" />
   <point x="102" y="0" type="line" smooth="no" name="13" />
   <point x="252" y="0" type="line" smooth="no" name="13" />
   <point x="252" y="333" type="line" smooth="no" name="13" />
   <point x="378" y="333" type="line" smooth="no" name="13" />
   <point x="378" y="454" type="line" smooth="no" name="13" />
   <point x="252" y="454" type="line" smooth="no" name="13" />
   <point x="252" y="494" type="line" smooth="yes" name="15" />
   <point x="252" y="525" type="offcurve" name="14" />
   <point x="262" y="535" type="offcurve" name="14" />
   <point x="277" y="535" type="curve" smooth="yes" name="15" />
   <point x="295" y="535" type="offcurve" name="14" />
   <point x="320" y="518" type="offcurve" name="14" />
   <point x="339" y="505" type="curve" smooth="no" name="13" />
   <point x="395" y="583" type="line" smooth="no" name="13" />
   <point x="358" y="613" type="offcurve" name="14" />
   <point x="309" y="645" type="offcurve" name="14" />
   <point x="228" y="645" type="curve" smooth="yes" name="15" />
   <point x="119" y="645" type="offcurve" name="14" />
   <point x="102" y="580" type="offcurve" name="14" />
   <point x="102" y="512" type="curve" smooth="yes" name="15" />
   <point x="102" y="454" type="line" smooth="no" name="13" />
   <point x="29" y="454" type="line" smooth="no" name="13" />
  </contour>
 </outline>
</glyph>
<glyph name="g" format="1">
 <advance width="580" />
 <unicode hex="0067" />
 <outline>
  <contour>
   <point x="364" y="59" type="curve" smooth="no" name="13" />
   <point x="364" y="60" type="line" smooth="no" name="13" />
   <point x="364" y="-17" type="offcurve" name="14" />
   <point x="349" y="-79" type="offcurve" name="14" />
   <point x="269" y="-79" type="curve" smooth="yes" name="15" />
   <point x="259" y="-79" type="offcurve" name="14" />
   <point x="190" y="-78" type="offcurve" name="14" />
   <point x="132" y="-41" type="curve" smooth="no" name="13" />
   <point x="96" y="-115" type="line" smooth="no" name="13" />
   <point x="158" y="-176" type="offcurve" name="14" />
   <point x="247" y="-191" type="offcurve" name="14" />
   <point x="292" y="-191" type="curve" smooth="yes" name="15" />
   <point x="458" y="-191" type="offcurve" name="14" />
   <point x="516" y="-72" type="offcurve" name="14" />
   <point x="516" y="49" type="curve" smooth="yes" name="15" />
   <point x="516" y="454" type="line" smooth="no" name="13" />
   <point x="401" y="454" type="line" smooth="no" name="13" />
   <point x="391" y="404" type="line" smooth="no" name="13" />
   <point x="391" y="404" type="offcurve" name="14" />
   <point x="391" y="404" type="offcurve" name="14" />
   <point x="391" y="404" type="curve" smooth="no" name="13" />
   <point x="391" y="411" type="offcurve" name="14" />
   <point x="349" y="466" type="offcurve" name="14" />
   <point x="253" y="466" type="curve" smooth="yes" name="15" />
   <point x="157" y="466" type="offcurve" name="14" />
   <point x="40" y="392" type="offcurve" name="14" />
   <point x="40" y="207" type="curve" smooth="yes" name="15" />
   <point x="40" y="80" type="offcurve" name="14" />
   <point x="112" y="-12" type="offcurve" name="14" />
   <point x="238" y="-12" type="curve" smooth="yes" name="15" />
   <point x="292" y="-12" type="offcurve" name="14" />
   <point x="337" y="16" type="offcurve" name="14" />
  </contour>
  <contour>
   <point x="364" y="286" type="curve" smooth="yes" name="15" />
   <point x="364" y="210" type="line" smooth="no" name="13" />
   <point x="365" y="207" type="offcurve" name="14" />
   <point x="365" y="203" type="offcurve" name="14" />
   <point x="365" y="199" type="curve" smooth="yes" name="15" />
   <point x="365" y="158" type="offcurve" name="14" />
   <point x="340" y="93" type="offcurve" name="14" />
   <point x="272" y="93" type="curve" smooth="yes" name="15" />
   <point x="217" y="93" type="offcurve" name="14" />
   <point x="193" y="140" type="offcurve" name="14" />
   <point x="193" y="228" type="curve" smooth="yes" name="15" />
   <point x="193" y="322" type="offcurve" name="14" />
   <point x="236" y="362" type="offcurve" name="14" />
   <point x="287" y="362" type="curve" smooth="yes" name="15" />
   <point x="318" y="362" type="offcurve" name="14" />
   <point x="360" y="335" type="offcurve" name="14" />
  </contour>
 </outline>
</glyph>
<glyph name="h" format="1">
 <advance width="560" />
 <unicode hex="0068" />
 <outline>
  <contour>
   <point x="65" y="562" type="line" smooth="no" name="13" />
   <point x="65" y="0" type="line" smooth="no" name="13" />
   <point x="215" y="0" type="line" smooth="no" name="13" />
   <point x="215" y="317" type="line" smooth="no" name="13" />
   <point x="225" y="330" type="offcurve" name="14" />
   <point x="245" y="341" type="offcurve" name="14" />
   <point x="281" y="341" type="curve" smooth="yes" name="15" />
   <point x="323" y="341" type="offcurve" name="14" />
   <point x="351" y="324" type="offcurve" name="14" />
   <point x="351" y="260" type="curve" smooth="yes" name="15" />
   <point x="351" y="0" type="line" smooth="no" name="13" />
   <point x="501" y="0" type="line" smooth="no" name="13" />
   <point x="501" y="265" type="line" smooth="yes" name="15" />
   <point x="501" y="411" type="offcurve" name="14" />
   <point x="453" y="468" type="offcurve" name="14" />
   <point x="335" y="468" type="curve" smooth="yes" name="15" />
   <point x="314" y="468" type="offcurve" name="14" />
   <point x="296" y="461" type="offcurve" name="14" />
   <point x="279" y="454" type="curve" smooth="yes" name="15" />
   <point x="253" y="442" type="offcurve" name="14" />
   <point x="220" y="414" type="offcurve" name="14" />
   <point x="215" y="398" type="curve" smooth="no" name="13" />
   <point x="215" y="645" type="line" smooth="no" name="13" />
  </contour>
 </outline>
</glyph>
<glyph name="i" format="1">
 <advance width="296" />
 <unicode hex="0069" />
 <outline>
  <contour>
   <point x="60" y="582" type="curve" smooth="yes" name="15" />
   <point x="60" y="530" type="offcurve" name="14" />
   <point x="91" y="498" type="offcurve" name="14" />
   <point x="146" y="494" type="curve" smooth="no" name="13" />
   <point x="203" y="497" type="offcurve" name="14" />
   <point x="237" y="529" type="offcurve" name="14" />
   <point x="237" y="582" type="curve" smooth="yes" name="15" />
   <point x="237" y="583" type="offcurve" name="14" />
   <point x="237" y="583" type="offcurve" name="14" />
   <point x="237" y="584" type="curve" smooth="yes" name="15" />
   <point x="237" y="635" type="offcurve" name="14" />
   <point x="197" y="674" type="offcurve" name="14" />
   <point x="146" y="674" type="curve" smooth="no" name="13" />
   <point x="146" y="674" type="offcurve" name="14" />
   <point x="146" y="674" type="offcurve" name="14" />
   <point x="146" y="674" type="curve" smooth="no" name="13" />
   <point x="99" y="674" type="offcurve" name="14" />
   <point x="61" y="634" type="offcurve" name="14" />
   <point x="60" y="584" type="curve" smooth="yes" name="15" />
   <point x="60" y="583" type="offcurve" name="14" />
   <point x="60" y="583" type="offcurve" name="14" />
  </contour>
  <contour>
   <point x="226" y="454" type="line" smooth="no" name="13" />
   <point x="74" y="454" type="line" smooth="no" name="13" />
   <point x="74" y="0" type="line" smooth="no" name="13" />
   <point x="226" y="0" type="line" smooth="no" name="13" />
  </contour>
 </outline>
</glyph>
<glyph name="j" format="1">
 <advance width="299" />
 <unicode hex="006a" />
 <outline>
  <contour>
   <point x="59" y="582" type="curve" smooth="yes" name="15" />
   <point x="59" y="530" type="offcurve" name="14" />
   <point x="91" y="498" type="offcurve" name="14" />
   <point x="145" y="494" type="curve" smooth="no" name="13" />
   <point x="203" y="497" type="offcurve" name="14" />
   <point x="236" y="529" type="offcurve" name="14" />
   <point x="236" y="582" type="curve" smooth="yes" name="15" />
   <point x="236" y="583" type="offcurve" name="14" />
   <point x="236" y="583" type="offcurve" name="14" />
   <point x="236" y="584" type="curve" smooth="yes" name="15" />
   <point x="236" y="635" type="offcurve" name="14" />
   <point x="196" y="674" type="offcurve" name="14" />
   <point x="146" y="674" type="curve" smooth="yes" name="15" />
   <point x="146" y="674" type="offcurve" name="14" />
   <point x="145" y="674" type="offcurve" name="14" />
   <point x="145" y="674" type="curve" smooth="yes" name="15" />
   <point x="98" y="674" type="offcurve" name="14" />
   <point x="60" y="634" type="offcurve" name="14" />
   <point x="59" y="584" type="curve" smooth="yes" name="15" />
   <point x="59" y="583" type="offcurve" name="14" />
   <point x="59" y="583" type="offcurve" name="14" />
  </contour>
  <contour>
   <point x="225" y="454" type="line" smooth="no" name="13" />
   <point x="75" y="454" type="line" smooth="no" name="13" />
   <point x="75" y="-42" type="line" smooth="yes" name="15" />
   <point x="75" y="-83" type="offcurve" name="14" />
   <point x="63" y="-83" type="offcurve" name="14" />
   <point x="54" y="-83" type="curve" smooth="yes" name="15" />
   <point x="54" y="-83" type="offcurve" name="14" />
   <point x="53" y="-83" type="offcurve" name="14" />
   <point x="53" y="-83" type="curve" smooth="yes" name="15" />
   <point x="35" y="-83" type="offcurve" name="14" />
   <point x="16" y="-81" type="offcurve" name="14" />
   <point x="-28" y="-56" type="curve" smooth="no" name="13" />
   <point x="-77" y="-131" type="line" smooth="no" name="13" />
   <point x="-44" y="-157" type="offcurve" name="14" />
   <point x="25" y="-191" type="offcurve" name="14" />
   <point x="93" y="-191" type="curve" smooth="yes" name="15" />
   <point x="207" y="-191" type="offcurve" name="14" />
   <point x="225" y="-134" type="offcurve" name="14" />
   <point x="225" y="-58" type="curve" smooth="yes" name="15" />
  </contour>
 </outline>
</glyph>
<glyph name="k" format="1">
 <advance width="537" />
 <unicode hex="006b" />
 <outline>
  <contour>
   <point x="531" y="454" type="line" smooth="no" name="13" />
   <point x="333" y="454" type="line" smooth="no" name="13" />
   <point x="295" y="422" type="offcurve" name="14" />
   <point x="256" y="391" type="offcurve" name="14" />
   <point x="215" y="361" type="curve" smooth="no" name="13" />
   <point x="215" y="645" type="line" smooth="no" name="13" />
   <point x="65" y="567" type="line" smooth="no" name="13" />
   <point x="65" y="0" type="line" smooth="no" name="13" />
   <point x="215" y="0" type="line" smooth="no" name="13" />
   <point x="215" y="202" type="line" smooth="no" name="13" />
   <point x="249" y="134" type="offcurve" name="14" />
   <point x="281" y="67" type="offcurve" name="14" />
   <point x="313" y="0" type="curve" smooth="no" name="13" />
   <point x="479" y="0" type="line" smooth="no" name="13" />
   <point x="432" y="73" type="offcurve" name="14" />
   <point x="369" y="175" type="offcurve" name="14" />
   <point x="310" y="269" type="curve" smooth="no" name="13" />
  </contour>
 </outline>
</glyph>
<glyph name="l" format="1">
 <advance width="279" />
 <unicode hex="006c" />
 <outline>
  <contour>
   <point x="215" y="645" type="line" smooth="no" name="13" />
   <point x="65" y="567" type="line" smooth="no" name="13" />
   <point x="65" y="0" type="line" smooth="no" name="13" />
   <point x="215" y="0" type="line" smooth="no" name="13" />
  </contour>
 </outline>
</glyph>
<glyph name="m" format="1">
 <advance width="911" />
 <unicode hex="006d" />
 <outline>
  <contour>
   <point x="203" y="411" type="curve" smooth="no" name="13" />
   <point x="193" y="454" type="line" smooth="no" name="13" />
   <point x="65" y="454" type="line" smooth="no" name="13" />
   <point x="65" y="0" type="line" smooth="no" name="13" />
   <point x="215" y="0" type="line" smooth="no" name="13" />
   <point x="215" y="322" type="line" smooth="no" name="13" />
   <point x="224" y="330" type="offcurve" name="14" />
   <point x="249" y="343" type="offcurve" name="14" />
   <point x="292" y="343" type="curve" smooth="yes" name="15" />
   <point x="337" y="343" type="offcurve" name="14" />
   <point x="376" y="336" type="offcurve" name="14" />
   <point x="376" y="247" type="curve" smooth="yes" name="15" />
   <point x="376" y="0" type="line" smooth="no" name="13" />
   <point x="526" y="0" type="line" smooth="no" name="13" />
   <point x="530" y="298" type="line" smooth="no" name="13" />
   <point x="557" y="333" type="offcurve" name="14" />
   <point x="590" y="342" type="offcurve" name="14" />
   <point x="619" y="342" type="curve" smooth="yes" name="15" />
   <point x="666" y="342" type="offcurve" name="14" />
   <point x="700" y="327" type="offcurve" name="14" />
   <point x="700" y="229" type="curve" smooth="yes" name="15" />
   <point x="700" y="0" type="line" smooth="no" name="13" />
   <point x="852" y="0" type="line" smooth="no" name="13" />
   <point x="852" y="272" type="line" smooth="yes" name="15" />
   <point x="852" y="415" type="offcurve" name="14" />
   <point x="796" y="466" type="offcurve" name="14" />
   <point x="692" y="466" type="curve" smooth="yes" name="15" />
   <point x="624" y="466" type="offcurve" name="14" />
   <point x="548" y="429" type="offcurve" name="14" />
   <point x="521" y="371" type="curve" smooth="no" name="13" />
   <point x="495" y="432" type="offcurve" name="14" />
   <point x="424" y="466" type="offcurve" name="14" />
   <point x="347" y="466" type="curve" smooth="yes" name="15" />
   <point x="266" y="466" type="offcurve" name="14" />
   <point x="226" y="429" type="offcurve" name="14" />
  </contour>
 </outline>
</glyph>
<glyph name="n" format="1">
 <advance width="562" />
 <unicode hex="006e" />
 <outline>
  <contour>
   <point x="209" y="411" type="curve" smooth="no" name="13" />
   <point x="193" y="454" type="line" smooth="no" name="13" />
   <point x="65" y="454" type="line" smooth="no" name="13" />
   <point x="65" y="0" type="line" smooth="no" name="13" />
   <point x="215" y="0" type="line" smooth="no" name="13" />
   <point x="215" y="322" type="line" smooth="no" name="13" />
   <point x="221" y="329" type="offcurve" name="14" />
   <point x="251" y="341" type="offcurve" name="14" />
   <point x="279" y="341" type="curve" smooth="yes" name="15" />
   <point x="323" y="341" type="offcurve" name="14" />
   <point x="351" y="324" type="offcurve" name="14" />
   <point x="351" y="260" type="curve" smooth="yes" name="15" />
   <point x="351" y="0" type="line" smooth="no" name="13" />
   <point x="502" y="0" type="line" smooth="no" name="13" />
   <point x="502" y="265" type="line" smooth="yes" name="15" />
   <point x="502" y="409" type="offcurve" name="14" />
   <point x="461" y="466" type="offcurve" name="14" />
   <point x="342" y="466" type="curve" smooth="yes" name="15" />
   <point x="280" y="466" type="offcurve" name="14" />
   <point x="223" y="427" type="offcurve" name="14" />
  </contour>
 </outline>
</glyph>
<glyph name="o" format="1">
 <advance width="527" />
 <unicode hex="006f" />
 <outline>
  <contour>
   <point x="264" y="466" type="curve" smooth="yes" name="15" />
   <point x="116" y="466" type="offcurve" name="14" />
   <point x="35" y="358" type="offcurve" name="14" />
   <point x="35" y="226" type="curve" smooth="yes" name="15" />
   <point x="35" y="80" type="offcurve" name="14" />
   <point x="150" y="-12" type="offcurve" name="14" />
   <point x="263" y="-12" type="curve" smooth="yes" name="15" />
   <point x="378" y="-12" type="offcurve" name="14" />
   <point x="493" y="80" type="offcurve" name="14" />
   <point x="493" y="226" type="curve" smooth="yes" name="15" />
   <point x="493" y="358" type="offcurve" name="14" />
   <point x="412" y="466" type="offcurve" name="14" />
  </contour>
  <contour>
   <point x="187" y="226" type="curve" smooth="yes" name="15" />
   <point x="187" y="316" type="offcurve" name="14" />
   <point x="209" y="362" type="offcurve" name="14" />
   <point x="264" y="362" type="curve" smooth="yes" name="15" />
   <point x="319" y="362" type="offcurve" name="14" />
   <point x="341" y="316" type="offcurve" name="14" />
   <point x="341" y="226" type="curve" smooth="yes" name="15" />
   <point x="341" y="115" type="offcurve" name="14" />
   <point x="302" y="98" type="offcurve" name="14" />
   <point x="265" y="98" type="curve" smooth="yes" name="15" />
   <point x="226" y="98" type="offcurve" name="14" />
   <point x="187" y="115" type="offcurve" name="14" />
  </contour>
 </outline>
</glyph>
<glyph name="p" format="1">
 <advance width="554" />
 <unicode hex="0070" />
 <outline>
  <contour>
   <point x="212" y="17" type="line" smooth="no" name="13" />
   <point x="210" y="17" type="offcurve" name="14" />
   <point x="249" y="-12" type="offcurve" name="14" />
   <point x="299" y="-12" type="curve" smooth="yes" name="15" />
   <point x="409" y="-12" type="offcurve" name="14" />
   <point x="520" y="69" type="offcurve" name="14" />
   <point x="520" y="236" type="curve" smooth="yes" name="15" />
   <point x="520" y="371" type="offcurve" name="14" />
   <point x="439" y="466" type="offcurve" name="14" />
   <point x="300" y="466" type="curve" smooth="yes" name="15" />
   <point x="249" y="466" type="offcurve" name="14" />
   <point x="209" y="439" type="offcurve" name="14" />
   <point x="190" y="413" type="curve" smooth="no" name="13" />
   <point x="177" y="454" type="line" smooth="no" name="13" />
   <point x="65" y="454" type="line" smooth="no" name="13" />
   <point x="65" y="-177" type="line" smooth="no" name="13" />
   <point x="212" y="-177" type="line" smooth="no" name="13" />
  </contour>
  <contour>
   <point x="212" y="179" type="curve" smooth="yes" name="15" />
   <point x="212" y="255" type="line" smooth="yes" name="15" />
   <point x="212" y="280" type="offcurve" name="14" />
   <point x="217" y="361" type="offcurve" name="14" />
   <point x="285" y="361" type="curve" smooth="yes" name="15" />
   <point x="331" y="361" type="offcurve" name="14" />
   <point x="364" y="310" type="offcurve" name="14" />
   <point x="364" y="226" type="curve" smooth="yes" name="15" />
   <point x="364" y="138" type="offcurve" name="14" />
   <point x="323" y="89" type="offcurve" name="14" />
   <point x="278" y="89" type="curve" smooth="yes" name="15" />
   <point x="228" y="89" type="offcurve" name="14" />
   <point x="212" y="141" type="offcurve" name="14" />
  </contour>
 </outline>
</glyph>
<glyph name="q" format="1">
 <advance width="558" />
 <unicode hex="0071" />
 <outline>
  <contour>
   <point x="342" y="-176" type="line" smooth="no" name="13" />
   <point x="493" y="-176" type="line" smooth="no" name="13" />
   <point x="493" y="454" type="line" smooth="no" name="13" />
   <point x="373" y="454" type="line" smooth="no" name="13" />
   <point x="368" y="404" type="line" smooth="no" name="13" />
   <point x="356" y="419" type="offcurve" name="14" />
   <point x="331" y="466" type="offcurve" name="14" />
   <point x="246" y="466" type="curve" smooth="yes" name="15" />
   <point x="138" y="466" type="offcurve" name="14" />
   <point x="35" y="379" type="offcurve" name="14" />
   <point x="35" y="212" type="curve" smooth="yes" name="15" />
   <point x="35" y="85" type="offcurve" name="14" />
   <point x="97" y="-12" type="offcurve" name="14" />
   <point x="234" y="-12" type="curve" smooth="yes" name="15" />
   <point x="299" y="-12" type="offcurve" name="14" />
   <point x="335" y="32" type="offcurve" name="14" />
   <point x="342" y="46" type="curve" smooth="no" name="13" />
  </contour>
  <contour>
   <point x="342" y="285" type="curve" smooth="yes" name="15" />
   <point x="342" y="209" type="line" smooth="yes" name="15" />
   <point x="342" y="138" type="offcurve" name="14" />
   <point x="319" y="93" type="offcurve" name="14" />
   <point x="269" y="93" type="curve" smooth="yes" name="15" />
   <point x="209" y="93" type="offcurve" name="14" />
   <point x="185" y="140" type="offcurve" name="14" />
   <point x="185" y="228" type="curve" smooth="yes" name="15" />
   <point x="185" y="315" type="offcurve" name="14" />
   <point x="218" y="362" type="offcurve" name="14" />
   <point x="269" y="362" type="curve" smooth="yes" name="15" />
   <point x="324" y="362" type="offcurve" name="14" />
   <point x="342" y="310" type="offcurve" name="14" />
  </contour>
 </outline>
</glyph>
<glyph name="r" format="1">
 <advance width="440" />
 <unicode hex="0072" />
 <outline>
  <contour>
   <point x="192" y="454" type="line" smooth="no" name="13" />
   <point x="65" y="454" type="line" smooth="no" name="13" />
   <point x="65" y="0" type="line" smooth="no" name="13" />
   <point x="212" y="0" type="line" smooth="no" name="13" />
   <point x="212" y="315" type="line" smooth="no" name="13" />
   <point x="220" y="340" type="offcurve" name="14" />
   <point x="237" y="342" type="offcurve" name="14" />
   <point x="247" y="342" type="curve" smooth="yes" name="15" />
   <point x="274" y="342" type="offcurve" name="14" />
   <point x="295" y="323" type="offcurve" name="14" />
   <point x="310" y="301" type="curve" smooth="no" name="13" />
   <point x="437" y="367" type="line" smooth="no" name="13" />
   <point x="407" y="428" type="offcurve" name="14" />
   <point x="358" y="466" type="offcurve" name="14" />
   <point x="293" y="466" type="curve" smooth="yes" name="15" />
   <point x="246" y="466" type="offcurve" name="14" />
   <point x="209" y="432" type="offcurve" name="14" />
   <point x="205" y="419" type="curve" smooth="no" name="13" />
  </contour>
 </outline>
</glyph>
<glyph name="t" format="1">
 <advance width="420" />
 <unicode hex="0074" />
 <outline>
  <contour>
   <point x="343" y="122" type="line" smooth="no" name="13" />
   <point x="311" y="104" type="offcurve" name="14" />
   <point x="282" y="92" type="offcurve" name="14" />
   <point x="264" y="92" type="curve" smooth="yes" name="15" />
   <point x="242" y="92" type="offcurve" name="14" />
   <point x="240" y="105" type="offcurve" name="14" />
   <point x="240" y="127" type="curve" smooth="yes" name="15" />
   <point x="240" y="131" type="offcurve" name="14" />
   <point x="241" y="135" type="offcurve" name="14" />
   <point x="241" y="139" type="curve" smooth="yes" name="15" />
   <point x="241" y="334" type="line" smooth="no" name="13" />
   <point x="367" y="334" type="line" smooth="no" name="13" />
   <point x="367" y="454" type="line" smooth="no" name="13" />
   <point x="242" y="454" type="line" smooth="no" name="13" />
   <point x="242" y="608" type="line" smooth="no" name="13" />
   <point x="189" y="580" type="offcurve" name="14" />
   <point x="142" y="556" type="offcurve" name="14" />
   <point x="91" y="528" type="curve" smooth="no" name="13" />
   <point x="91" y="454" type="line" smooth="no" name="13" />
   <point x="29" y="454" type="line" smooth="no" name="13" />
   <point x="29" y="334" type="line" smooth="no" name="13" />
   <point x="90" y="334" type="line" smooth="no" name="13" />
   <point x="90" y="117" type="line" smooth="yes" name="15" />
   <point x="90" y="39" type="offcurve" name="14" />
   <point x="111" y="-18" type="offcurve" name="14" />
   <point x="212" y="-18" type="curve" smooth="yes" name="15" />
   <point x="287" y="-18" type="offcurve" name="14" />
   <point x="347" y="11" type="offcurve" name="14" />
   <point x="392" y="47" type="curve" smooth="no" name="13" />
  </contour>
 </outline>
</glyph>
<glyph name="u" format="1">
 <advance width="546" />
 <unicode hex="0075" />
 <outline>
  <contour>
   <point x="357" y="52" type="curve" smooth="no" name="13" />
   <point x="371" y="0" type="line" smooth="no" name="13" />
   <point x="481" y="0" type="line" smooth="no" name="13" />
   <point x="481" y="454" type="line" smooth="no" name="13" />
   <point x="331" y="454" type="line" smooth="no" name="13" />
   <point x="331" y="129" type="line" smooth="no" name="13" />
   <point x="330" y="122" type="offcurve" name="14" />
   <point x="297" y="110" type="offcurve" name="14" />
   <point x="280" y="110" type="curve" smooth="yes" name="15" />
   <point x="234" y="110" type="offcurve" name="14" />
   <point x="212" y="125" type="offcurve" name="14" />
   <point x="212" y="223" type="curve" smooth="yes" name="15" />
   <point x="212" y="454" type="line" smooth="no" name="13" />
   <point x="65" y="454" type="line" smooth="no" name="13" />
   <point x="65" y="182" type="line" smooth="yes" name="15" />
   <point x="65" y="21" type="offcurve" name="14" />
   <point x="117" y="-12" type="offcurve" name="14" />
   <point x="224" y="-12" type="curve" smooth="yes" name="15" />
   <point x="324" y="-12" type="offcurve" name="14" />
   <point x="356" y="46" type="offcurve" name="14" />
  </contour>
 </outline>
</glyph>
<glyph name="v" format="1">
 <advance width="482" />
 <unicode hex="0076" />
 <outline>
  <contour>
   <point x="291" y="0" type="line" smooth="no" name="13" />
   <point x="353" y="153" type="offcurve" name="14" />
   <point x="416" y="306" type="offcurve" name="14" />
   <point x="480" y="454" type="curve" smooth="no" name="13" />
   <point x="324" y="454" type="line" smooth="no" name="13" />
   <point x="233" y="184" type="line" smooth="no" name="13" />
   <point x="151" y="454" type="line" smooth="no" name="13" />
   <point x="2" y="454" type="line" smooth="no" name="13" />
   <point x="181" y="0" type="line" smooth="no" name="13" />
  </contour>
 </outline>
</glyph>
<glyph name="w" format="1">
 <advance width="699" />
 <unicode hex="0077" />
 <outline>
  <contour>
   <point x="287" y="0" type="line" smooth="no" name="13" />
   <point x="305" y="82" type="offcurve" name="14" />
   <point x="324" y="168" type="offcurve" name="14" />
   <point x="343" y="254" type="curve" smooth="no" name="13" />
   <point x="365" y="168" type="offcurve" name="14" />
   <point x="383" y="83" type="offcurve" name="14" />
   <point x="402" y="0" type="curve" smooth="no" name="13" />
   <point x="530" y="0" type="line" smooth="no" name="13" />
   <point x="698" y="454" type="line" smooth="no" name="13" />
   <point x="544" y="454" type="line" smooth="no" name="13" />
   <point x="470" y="183" type="line" smooth="no" name="13" />
   <point x="452" y="274" type="offcurve" name="14" />
   <point x="435" y="363" type="offcurve" name="14" />
   <point x="420" y="454" type="curve" smooth="no" name="13" />
   <point x="272" y="454" type="line" smooth="no" name="13" />
   <point x="255" y="363" type="offcurve" name="14" />
   <point x="238" y="273" type="offcurve" name="14" />
   <point x="222" y="183" type="curve" smooth="no" name="13" />
   <point x="151" y="454" type="line" smooth="no" name="13" />
   <point x="2" y="454" type="line" smooth="no" name="13" />
   <point x="160" y="0" type="line" smooth="no" name="13" />
  </contour>
 </outline>
</glyph>
<glyph name="x" format="1">
 <advance width="496" />
 <unicode hex="0078" />
 <outline>
  <contour>
   <point x="491" y="454" type="curve" smooth="no" name="13" />
   <point x="332" y="454" type="line" smooth="no" name="13" />
   <point x="306" y="412" type="offcurve" name="14" />
   <point x="283" y="374" type="offcurve" name="14" />
   <point x="258" y="333" type="curve" smooth="no" name="13" />
   <point x="233" y="373" type="offcurve" name="14" />
   <point x="209" y="414" type="offcurve" name="14" />
   <point x="187" y="454" type="curve" smooth="no" name="13" />
   <point x="28" y="454" type="line" smooth="no" name="13" />
   <point x="80" y="378" type="offcurve" name="14" />
   <point x="133" y="301" type="offcurve" name="14" />
   <point x="183" y="223" type="curve" smooth="no" name="13" />
   <point x="121" y="148" type="offcurve" name="14" />
   <point x="59" y="73" type="offcurve" name="14" />
   <point x="-1" y="0" type="curve" smooth="no" name="13" />
   <point x="161" y="0" type="line" smooth="no" name="13" />
   <point x="253" y="121" type="line" smooth="no" name="13" />
   <point x="332" y="0" type="line" smooth="no" name="13" />
   <point x="496" y="0" type="line" smooth="no" name="13" />
   <point x="332" y="226" type="line" smooth="no" name="13" />
   <point x="386" y="303" type="offcurve" name="14" />
   <point x="439" y="379" type="offcurve" name="14" />
  </contour>
 </outline>
</glyph>
<glyph name="z" format="1">
 <advance width="430" />
 <unicode hex="007a" />
 <outline>
  <contour>
   <point x="418" y="0" type="line" smooth="no" name="13" />
   <point x="418" y="118" type="line" smooth="no" name="13" />
   <point x="189" y="118" type="line" smooth="no" name="13" />
   <point x="412" y="331" type="line" smooth="no" name="13" />
   <point x="412" y="454" type="line" smooth="no" name="13" />
   <point x="25" y="454" type="line" smooth="no" name="13" />
   <point x="25" y="334" type="line" smooth="no" name="13" />
   <point x="231" y="334" type="line" smooth="no" name="13" />
   <point x="12" y="121" type="line" smooth="no" name="13" />
   <point x="12" y="0" type="line" smooth="no" name="13" />
  </contour>
 </outline>
</glyph>
<glyph name="braceleft" format="1">
 <advance width="405" />
 <unicode hex="007b" />
 <outline>
  <contour>
   <point x="362" y="-29" type="line" smooth="no" name="13" />
   <point x="336" y="-29" type="line" smooth="yes" name="15" />
   <point x="330" y="-29" type="offcurve" name="14" />
   <point x="324" y="-29" type="offcurve" name="14" />
   <point x="319" y="-29" type="curve" smooth="yes" name="15" />
   <point x="289" y="-29" type="offcurve" name="14" />
   <point x="274" y="-24" type="offcurve" name="14" />
   <point x="274" y="37" type="curve" smooth="yes" name="15" />
   <point x="274" y="100" type="line" smooth="yes" name="15" />
   <point x="274" y="216" type="offcurve" name="14" />
   <point x="244" y="236" type="offcurve" name="14" />
   <point x="215" y="248" type="curve" smooth="no" name="13" />
   <point x="244" y="262" type="offcurve" name="14" />
   <point x="274" y="287" type="offcurve" name="14" />
   <point x="274" y="404" type="curve" smooth="yes" name="15" />
   <point x="274" y="468" type="line" smooth="yes" name="15" />
   <point x="274" y="529" type="offcurve" name="14" />
   <point x="289" y="534" type="offcurve" name="14" />
   <point x="319" y="534" type="curve" smooth="yes" name="15" />
   <point x="324" y="534" type="offcurve" name="14" />
   <point x="330" y="534" type="offcurve" name="14" />
   <point x="336" y="534" type="curve" smooth="yes" name="15" />
   <point x="362" y="534" type="line" smooth="no" name="13" />
   <point x="362" y="644" type="line" smooth="no" name="13" />
   <point x="309" y="644" type="line" smooth="yes" name="15" />
   <point x="168" y="644" type="offcurve" name="14" />
   <point x="133" y="611" type="offcurve" name="14" />
   <point x="133" y="468" type="curve" smooth="yes" name="15" />
   <point x="133" y="404" type="line" smooth="yes" name="15" />
   <point x="133" y="313" type="offcurve" name="14" />
   <point x="83" y="301" type="offcurve" name="14" />
   <point x="35" y="301" type="curve" smooth="no" name="13" />
   <point x="35" y="195" type="line" smooth="no" name="13" />
   <point x="90" y="195" type="offcurve" name="14" />
   <point x="133" y="191" type="offcurve" name="14" />
   <point x="133" y="100" type="curve" smooth="yes" name="15" />
   <point x="133" y="37" type="line" smooth="yes" name="15" />
   <point x="133" y="-106" type="offcurve" name="14" />
   <point x="168" y="-139" type="offcurve" name="14" />
   <point x="309" y="-139" type="curve" smooth="yes" name="15" />
   <point x="362" y="-139" type="line" smooth="no" name="13" />
  </contour>
 </outline>
</glyph>
<glyph name="bar" format="1">
 <advance width="293" />
 <unicode hex="007c" />
 <outline>
  <contour>
   <point x="216" y="662" type="line" smooth="no" name="13" />
   <point x="77" y="662" type="line" smooth="no" name="13" />
   <point x="77" y="-179" type="line" smooth="no" name="13" />
   <point x="216" y="-179" type="line" smooth="no" name="13" />
  </contour>
 </outline>
</glyph>
<glyph name="braceright" format="1">
 <advance width="405" />
 <unicode hex="007d" />
 <outline>
  <contour>
   <point x="44" y="536" type="line" smooth="no" name="13" />
   <point x="69" y="536" type="line" smooth="yes" name="15" />
   <point x="76" y="536" type="offcurve" name="14" />
   <point x="81" y="536" type="offcurve" name="14" />
   <point x="87" y="536" type="curve" smooth="yes" name="15" />
   <point x="116" y="536" type="offcurve" name="14" />
   <point x="131" y="531" type="offcurve" name="14" />
   <point x="131" y="469" type="curve" smooth="yes" name="15" />
   <point x="131" y="405" type="line" smooth="yes" name="15" />
   <point x="131" y="288" type="offcurve" name="14" />
   <point x="162" y="263" type="offcurve" name="14" />
   <point x="191" y="250" type="curve" smooth="no" name="13" />
   <point x="162" y="237" type="offcurve" name="14" />
   <point x="131" y="217" type="offcurve" name="14" />
   <point x="131" y="102" type="curve" smooth="yes" name="15" />
   <point x="131" y="39" type="line" smooth="yes" name="15" />
   <point x="131" y="-23" type="offcurve" name="14" />
   <point x="116" y="-28" type="offcurve" name="14" />
   <point x="87" y="-28" type="curve" smooth="yes" name="15" />
   <point x="81" y="-28" type="offcurve" name="14" />
   <point x="76" y="-27" type="offcurve" name="14" />
   <point x="69" y="-27" type="curve" smooth="yes" name="15" />
   <point x="44" y="-27" type="line" smooth="no" name="13" />
   <point x="44" y="-137" type="line" smooth="no" name="13" />
   <point x="96" y="-137" type="line" smooth="yes" name="15" />
   <point x="238" y="-137" type="offcurve" name="14" />
   <point x="273" y="-105" type="offcurve" name="14" />
   <point x="273" y="39" type="curve" smooth="yes" name="15" />
   <point x="273" y="102" type="line" smooth="yes" name="15" />
   <point x="273" y="192" type="offcurve" name="14" />
   <point x="316" y="197" type="offcurve" name="14" />
   <point x="371" y="197" type="curve" smooth="no" name="13" />
   <point x="371" y="302" type="line" smooth="no" name="13" />
   <point x="322" y="302" type="offcurve" name="14" />
   <point x="273" y="315" type="offcurve" name="14" />
   <point x="273" y="405" type="curve" smooth="yes" name="15" />
   <point x="273" y="469" type="line" smooth="yes" name="15" />
   <point x="273" y="613" type="offcurve" name="14" />
   <point x="238" y="646" type="offcurve" name="14" />
   <point x="96" y="646" type="curve" smooth="yes" name="15" />
   <point x="44" y="646" type="line" smooth="no" name="13" />
  </contour>
 </outline>
</glyph>
<glyph name="asciitilde" format="1">
 <advance width="544" />
 <unicode hex="007e" />
 <outline>
  <contour>
   <point x="442" y="330" type="line" smooth="no" name="13" />
   <point x="427" y="297" type="offcurve" name="14" />
   <point x="412" y="268" type="offcurve" name="14" />
   <point x="376" y="268" type="curve" smooth="yes" name="15" />
   <point x="350" y="268" type="offcurve" name="14" />
   <point x="302" y="286" type="offcurve" name="14" />
   <point x="268" y="298" type="curve" smooth="no" name="13" />
   <point x="264" y="299" type="offcurve" name="14" />
   <point x="260" y="300" type="offcurve" name="14" />
   <point x="256" y="302" type="curve" smooth="no" name="13" />
   <point x="224" y="313" type="offcurve" name="14" />
   <point x="189" y="326" type="offcurve" name="14" />
   <point x="163" y="326" type="curve" smooth="yes" name="15" />
   <point x="102" y="326" type="offcurve" name="14" />
   <point x="48" y="292" type="offcurve" name="14" />
   <point x="29" y="217" type="curve" smooth="no" name="13" />
   <point x="105" y="161" type="line" smooth="no" name="13" />
   <point x="122" y="202" type="offcurve" name="14" />
   <point x="142" y="221" type="offcurve" name="14" />
   <point x="175" y="221" type="curve" smooth="yes" name="15" />
   <point x="185" y="221" type="offcurve" name="14" />
   <point x="226" y="207" type="offcurve" name="14" />
   <point x="246" y="198" type="curve" smooth="yes" name="15" />
   <point x="284" y="183" type="offcurve" name="14" />
   <point x="328" y="163" type="offcurve" name="14" />
   <point x="364" y="163" type="curve" smooth="yes" name="15" />
   <point x="444" y="163" type="offcurve" name="14" />
   <point x="496" y="204" type="offcurve" name="14" />
   <point x="515" y="275" type="curve" smooth="no" name="13" />
  </contour>
 </outline>
</glyph>
<glyph name="exclamdown" format="1">
 <advance width="323" />
 <unicode hex="00a1" />
 <outline>
  <contour>
   <point x="75" y="268" type="line" smooth="no" name="13" />
   <point x="75" y="-169" type="line" smooth="no" name="13" />
   <point x="240" y="-169" type="line" smooth="no" name="13" />
   <point x="240" y="268" type="line" smooth="no" name="13" />
  </contour>
  <contour>
   <point x="259" y="400" type="curve" smooth="yes" name="15" />
   <point x="259" y="401" type="offcurve" name="14" />
   <point x="259" y="402" type="offcurve" name="14" />
   <point x="259" y="402" type="curve" smooth="yes" name="15" />
   <point x="259" y="449" type="offcurve" name="14" />
   <point x="227" y="494" type="offcurve" name="14" />
   <point x="164" y="494" type="curve" smooth="yes" name="15" />
   <point x="99" y="494" type="offcurve" name="14" />
   <point x="68" y="447" type="offcurve" name="14" />
   <point x="68" y="400" type="curve" smooth="yes" name="15" />
   <point x="68" y="398" type="offcurve" name="14" />
   <point x="68" y="397" type="offcurve" name="14" />
   <point x="68" y="395" type="curve" smooth="yes" name="15" />
   <point x="71" y="351" type="offcurve" name="14" />
   <point x="103" y="308" type="offcurve" name="14" />
   <point x="164" y="308" type="curve" smooth="yes" name="15" />
   <point x="227" y="308" type="offcurve" name="14" />
   <point x="259" y="354" type="offcurve" name="14" />
  </contour>
 </outline>
</glyph>
<glyph name="cent" format="1">
 <advance width="489" />
 <unicode hex="00a2" />
 <outline>
  <contour>
   <point x="289" y="-15" type="line" smooth="no" name="13" />
   <point x="326" y="-12" type="offcurve" name="14" />
   <point x="394" y="-3" type="offcurve" name="14" />
   <point x="458" y="65" type="curve" smooth="no" name="13" />
   <point x="415" y="149" type="line" smooth="no" name="13" />
   <point x="369" y="107" type="offcurve" name="14" />
   <point x="327" y="93" type="offcurve" name="14" />
   <point x="291" y="93" type="curve" smooth="yes" name="15" />
   <point x="289" y="93" type="line" smooth="no" name="13" />
   <point x="289" y="362" type="line" smooth="no" name="13" />
   <point x="290" y="362" type="offcurve" name="14" />
   <point x="291" y="362" type="offcurve" name="14" />
   <point x="291" y="362" type="curve" smooth="yes" name="15" />
   <point x="331" y="362" type="offcurve" name="14" />
   <point x="382" y="345" type="offcurve" name="14" />
   <point x="424" y="313" type="curve" smooth="no" name="13" />
   <point x="454" y="393" type="line" smooth="no" name="13" />
   <point x="371" y="460" type="offcurve" name="14" />
   <point x="316" y="462" type="offcurve" name="14" />
   <point x="289" y="464" type="curve" smooth="no" name="13" />
   <point x="289" y="512" type="line" smooth="no" name="13" />
   <point x="237" y="512" type="line" smooth="no" name="13" />
   <point x="237" y="462" type="line" smooth="no" name="13" />
   <point x="116" y="441" type="offcurve" name="14" />
   <point x="35" y="342" type="offcurve" name="14" />
   <point x="35" y="225" type="curve" smooth="yes" name="15" />
   <point x="35" y="99" type="offcurve" name="14" />
   <point x="112" y="6" type="offcurve" name="14" />
   <point x="237" y="-11" type="curve" smooth="no" name="13" />
   <point x="237" y="-52" type="line" smooth="no" name="13" />
   <point x="289" y="-52" type="line" smooth="no" name="13" />
  </contour>
  <contour>
   <point x="237" y="105" type="line" smooth="no" name="13" />
   <point x="202" y="130" type="offcurve" name="14" />
   <point x="187" y="174" type="offcurve" name="14" />
   <point x="187" y="222" type="curve" smooth="yes" name="15" />
   <point x="187" y="274" type="offcurve" name="14" />
   <point x="201" y="328" type="offcurve" name="14" />
   <point x="237" y="352" type="curve" smooth="no" name="13" />
  </contour>
 </outline>
</glyph>
<glyph name="sterling" format="1">
 <advance width="542" />
 <unicode hex="00a3" />
 <outline>
  <contour>
   <point x="391" y="271" type="line" smooth="no" name="13" />
   <point x="391" y="381" type="line" smooth="no" name="13" />
   <point x="246" y="381" type="line" smooth="no" name="13" />
   <point x="246" y="431" type="line" smooth="yes" name="15" />
   <point x="246" y="489" type="offcurve" name="14" />
   <point x="278" y="517" type="offcurve" name="14" />
   <point x="324" y="517" type="curve" smooth="yes" name="15" />
   <point x="381" y="517" type="offcurve" name="14" />
   <point x="429" y="484" type="offcurve" name="14" />
   <point x="469" y="458" type="curve" smooth="no" name="13" />
   <point x="527" y="550" type="line" smooth="no" name="13" />
   <point x="416" y="634" type="offcurve" name="14" />
   <point x="373" y="645" type="offcurve" name="14" />
   <point x="311" y="645" type="curve" smooth="yes" name="15" />
   <point x="147" y="645" type="offcurve" name="14" />
   <point x="92" y="556" type="offcurve" name="14" />
   <point x="92" y="427" type="curve" smooth="yes" name="15" />
   <point x="92" y="427" type="offcurve" name="14" />
   <point x="92" y="426" type="offcurve" name="14" />
   <point x="92" y="426" type="curve" smooth="yes" name="15" />
   <point x="93" y="381" type="line" smooth="no" name="13" />
   <point x="29" y="381" type="line" smooth="no" name="13" />
   <point x="29" y="271" type="line" smooth="no" name="13" />
   <point x="93" y="271" type="line" smooth="no" name="13" />
   <point x="93" y="122" type="line" smooth="no" name="13" />
   <point x="31" y="122" type="line" smooth="no" name="13" />
   <point x="31" y="0" type="line" smooth="no" name="13" />
   <point x="459" y="0" type="line" smooth="no" name="13" />
   <point x="459" y="122" type="line" smooth="no" name="13" />
   <point x="246" y="122" type="line" smooth="no" name="13" />
   <point x="246" y="271" type="line" smooth="no" name="13" />
  </contour>
 </outline>
</glyph>
<glyph name="currency" format="1">
 <advance width="476" />
 <unicode hex="00a4" />
 <outline>
  <contour>
   <point x="412" y="82" type="line" smooth="yes" name="15" />
   <point x="414" y="80" type="offcurve" name="14" />
   <point x="416" y="79" type="offcurve" name="14" />
   <point x="419" y="79" type="curve" smooth="yes" name="15" />
   <point x="437" y="79" type="offcurve" name="14" />
   <point x="466" y="112" type="offcurve" name="14" />
   <point x="466" y="127" type="curve" smooth="yes" name="15" />
   <point x="466" y="129" type="offcurve" name="14" />
   <point x="465" y="131" type="offcurve" name="14" />
   <point x="464" y="132" type="curve" smooth="yes" name="15" />
   <point x="394" y="201" type="line" smooth="no" name="13" />
   <point x="416" y="233" type="offcurve" name="14" />
   <point x="426" y="265" type="offcurve" name="14" />
   <point x="426" y="302" type="curve" smooth="yes" name="15" />
   <point x="426" y="341" type="offcurve" name="14" />
   <point x="415" y="375" type="offcurve" name="14" />
   <point x="396" y="402" type="curve" smooth="no" name="13" />
   <point x="464" y="469" type="line" smooth="yes" name="15" />
   <point x="465" y="470" type="offcurve" name="14" />
   <point x="466" y="472" type="offcurve" name="14" />
   <point x="466" y="474" type="curve" smooth="yes" name="15" />
   <point x="466" y="489" type="offcurve" name="14" />
   <point x="437" y="522" type="offcurve" name="14" />
   <point x="419" y="522" type="curve" smooth="yes" name="15" />
   <point x="416" y="522" type="offcurve" name="14" />
   <point x="414" y="521" type="offcurve" name="14" />
   <point x="412" y="519" type="curve" smooth="yes" name="15" />
   <point x="343" y="451" type="line" smooth="no" name="13" />
   <point x="315" y="466" type="offcurve" name="14" />
   <point x="283" y="474" type="offcurve" name="14" />
   <point x="246" y="474" type="curve" smooth="yes" name="15" />
   <point x="212" y="474" type="offcurve" name="14" />
   <point x="180" y="466" type="offcurve" name="14" />
   <point x="153" y="451" type="curve" smooth="no" name="13" />
   <point x="84" y="519" type="line" smooth="yes" name="15" />
   <point x="82" y="521" type="offcurve" name="14" />
   <point x="79" y="522" type="offcurve" name="14" />
   <point x="77" y="522" type="curve" smooth="yes" name="15" />
   <point x="59" y="522" type="offcurve" name="14" />
   <point x="30" y="489" type="offcurve" name="14" />
   <point x="30" y="474" type="curve" smooth="yes" name="15" />
   <point x="30" y="472" type="offcurve" name="14" />
   <point x="31" y="470" type="offcurve" name="14" />
   <point x="32" y="469" type="curve" smooth="yes" name="15" />
   <point x="98" y="404" type="line" smooth="no" name="13" />
   <point x="77" y="377" type="offcurve" name="14" />
   <point x="65" y="342" type="offcurve" name="14" />
   <point x="65" y="302" type="curve" smooth="yes" name="15" />
   <point x="65" y="263" type="offcurve" name="14" />
   <point x="77" y="229" type="offcurve" name="14" />
   <point x="99" y="198" type="curve" smooth="no" name="13" />
   <point x="32" y="132" type="line" smooth="yes" name="15" />
   <point x="31" y="131" type="offcurve" name="14" />
   <point x="30" y="129" type="offcurve" name="14" />
   <point x="30" y="127" type="curve" smooth="yes" name="15" />
   <point x="30" y="112" type="offcurve" name="14" />
   <point x="59" y="79" type="offcurve" name="14" />
   <point x="77" y="79" type="curve" smooth="yes" name="15" />
   <point x="79" y="79" type="offcurve" name="14" />
   <point x="82" y="80" type="offcurve" name="14" />
   <point x="84" y="82" type="curve" smooth="yes" name="15" />
   <point x="155" y="152" type="line" smooth="no" name="13" />
   <point x="180" y="138" type="offcurve" name="14" />
   <point x="212" y="131" type="offcurve" name="14" />
   <point x="246" y="131" type="curve" smooth="yes" name="15" />
   <point x="281" y="131" type="offcurve" name="14" />
   <point x="313" y="139" type="offcurve" name="14" />
   <point x="339" y="153" type="curve" smooth="no" name="13" />
  </contour>
  <contour>
   <point x="166" y="302" type="curve" smooth="yes" name="15" />
   <point x="166" y="302" type="offcurve" name="14" />
   <point x="166" y="303" type="offcurve" name="14" />
   <point x="166" y="304" type="curve" smooth="yes" name="15" />
   <point x="167" y="346" type="offcurve" name="14" />
   <point x="195" y="388" type="offcurve" name="14" />
   <point x="247" y="388" type="curve" smooth="yes" name="15" />
   <point x="298" y="388" type="offcurve" name="14" />
   <point x="324" y="347" type="offcurve" name="14" />
   <point x="325" y="305" type="curve" smooth="yes" name="15" />
   <point x="325" y="262" type="offcurve" name="14" />
   <point x="300" y="218" type="offcurve" name="14" />
   <point x="247" y="218" type="curve" smooth="yes" name="15" />
   <point x="193" y="218" type="offcurve" name="14" />
   <point x="166" y="259" type="offcurve" name="14" />
  </contour>
 </outline>
</glyph>
<glyph name="yen" format="1">
 <advance width="592" />
 <unicode hex="00a5" />
 <outline>
  <contour>
   <point x="2" y="633" type="line" smooth="no" name="13" />
   <point x="151" y="372" type="line" smooth="no" name="13" />
   <point x="67" y="372" type="line" smooth="no" name="13" />
   <point x="67" y="254" type="line" smooth="no" name="13" />
   <point x="219" y="254" type="line" smooth="no" name="13" />
   <point x="219" y="252" type="offcurve" name="14" />
   <point x="219" y="251" type="offcurve" name="14" />
   <point x="220" y="251" type="curve" smooth="no" name="13" />
   <point x="220" y="202" type="line" smooth="no" name="13" />
   <point x="67" y="202" type="line" smooth="no" name="13" />
   <point x="67" y="82" type="line" smooth="no" name="13" />
   <point x="220" y="82" type="line" smooth="no" name="13" />
   <point x="220" y="0" type="line" smooth="no" name="13" />
   <point x="375" y="0" type="line" smooth="no" name="13" />
   <point x="375" y="82" type="line" smooth="no" name="13" />
   <point x="530" y="82" type="line" smooth="no" name="13" />
   <point x="530" y="202" type="line" smooth="no" name="13" />
   <point x="375" y="202" type="line" smooth="no" name="13" />
   <point x="375" y="251" type="line" smooth="no" name="13" />
   <point x="377" y="254" type="line" smooth="no" name="13" />
   <point x="530" y="254" type="line" smooth="no" name="13" />
   <point x="530" y="372" type="line" smooth="no" name="13" />
   <point x="443" y="372" type="line" smooth="no" name="13" />
   <point x="590" y="633" type="line" smooth="no" name="13" />
   <point x="424" y="633" type="line" smooth="no" name="13" />
   <point x="303" y="372" type="line" smooth="no" name="13" />
   <point x="294" y="372" type="line" smooth="no" name="13" />
   <point x="251" y="459" type="offcurve" name="14" />
   <point x="209" y="544" type="offcurve" name="14" />
   <point x="168" y="633" type="curve" smooth="no" name="13" />
  </contour>
 </outline>
</glyph>
<glyph name="section" format="1">
 <advance width="469" />
 <unicode hex="00a7" />
 <outline>
  <contour>
   <point x="50" y="-79" type="line" smooth="no" name="13" />
   <point x="85" y="-110" type="offcurve" name="14" />
   <point x="150" y="-140" type="offcurve" name="14" />
   <point x="232" y="-140" type="curve" smooth="yes" name="15" />
   <point x="351" y="-140" type="offcurve" name="14" />
   <point x="421" y="-62" type="offcurve" name="14" />
   <point x="421" y="15" type="curve" smooth="yes" name="15" />
   <point x="421" y="85" type="offcurve" name="14" />
   <point x="403" y="103" type="offcurve" name="14" />
   <point x="380" y="129" type="curve" smooth="no" name="13" />
   <point x="403" y="144" type="offcurve" name="14" />
   <point x="433" y="178" type="offcurve" name="14" />
   <point x="433" y="231" type="curve" smooth="yes" name="15" />
   <point x="433" y="313" type="offcurve" name="14" />
   <point x="389" y="366" type="offcurve" name="14" />
   <point x="302" y="398" type="curve" smooth="yes" name="15" />
   <point x="235" y="422" type="offcurve" name="14" />
   <point x="186" y="453" type="offcurve" name="14" />
   <point x="186" y="497" type="curve" smooth="yes" name="15" />
   <point x="186" y="528" type="offcurve" name="14" />
   <point x="207" y="544" type="offcurve" name="14" />
   <point x="236" y="544" type="curve" smooth="yes" name="15" />
   <point x="283" y="544" type="offcurve" name="14" />
   <point x="330" y="526" type="offcurve" name="14" />
   <point x="352" y="509" type="curve" smooth="no" name="13" />
   <point x="400" y="588" type="line" smooth="no" name="13" />
   <point x="368" y="613" type="offcurve" name="14" />
   <point x="314" y="645" type="offcurve" name="14" />
   <point x="237" y="645" type="curve" smooth="yes" name="15" />
   <point x="134" y="645" type="offcurve" name="14" />
   <point x="52" y="587" type="offcurve" name="14" />
   <point x="52" y="498" type="curve" smooth="yes" name="15" />
   <point x="52" y="441" type="offcurve" name="14" />
   <point x="77" y="403" type="offcurve" name="14" />
   <point x="115" y="380" type="curve" smooth="no" name="13" />
   <point x="57" y="355" type="offcurve" name="14" />
   <point x="37" y="289" type="offcurve" name="14" />
   <point x="37" y="255" type="curve" smooth="yes" name="15" />
   <point x="37" y="154" type="offcurve" name="14" />
   <point x="105" y="132" type="offcurve" name="14" />
   <point x="169" y="108" type="curve" smooth="no" name="13" />
   <point x="175" y="105" type="offcurve" name="14" />
   <point x="181" y="103" type="offcurve" name="14" />
   <point x="186" y="101" type="curve" smooth="no" name="13" />
   <point x="197" y="98" type="offcurve" name="14" />
   <point x="207" y="94" type="offcurve" name="14" />
   <point x="218" y="90" type="curve" smooth="yes" name="15" />
   <point x="250" y="76" type="offcurve" name="14" />
   <point x="286" y="62" type="offcurve" name="14" />
   <point x="286" y="18" type="curve" smooth="yes" name="15" />
   <point x="286" y="-11" type="offcurve" name="14" />
   <point x="264" y="-40" type="offcurve" name="14" />
   <point x="218" y="-40" type="curve" smooth="yes" name="15" />
   <point x="175" y="-40" type="offcurve" name="14" />
   <point x="128" y="-22" type="offcurve" name="14" />
   <point x="104" y="-4" type="curve" smooth="no" name="13" />
  </contour>
  <contour>
   <point x="301" y="177" type="curve" smooth="no" name="13" />
   <point x="261" y="191" type="line" smooth="no" name="13" />
   <point x="187" y="205" type="offcurve" name="14" />
   <point x="169" y="234" type="offcurve" name="14" />
   <point x="169" y="267" type="curve" smooth="yes" name="15" />
   <point x="169" y="290" type="offcurve" name="14" />
   <point x="179" y="313" type="offcurve" name="14" />
   <point x="192" y="332" type="curve" smooth="no" name="13" />
   <point x="198" y="329" type="offcurve" name="14" />
   <point x="206" y="326" type="offcurve" name="14" />
   <point x="214" y="323" type="curve" smooth="yes" name="15" />
   <point x="253" y="311" type="offcurve" name="14" />
   <point x="307" y="292" type="offcurve" name="14" />
   <point x="307" y="218" type="curve" smooth="yes" name="15" />
   <point x="307" y="213" type="offcurve" name="14" />
   <point x="307" y="189" type="offcurve" name="14" />
  </contour>
 </outline>
</glyph>
<glyph name="dieresis" format="1">
 <advance width="393" />
 <unicode hex="00a8" />
 <outline>
  <contour>
   <point x="21" y="568" type="curve" smooth="yes" name="15" />
   <point x="21" y="521" type="offcurve" name="14" />
   <point x="53" y="491" type="offcurve" name="14" />
   <point x="99" y="491" type="curve" smooth="yes" name="15" />
   <point x="135" y="491" type="offcurve" name="14" />
   <point x="172" y="521" type="offcurve" name="14" />
   <point x="172" y="568" type="curve" smooth="yes" name="15" />
   <point x="172" y="608" type="offcurve" name="14" />
   <point x="135" y="645" type="offcurve" name="14" />
   <point x="99" y="645" type="curve" smooth="yes" name="15" />
   <point x="53" y="645" type="offcurve" name="14" />
   <point x="21" y="608" type="offcurve" name="14" />
  </contour>
  <contour>
   <point x="218" y="568" type="curve" smooth="yes" name="15" />
   <point x="218" y="521" type="offcurve" name="14" />
   <point x="252" y="491" type="offcurve" name="14" />
   <point x="293" y="491" type="curve" smooth="yes" name="15" />
   <point x="337" y="491" type="offcurve" name="14" />
   <point x="371" y="521" type="offcurve" name="14" />
   <point x="371" y="568" type="curve" smooth="yes" name="15" />
   <point x="371" y="608" type="offcurve" name="14" />
   <point x="337" y="645" type="offcurve" name="14" />
   <point x="293" y="645" type="curve" smooth="yes" name="15" />
   <point x="252" y="645" type="offcurve" name="14" />
   <point x="218" y="608" type="offcurve" name="14" />
  </contour>
 </outline>
</glyph>
<glyph name="copyright" format="1">
 <advance width="672" />
 <unicode hex="00a9" />
 <outline>
  <contour>
   <point x="468" y="459" type="line" smooth="no" name="13" />
   <point x="430" y="483" type="offcurve" name="14" />
   <point x="400" y="502" type="offcurve" name="14" />
   <point x="345" y="502" type="curve" smooth="yes" name="15" />
   <point x="241" y="502" type="offcurve" name="14" />
   <point x="157" y="418" type="offcurve" name="14" />
   <point x="157" y="307" type="curve" smooth="yes" name="15" />
   <point x="157" y="173" type="offcurve" name="14" />
   <point x="251" y="122" type="offcurve" name="14" />
   <point x="352" y="122" type="curve" smooth="yes" name="15" />
   <point x="379" y="122" type="offcurve" name="14" />
   <point x="436" y="132" type="offcurve" name="14" />
   <point x="474" y="173" type="curve" smooth="no" name="13" />
   <point x="445" y="224" type="line" smooth="no" name="13" />
   <point x="414" y="200" type="offcurve" name="14" />
   <point x="396" y="191" type="offcurve" name="14" />
   <point x="360" y="191" type="curve" smooth="yes" name="15" />
   <point x="329" y="191" type="offcurve" name="14" />
   <point x="264" y="212" type="offcurve" name="14" />
   <point x="264" y="308" type="curve" smooth="yes" name="15" />
   <point x="264" y="396" type="offcurve" name="14" />
   <point x="312" y="430" type="offcurve" name="14" />
   <point x="351" y="430" type="curve" smooth="yes" name="15" />
   <point x="396" y="430" type="offcurve" name="14" />
   <point x="414" y="416" type="offcurve" name="14" />
   <point x="439" y="402" type="curve" smooth="no" name="13" />
  </contour>
  <contour>
   <point x="35" y="315" type="curve" smooth="yes" name="15" />
   <point x="35" y="150" type="offcurve" name="14" />
   <point x="171" y="14" type="offcurve" name="14" />
   <point x="336" y="14" type="curve" smooth="yes" name="15" />
   <point x="502" y="14" type="offcurve" name="14" />
   <point x="638" y="150" type="offcurve" name="14" />
   <point x="638" y="315" type="curve" smooth="yes" name="15" />
   <point x="638" y="481" type="offcurve" name="14" />
   <point x="502" y="617" type="offcurve" name="14" />
   <point x="336" y="617" type="curve" smooth="yes" name="15" />
   <point x="171" y="617" type="offcurve" name="14" />
   <point x="35" y="481" type="offcurve" name="14" />
  </contour>
  <contour>
   <point x="117" y="312" type="curve" smooth="yes" name="15" />
   <point x="117" y="437" type="offcurve" name="14" />
   <point x="220" y="540" type="offcurve" name="14" />
   <point x="346" y="540" type="curve" smooth="yes" name="15" />
   <point x="466" y="540" type="offcurve" name="14" />
   <point x="570" y="437" type="offcurve" name="14" />
   <point x="570" y="312" type="curve" smooth="yes" name="15" />
   <point x="570" y="191" type="offcurve" name="14" />
   <point x="460" y="90" type="offcurve" name="14" />
   <point x="340" y="90" type="curve" smooth="yes" name="15" />
   <point x="214" y="90" type="offcurve" name="14" />
   <point x="117" y="191" type="offcurve" name="14" />
  </contour>
 </outline>
</glyph>
<glyph name="ordfeminine" format="1">
 <advance width="262" />
 <unicode hex="00aa" />
 <outline>
  <contour>
   <point x="239" y="406" type="line" smooth="no" name="13" />
   <point x="239" y="544" type="line" smooth="yes" name="15" />
   <point x="239" y="611" type="offcurve" name="14" />
   <point x="204" y="645" type="offcurve" name="14" />
   <point x="146" y="645" type="curve" smooth="yes" name="15" />
   <point x="107" y="645" type="offcurve" name="14" />
   <point x="73" y="631" type="offcurve" name="14" />
   <point x="48" y="611" type="curve" smooth="no" name="13" />
   <point x="62" y="568" type="line" smooth="no" name="13" />
   <point x="87" y="581" type="offcurve" name="14" />
   <point x="107" y="586" type="offcurve" name="14" />
   <point x="135" y="586" type="curve" smooth="yes" name="15" />
   <point x="158" y="586" type="offcurve" name="14" />
   <point x="169" y="578" type="offcurve" name="14" />
   <point x="169" y="562" type="curve" smooth="yes" name="15" />
   <point x="169" y="560" type="line" smooth="no" name="13" />
   <point x="142" y="560" type="line" smooth="yes" name="15" />
   <point x="59" y="560" type="offcurve" name="14" />
   <point x="20" y="513" type="offcurve" name="14" />
   <point x="20" y="473" type="curve" smooth="yes" name="15" />
   <point x="20" y="417" type="offcurve" name="14" />
   <point x="70" y="400" type="offcurve" name="14" />
   <point x="90" y="400" type="curve" smooth="yes" name="15" />
   <point x="133" y="400" type="offcurve" name="14" />
   <point x="156" y="412" type="offcurve" name="14" />
   <point x="174" y="436" type="curve" smooth="no" name="13" />
   <point x="178" y="406" type="line" smooth="no" name="13" />
  </contour>
  <contour>
   <point x="168" y="518" type="line" smooth="no" name="13" />
   <point x="168" y="491" type="line" smooth="yes" name="15" />
   <point x="168" y="477" type="offcurve" name="14" />
   <point x="162" y="449" type="offcurve" name="14" />
   <point x="121" y="449" type="curve" smooth="yes" name="15" />
   <point x="108" y="449" type="offcurve" name="14" />
   <point x="87" y="454" type="offcurve" name="14" />
   <point x="87" y="476" type="curve" smooth="yes" name="15" />
   <point x="87" y="507" type="offcurve" name="14" />
   <point x="108" y="518" type="offcurve" name="14" />
   <point x="149" y="518" type="curve" smooth="yes" name="15" />
  </contour>
 </outline>
</glyph>
<glyph name="guillemotleft" format="1">
 <advance width="718" />
 <unicode hex="00ab" />
 <outline>
  <contour>
   <point x="357" y="-10" type="curve" smooth="no" name="13" />
   <point x="357" y="135" type="line" smooth="no" name="13" />
   <point x="299" y="154" type="offcurve" name="14" />
   <point x="252" y="179" type="offcurve" name="14" />
   <point x="221" y="238" type="curve" smooth="no" name="13" />
   <point x="252" y="297" type="offcurve" name="14" />
   <point x="299" y="322" type="offcurve" name="14" />
   <point x="357" y="341" type="curve" smooth="no" name="13" />
   <point x="357" y="486" type="line" smooth="no" name="13" />
   <point x="353" y="486" type="offcurve" name="14" />
   <point x="349" y="486" type="offcurve" name="14" />
   <point x="344" y="486" type="curve" smooth="yes" name="15" />
   <point x="227" y="486" type="offcurve" name="14" />
   <point x="103" y="380" type="offcurve" name="14" />
   <point x="50" y="238" type="curve" smooth="no" name="13" />
   <point x="103" y="96" type="offcurve" name="14" />
   <point x="227" y="-10" type="offcurve" name="14" />
   <point x="344" y="-10" type="curve" smooth="yes" name="15" />
   <point x="349" y="-10" type="offcurve" name="14" />
   <point x="353" y="-10" type="offcurve" name="14" />
  </contour>
  <contour>
   <point x="678" y="-10" type="curve" smooth="no" name="13" />
   <point x="678" y="135" type="line" smooth="no" name="13" />
   <point x="620" y="154" type="offcurve" name="14" />
   <point x="573" y="179" type="offcurve" name="14" />
   <point x="542" y="238" type="curve" smooth="no" name="13" />
   <point x="573" y="297" type="offcurve" name="14" />
   <point x="620" y="322" type="offcurve" name="14" />
   <point x="678" y="341" type="curve" smooth="no" name="13" />
   <point x="678" y="486" type="line" smooth="no" name="13" />
   <point x="674" y="486" type="offcurve" name="14" />
   <point x="670" y="486" type="offcurve" name="14" />
   <point x="665" y="486" type="curve" smooth="yes" name="15" />
   <point x="548" y="486" type="offcurve" name="14" />
   <point x="424" y="380" type="offcurve" name="14" />
   <point x="371" y="238" type="curve" smooth="no" name="13" />
   <point x="424" y="96" type="offcurve" name="14" />
   <point x="548" y="-10" type="offcurve" name="14" />
   <point x="665" y="-10" type="curve" smooth="yes" name="15" />
   <point x="670" y="-10" type="offcurve" name="14" />
   <point x="674" y="-10" type="offcurve" name="14" />
  </contour>
 </outline>
</glyph>
<glyph name="logicalnot" format="1">
 <advance width="482" />
 <unicode hex="00ac" />
 <outline>
  <contour>
   <point x="303" y="0" type="line" smooth="no" name="13" />
   <point x="454" y="0" type="line" smooth="no" name="13" />
   <point x="454" y="253" type="line" smooth="no" name="13" />
   <point x="29" y="253" type="line" smooth="no" name="13" />
   <point x="29" y="135" type="line" smooth="no" name="13" />
   <point x="303" y="135" type="line" smooth="no" name="13" />
  </contour>
 </outline>
</glyph>
<glyph name="registered" format="1">
 <advance width="383" />
 <unicode hex="00ae" />
 <outline>
  <contour>
   <point x="191" y="470" type="line" smooth="no" name="13" />
   <point x="219" y="410" type="line" smooth="no" name="13" />
   <point x="278" y="410" type="line" smooth="no" name="13" />
   <point x="237" y="477" type="line" smooth="no" name="13" />
   <point x="252" y="487" type="offcurve" name="14" />
   <point x="265" y="496" type="offcurve" name="14" />
   <point x="265" y="520" type="curve" smooth="yes" name="15" />
   <point x="265" y="551" type="offcurve" name="14" />
   <point x="240" y="567" type="offcurve" name="14" />
   <point x="213" y="567" type="curve" smooth="yes" name="15" />
   <point x="134" y="567" type="line" smooth="no" name="13" />
   <point x="134" y="410" type="line" smooth="no" name="13" />
   <point x="185" y="410" type="line" smooth="no" name="13" />
   <point x="185" y="470" type="line" smooth="no" name="13" />
  </contour>
  <contour>
   <point x="185" y="524" type="line" smooth="no" name="13" />
   <point x="191" y="524" type="line" smooth="yes" name="15" />
   <point x="207" y="524" type="offcurve" name="14" />
   <point x="217" y="524" type="offcurve" name="14" />
   <point x="217" y="512" type="curve" smooth="yes" name="15" />
   <point x="217" y="502" type="offcurve" name="14" />
   <point x="210" y="501" type="offcurve" name="14" />
   <point x="196" y="501" type="curve" smooth="yes" name="15" />
   <point x="193" y="501" type="offcurve" name="14" />
   <point x="191" y="501" type="offcurve" name="14" />
   <point x="188" y="501" type="curve" smooth="yes" name="15" />
   <point x="185" y="501" type="line" smooth="no" name="13" />
  </contour>
  <contour>
   <point x="194" y="322" type="curve" smooth="yes" name="15" />
   <point x="283" y="322" type="offcurve" name="14" />
   <point x="352" y="395" type="offcurve" name="14" />
   <point x="352" y="484" type="curve" smooth="yes" name="15" />
   <point x="352" y="573" type="offcurve" name="14" />
   <point x="283" y="647" type="offcurve" name="14" />
   <point x="194" y="647" type="curve" smooth="yes" name="15" />
   <point x="105" y="647" type="offcurve" name="14" />
   <point x="32" y="573" type="offcurve" name="14" />
   <point x="32" y="484" type="curve" smooth="yes" name="15" />
   <point x="32" y="395" type="offcurve" name="14" />
   <point x="105" y="322" type="offcurve" name="14" />
  </contour>
  <contour>
   <point x="194" y="608" type="curve" smooth="yes" name="15" />
   <point x="259" y="608" type="offcurve" name="14" />
   <point x="312" y="559" type="offcurve" name="14" />
   <point x="312" y="484" type="curve" smooth="yes" name="15" />
   <point x="312" y="413" type="offcurve" name="14" />
   <point x="273" y="361" type="offcurve" name="14" />
   <point x="194" y="361" type="curve" smooth="yes" name="15" />
   <point x="129" y="361" type="offcurve" name="14" />
   <point x="75" y="402" type="offcurve" name="14" />
   <point x="75" y="484" type="curve" smooth="yes" name="15" />
   <point x="75" y="567" type="offcurve" name="14" />
   <point x="129" y="608" type="offcurve" name="14" />
  </contour>
 </outline>
</glyph>
<glyph name="macron" format="1">
 <advance width="267" />
 <unicode hex="00af" />
 <outline>
  <contour>
   <point x="265" y="525" type="line" smooth="no" name="13" />
   <point x="265" y="633" type="line" smooth="no" name="13" />
   <point x="3" y="633" type="line" smooth="no" name="13" />
   <point x="3" y="525" type="line" smooth="no" name="13" />
  </contour>
 </outline>
</glyph>
<glyph name="degree" format="1">
 <advance width="264" />
 <unicode hex="00b0" />
 <outline>
  <contour>
   <point x="12" y="543" type="curve" smooth="no" name="13" />
   <point x="16" y="472" type="offcurve" name="14" />
   <point x="67" y="421" type="offcurve" name="14" />
   <point x="133" y="421" type="curve" smooth="yes" name="15" />
   <point x="197" y="421" type="offcurve" name="14" />
   <point x="253" y="477" type="offcurve" name="14" />
   <point x="253" y="543" type="curve" smooth="yes" name="15" />
   <point x="253" y="607" type="offcurve" name="14" />
   <point x="197" y="663" type="offcurve" name="14" />
   <point x="133" y="663" type="curve" smooth="yes" name="15" />
   <point x="67" y="663" type="offcurve" name="14" />
   <point x="18" y="614" type="offcurve" name="14" />
  </contour>
  <contour>
   <point x="90" y="544" type="curve" smooth="no" name="13" />
   <point x="91" y="569" type="offcurve" name="14" />
   <point x="110" y="587" type="offcurve" name="14" />
   <point x="133" y="587" type="curve" smooth="yes" name="15" />
   <point x="156" y="587" type="offcurve" name="14" />
   <point x="176" y="567" type="offcurve" name="14" />
   <point x="176" y="544" type="curve" smooth="yes" name="15" />
   <point x="176" y="521" type="offcurve" name="14" />
   <point x="156" y="501" type="offcurve" name="14" />
   <point x="133" y="501" type="curve" smooth="yes" name="15" />
   <point x="109" y="501" type="offcurve" name="14" />
   <point x="92" y="518" type="offcurve" name="14" />
  </contour>
 </outline>
</glyph>
<glyph name="plusminus" format="1">
 <advance width="520" />
 <unicode hex="00b1" />
 <outline>
  <contour>
   <point x="193" y="226" type="line" smooth="no" name="13" />
   <point x="193" y="125" type="line" smooth="no" name="13" />
   <point x="331" y="125" type="line" smooth="no" name="13" />
   <point x="331" y="226" type="line" smooth="no" name="13" />
   <point x="492" y="226" type="line" smooth="no" name="13" />
   <point x="492" y="343" type="line" smooth="no" name="13" />
   <point x="331" y="343" type="line" smooth="no" name="13" />
   <point x="331" y="454" type="line" smooth="no" name="13" />
   <point x="193" y="454" type="line" smooth="no" name="13" />
   <point x="193" y="343" type="line" smooth="no" name="13" />
   <point x="29" y="343" type="line" smooth="no" name="13" />
   <point x="29" y="226" type="line" smooth="no" name="13" />
  </contour>
  <contour>
   <point x="492" y="0" type="line" smooth="no" name="13" />
   <point x="492" y="113" type="line" smooth="no" name="13" />
   <point x="29" y="113" type="line" smooth="no" name="13" />
   <point x="29" y="0" type="line" smooth="no" name="13" />
  </contour>
 </outline>
</glyph>
<glyph name="twosuperior" format="1">
 <advance width="392" />
 <unicode hex="00b2" />
 <outline>
  <contour>
   <point x="49" y="316" type="line" smooth="no" name="13" />
   <point x="321" y="316" type="line" smooth="no" name="13" />
   <point x="321" y="401" type="line" smooth="no" name="13" />
   <point x="228" y="401" type="line" smooth="no" name="13" />
   <point x="297" y="429" type="offcurve" name="14" />
   <point x="327" y="484" type="offcurve" name="14" />
   <point x="328" y="527" type="curve" smooth="yes" name="15" />
   <point x="328" y="527" type="offcurve" name="14" />
   <point x="328" y="528" type="offcurve" name="14" />
   <point x="328" y="528" type="curve" smooth="yes" name="15" />
   <point x="328" y="561" type="offcurve" name="14" />
   <point x="309" y="645" type="offcurve" name="14" />
   <point x="197" y="645" type="curve" smooth="yes" name="15" />
   <point x="138" y="645" type="offcurve" name="14" />
   <point x="92" y="630" type="offcurve" name="14" />
   <point x="44" y="580" type="curve" smooth="no" name="13" />
   <point x="96" y="526" type="line" smooth="no" name="13" />
   <point x="117" y="542" type="offcurve" name="14" />
   <point x="132" y="556" type="offcurve" name="14" />
   <point x="169" y="556" type="curve" smooth="yes" name="15" />
   <point x="191" y="556" type="offcurve" name="14" />
   <point x="216" y="544" type="offcurve" name="14" />
   <point x="216" y="521" type="curve" smooth="yes" name="15" />
   <point x="216" y="459" type="offcurve" name="14" />
   <point x="76" y="410" type="offcurve" name="14" />
   <point x="49" y="400" type="curve" smooth="no" name="13" />
  </contour>
 </outline>
</glyph>
<glyph name="acute" format="1">
 <advance width="247" />
 <unicode hex="00b4" />
 <outline>
  <contour>
   <point x="236" y="655" type="line" smooth="no" name="13" />
   <point x="91" y="655" type="line" smooth="no" name="13" />
   <point x="12" y="495" type="line" smooth="no" name="13" />
   <point x="117" y="495" type="line" smooth="no" name="13" />
  </contour>
 </outline>
</glyph>
<glyph name="mu" format="1">
 <advance width="614" />
 <unicode hex="00b5" />
 <outline>
  <contour>
   <point x="65" y="-182" type="line" smooth="no" name="13" />
   <point x="210" y="-182" type="line" smooth="no" name="13" />
   <point x="210" y="26" type="line" smooth="no" name="13" />
   <point x="224" y="4" type="offcurve" name="14" />
   <point x="248" y="-12" type="offcurve" name="14" />
   <point x="282" y="-12" type="curve" smooth="yes" name="15" />
   <point x="324" y="-12" type="offcurve" name="14" />
   <point x="350" y="3" type="offcurve" name="14" />
   <point x="382" y="27" type="curve" smooth="no" name="13" />
   <point x="394" y="9" type="offcurve" name="14" />
   <point x="405" y="-13" type="offcurve" name="14" />
   <point x="459" y="-13" type="curve" smooth="yes" name="15" />
   <point x="531" y="-13" type="offcurve" name="14" />
   <point x="586" y="26" type="offcurve" name="14" />
   <point x="604" y="44" type="curve" smooth="no" name="13" />
   <point x="556" y="112" type="line" smooth="no" name="13" />
   <point x="542" y="103" type="offcurve" name="14" />
   <point x="531" y="100" type="offcurve" name="14" />
   <point x="523" y="100" type="curve" smooth="yes" name="15" />
   <point x="518" y="100" type="offcurve" name="14" />
   <point x="510" y="103" type="offcurve" name="14" />
   <point x="510" y="123" type="curve" smooth="yes" name="15" />
   <point x="510" y="454" type="line" smooth="no" name="13" />
   <point x="363" y="454" type="line" smooth="no" name="13" />
   <point x="363" y="113" type="line" smooth="no" name="13" />
   <point x="335" y="103" type="offcurve" name="14" />
   <point x="310" y="96" type="offcurve" name="14" />
   <point x="286" y="96" type="curve" smooth="yes" name="15" />
   <point x="235" y="96" type="offcurve" name="14" />
   <point x="210" y="126" type="offcurve" name="14" />
   <point x="210" y="241" type="curve" smooth="yes" name="15" />
   <point x="210" y="454" type="line" smooth="no" name="13" />
   <point x="65" y="454" type="line" smooth="no" name="13" />
  </contour>
 </outline>
</glyph>
<glyph name="paragraph" format="1">
 <advance width="574" />
 <unicode hex="00b6" />
 <outline>
  <contour>
   <point x="498" y="0" type="line" smooth="no" name="13" />
   <point x="498" y="633" type="line" smooth="no" name="13" />
   <point x="385" y="633" type="line" smooth="no" name="13" />
   <point x="385" y="0" type="line" smooth="no" name="13" />
  </contour>
  <contour>
   <point x="357" y="633" type="line" smooth="no" name="13" />
   <point x="190" y="633" type="line" smooth="yes" name="15" />
   <point x="92" y="633" type="offcurve" name="14" />
   <point x="33" y="584" type="offcurve" name="14" />
   <point x="33" y="491" type="curve" smooth="yes" name="15" />
   <point x="33" y="415" type="offcurve" name="14" />
   <point x="63" y="356" type="offcurve" name="14" />
   <point x="201" y="356" type="curve" smooth="yes" name="15" />
   <point x="244" y="356" type="line" smooth="no" name="13" />
   <point x="244" y="0" type="line" smooth="no" name="13" />
   <point x="357" y="0" type="line" smooth="no" name="13" />
  </contour>
 </outline>
</glyph>
<glyph name="periodcentered" format="1">
 <advance width="204" />
 <unicode hex="00b7" />
 <outline>
  <contour>
   <point x="26" y="376" type="curve" smooth="yes" name="15" />
   <point x="26" y="336" type="offcurve" name="14" />
   <point x="60" y="303" type="offcurve" name="14" />
   <point x="104" y="303" type="curve" smooth="yes" name="15" />
   <point x="144" y="303" type="offcurve" name="14" />
   <point x="178" y="336" type="offcurve" name="14" />
   <point x="178" y="376" type="curve" smooth="yes" name="15" />
   <point x="178" y="420" type="offcurve" name="14" />
   <point x="144" y="455" type="offcurve" name="14" />
   <point x="104" y="455" type="curve" smooth="yes" name="15" />
   <point x="60" y="455" type="offcurve" name="14" />
   <point x="26" y="420" type="offcurve" name="14" />
  </contour>
 </outline>
</glyph>
<glyph name="cedilla" format="1">
 <advance width="232" />
 <unicode hex="00b8" />
 <outline>
  <contour>
   <point x="62" y="10" type="line" smooth="no" name="13" />
   <point x="39" y="-55" type="line" smooth="no" name="13" />
   <point x="53" y="-53" type="offcurve" name="14" />
   <point x="60" y="-53" type="offcurve" name="14" />
   <point x="70" y="-53" type="curve" smooth="yes" name="15" />
   <point x="106" y="-53" type="offcurve" name="14" />
   <point x="116" y="-61" type="offcurve" name="14" />
   <point x="116" y="-80" type="curve" smooth="yes" name="15" />
   <point x="116" y="-96" type="offcurve" name="14" />
   <point x="108" y="-103" type="offcurve" name="14" />
   <point x="79" y="-103" type="curve" smooth="yes" name="15" />
   <point x="68" y="-103" type="offcurve" name="14" />
   <point x="37" y="-98" type="offcurve" name="14" />
   <point x="27" y="-95" type="curve" smooth="no" name="13" />
   <point x="12" y="-152" type="line" smooth="no" name="13" />
   <point x="31" y="-159" type="offcurve" name="14" />
   <point x="57" y="-168" type="offcurve" name="14" />
   <point x="110" y="-168" type="curve" smooth="yes" name="15" />
   <point x="179" y="-168" type="offcurve" name="14" />
   <point x="221" y="-139" type="offcurve" name="14" />
   <point x="221" y="-86" type="curve" smooth="yes" name="15" />
   <point x="221" y="-45" type="offcurve" name="14" />
   <point x="191" y="-26" type="offcurve" name="14" />
   <point x="165" y="-23" type="curve" smooth="yes" name="15" />
   <point x="157" y="-22" type="line" smooth="no" name="13" />
   <point x="169" y="10" type="line" smooth="no" name="13" />
  </contour>
 </outline>
</glyph>
<glyph name="ordmasculine" format="1">
 <advance width="290" />
 <unicode hex="00ba" />
 <outline>
  <contour>
   <point x="150" y="645" type="curve" smooth="yes" name="15" />
   <point x="79" y="645" type="offcurve" name="14" />
   <point x="20" y="604" type="offcurve" name="14" />
   <point x="20" y="522" type="curve" smooth="yes" name="15" />
   <point x="20" y="437" type="offcurve" name="14" />
   <point x="86" y="400" type="offcurve" name="14" />
   <point x="151" y="400" type="curve" smooth="yes" name="15" />
   <point x="212" y="400" type="offcurve" name="14" />
   <point x="271" y="440" type="offcurve" name="14" />
   <point x="271" y="522" type="curve" smooth="yes" name="15" />
   <point x="271" y="606" type="offcurve" name="14" />
   <point x="210" y="645" type="offcurve" name="14" />
  </contour>
  <contour>
   <point x="174" y="522" type="curve" smooth="yes" name="15" />
   <point x="174" y="468" type="offcurve" name="14" />
   <point x="155" y="466" type="offcurve" name="14" />
   <point x="145" y="466" type="curve" smooth="yes" name="15" />
   <point x="135" y="466" type="offcurve" name="14" />
   <point x="116" y="468" type="offcurve" name="14" />
   <point x="116" y="522" type="curve" smooth="yes" name="15" />
   <point x="116" y="573" type="offcurve" name="14" />
   <point x="132" y="578" type="offcurve" name="14" />
   <point x="146" y="578" type="curve" smooth="yes" name="15" />
   <point x="158" y="578" type="offcurve" name="14" />
   <point x="174" y="573" type="offcurve" name="14" />
  </contour>
 </outline>
</glyph>
<glyph name="guillemotright" format="1">
 <advance width="718" />
 <unicode hex="00bb" />
 <outline>
  <contour>
   <point x="40" y="-10" type="line" smooth="no" name="13" />
   <point x="44" y="-10" type="offcurve" name="14" />
   <point x="48" y="-10" type="offcurve" name="14" />
   <point x="53" y="-10" type="curve" smooth="yes" name="15" />
   <point x="170" y="-10" type="offcurve" name="14" />
   <point x="294" y="96" type="offcurve" name="14" />
   <point x="347" y="238" type="curve" smooth="no" name="13" />
   <point x="294" y="380" type="offcurve" name="14" />
   <point x="170" y="486" type="offcurve" name="14" />
   <point x="53" y="486" type="curve" smooth="yes" name="15" />
   <point x="48" y="486" type="offcurve" name="14" />
   <point x="44" y="486" type="offcurve" name="14" />
   <point x="40" y="486" type="curve" smooth="no" name="13" />
   <point x="40" y="341" type="line" smooth="no" name="13" />
   <point x="98" y="322" type="offcurve" name="14" />
   <point x="145" y="297" type="offcurve" name="14" />
   <point x="176" y="238" type="curve" smooth="no" name="13" />
   <point x="145" y="179" type="offcurve" name="14" />
   <point x="98" y="154" type="offcurve" name="14" />
   <point x="40" y="135" type="curve" smooth="no" name="13" />
  </contour>
  <contour>
   <point x="361" y="-10" type="line" smooth="no" name="13" />
   <point x="365" y="-10" type="offcurve" name="14" />
   <point x="369" y="-10" type="offcurve" name="14" />
   <point x="374" y="-10" type="curve" smooth="yes" name="15" />
   <point x="491" y="-10" type="offcurve" name="14" />
   <point x="615" y="96" type="offcurve" name="14" />
   <point x="668" y="238" type="curve" smooth="no" name="13" />
   <point x="615" y="380" type="offcurve" name="14" />
   <point x="491" y="486" type="offcurve" name="14" />
   <point x="374" y="486" type="curve" smooth="yes" name="15" />
   <point x="369" y="486" type="offcurve" name="14" />
   <point x="365" y="486" type="offcurve" name="14" />
   <point x="361" y="486" type="curve" smooth="no" name="13" />
   <point x="361" y="341" type="line" smooth="no" name="13" />
   <point x="419" y="322" type="offcurve" name="14" />
   <point x="466" y="297" type="offcurve" name="14" />
   <point x="497" y="238" type="curve" smooth="no" name="13" />
   <point x="466" y="179" type="offcurve" name="14" />
   <point x="419" y="154" type="offcurve" name="14" />
   <point x="361" y="135" type="curve" smooth="no" name="13" />
  </contour>
 </outline>
</glyph>
<glyph name="onequarter" format="1">
 <advance width="965" />
 <unicode hex="00bc" />
 <outline>
  <contour>
   <point x="740" y="318" type="line" smooth="no" name="13" />
   <point x="596" y="150" type="line" smooth="no" name="13" />
   <point x="596" y="51" type="line" smooth="no" name="13" />
   <point x="744" y="51" type="line" smooth="no" name="13" />
   <point x="744" y="0" type="line" smooth="no" name="13" />
   <point x="860" y="0" type="line" smooth="no" name="13" />
   <point x="860" y="51" type="line" smooth="no" name="13" />
   <point x="914" y="51" type="line" smooth="no" name="13" />
   <point x="914" y="141" type="line" smooth="no" name="13" />
   <point x="860" y="141" type="line" smooth="no" name="13" />
   <point x="860" y="318" type="line" smooth="no" name="13" />
  </contour>
  <contour>
   <point x="698" y="142" type="line" smooth="no" name="13" />
   <point x="750" y="215" type="line" smooth="no" name="13" />
   <point x="750" y="142" type="line" smooth="no" name="13" />
  </contour>
  <contour>
   <point x="776" y="633" type="curve" smooth="no" name="13" />
   <point x="684" y="633" type="line" smooth="no" name="13" />
   <point x="300" y="-30" type="line" smooth="no" name="13" />
   <point x="387" y="-30" type="line" smooth="no" name="13" />
   <point x="512" y="183" type="offcurve" name="14" />
   <point x="645" y="412" type="offcurve" name="14" />
  </contour>
  <contour>
   <point x="316" y="633" type="line" smooth="no" name="13" />
   <point x="182" y="633" type="line" smooth="no" name="13" />
   <point x="62" y="517" type="line" smooth="no" name="13" />
   <point x="128" y="438" type="line" smooth="no" name="13" />
   <point x="199" y="498" type="line" smooth="no" name="13" />
   <point x="199" y="318" type="line" smooth="no" name="13" />
   <point x="316" y="318" type="line" smooth="no" name="13" />
  </contour>
 </outline>
</glyph>
<glyph name="onehalf" format="1">
 <advance width="906" />
 <unicode hex="00bd" />
 <outline>
  <contour>
   <point x="316" y="633" type="line" smooth="no" name="13" />
   <point x="182" y="633" type="line" smooth="no" name="13" />
   <point x="62" y="517" type="line" smooth="no" name="13" />
   <point x="128" y="438" type="line" smooth="no" name="13" />
   <point x="199" y="498" type="line" smooth="no" name="13" />
   <point x="199" y="318" type="line" smooth="no" name="13" />
   <point x="316" y="318" type="line" smooth="no" name="13" />
  </contour>
  <contour>
   <point x="674" y="633" type="line" smooth="no" name="13" />
   <point x="585" y="633" type="line" smooth="no" name="13" />
   <point x="201" y="-30" type="line" smooth="no" name="13" />
   <point x="288" y="-30" type="line" smooth="no" name="13" />
  </contour>
  <contour>
   <point x="556" y="-1" type="line" smooth="no" name="13" />
   <point x="828" y="-1" type="line" smooth="no" name="13" />
   <point x="828" y="84" type="line" smooth="no" name="13" />
   <point x="735" y="84" type="line" smooth="no" name="13" />
   <point x="803" y="112" type="offcurve" name="14" />
   <point x="834" y="167" type="offcurve" name="14" />
   <point x="835" y="210" type="curve" smooth="yes" name="15" />
   <point x="835" y="210" type="offcurve" name="14" />
   <point x="835" y="211" type="offcurve" name="14" />
   <point x="835" y="211" type="curve" smooth="yes" name="15" />
   <point x="835" y="244" type="offcurve" name="14" />
   <point x="816" y="328" type="offcurve" name="14" />
   <point x="704" y="328" type="curve" smooth="yes" name="15" />
   <point x="644" y="328" type="offcurve" name="14" />
   <point x="599" y="313" type="offcurve" name="14" />
   <point x="551" y="263" type="curve" smooth="no" name="13" />
   <point x="602" y="209" type="line" smooth="no" name="13" />
   <point x="623" y="225" type="offcurve" name="14" />
   <point x="639" y="239" type="offcurve" name="14" />
   <point x="676" y="239" type="curve" smooth="yes" name="15" />
   <point x="698" y="239" type="offcurve" name="14" />
   <point x="723" y="227" type="offcurve" name="14" />
   <point x="723" y="204" type="curve" smooth="yes" name="15" />
   <point x="723" y="142" type="offcurve" name="14" />
   <point x="583" y="93" type="offcurve" name="14" />
   <point x="556" y="83" type="curve" smooth="no" name="13" />
  </contour>
 </outline>
</glyph>
<glyph name="threequarters" format="1">
 <advance width="942" />
 <unicode hex="00be" />
 <outline>
  <contour>
   <point x="708" y="633" type="line" smooth="no" name="13" />
   <point x="618" y="633" type="line" smooth="no" name="13" />
   <point x="234" y="-30" type="line" smooth="no" name="13" />
   <point x="322" y="-30" type="line" smooth="no" name="13" />
  </contour>
  <contour>
   <point x="144" y="520" type="line" smooth="no" name="13" />
   <point x="144" y="440" type="line" smooth="no" name="13" />
   <point x="166" y="440" type="line" smooth="yes" name="15" />
   <point x="195" y="440" type="offcurve" name="14" />
   <point x="221" y="439" type="offcurve" name="14" />
   <point x="221" y="420" type="curve" smooth="yes" name="15" />
   <point x="221" y="403" type="offcurve" name="14" />
   <point x="209" y="400" type="offcurve" name="14" />
   <point x="197" y="400" type="curve" smooth="yes" name="15" />
   <point x="173" y="400" type="offcurve" name="14" />
   <point x="155" y="406" type="offcurve" name="14" />
   <point x="120" y="430" type="curve" smooth="no" name="13" />
   <point x="102" y="412" type="offcurve" name="14" />
   <point x="82" y="394" type="offcurve" name="14" />
   <point x="62" y="376" type="curve" smooth="no" name="13" />
   <point x="119" y="315" type="offcurve" name="14" />
   <point x="187" y="314" type="offcurve" name="14" />
   <point x="222" y="314" type="curve" smooth="yes" name="15" />
   <point x="223" y="314" type="offcurve" name="14" />
   <point x="224" y="314" type="offcurve" name="14" />
   <point x="226" y="314" type="curve" smooth="yes" name="15" />
   <point x="308" y="314" type="offcurve" name="14" />
   <point x="338" y="358" type="offcurve" name="14" />
   <point x="338" y="405" type="curve" smooth="yes" name="15" />
   <point x="338" y="449" type="offcurve" name="14" />
   <point x="306" y="481" type="offcurve" name="14" />
   <point x="251" y="487" type="curve" smooth="no" name="13" />
   <point x="305" y="497" type="offcurve" name="14" />
   <point x="333" y="514" type="offcurve" name="14" />
   <point x="333" y="561" type="curve" smooth="yes" name="15" />
   <point x="333" y="591" type="offcurve" name="14" />
   <point x="309" y="645" type="offcurve" name="14" />
   <point x="205" y="645" type="curve" smooth="yes" name="15" />
   <point x="158" y="645" type="offcurve" name="14" />
   <point x="110" y="631" type="offcurve" name="14" />
   <point x="62" y="582" type="curve" smooth="no" name="13" />
   <point x="114" y="532" type="line" smooth="no" name="13" />
   <point x="146" y="550" type="offcurve" name="14" />
   <point x="175" y="558" type="offcurve" name="14" />
   <point x="193" y="558" type="curve" smooth="yes" name="15" />
   <point x="209" y="558" type="offcurve" name="14" />
   <point x="216" y="551" type="offcurve" name="14" />
   <point x="216" y="539" type="curve" smooth="yes" name="15" />
   <point x="216" y="523" type="offcurve" name="14" />
   <point x="190" y="520" type="offcurve" name="14" />
   <point x="173" y="520" type="curve" smooth="yes" name="15" />
  </contour>
  <contour>
   <point x="705" y="318" type="line" smooth="no" name="13" />
   <point x="562" y="150" type="line" smooth="no" name="13" />
   <point x="562" y="51" type="line" smooth="no" name="13" />
   <point x="710" y="51" type="line" smooth="no" name="13" />
   <point x="710" y="0" type="line" smooth="no" name="13" />
   <point x="826" y="0" type="line" smooth="no" name="13" />
   <point x="826" y="51" type="line" smooth="no" name="13" />
   <point x="879" y="51" type="line" smooth="no" name="13" />
   <point x="879" y="141" type="line" smooth="no" name="13" />
   <point x="826" y="141" type="line" smooth="no" name="13" />
   <point x="826" y="318" type="line" smooth="no" name="13" />
  </contour>
  <contour>
   <point x="663" y="142" type="line" smooth="no" name="13" />
   <point x="716" y="215" type="line" smooth="no" name="13" />
   <point x="716" y="142" type="line" smooth="no" name="13" />
  </contour>
 </outline>
</glyph>
<glyph name="questiondown" format="1">
 <advance width="416" />
 <unicode hex="00bf" />
 <outline>
  <contour>
   <point x="167" y="292" type="line" smooth="no" name="13" />
   <point x="167" y="222" type="line" smooth="yes" name="15" />
   <point x="167" y="181" type="offcurve" name="14" />
   <point x="131" y="146" type="offcurve" name="14" />
   <point x="115" y="133" type="curve" smooth="yes" name="15" />
   <point x="74" y="99" type="offcurve" name="14" />
   <point x="37" y="59" type="offcurve" name="14" />
   <point x="37" y="-28" type="curve" smooth="yes" name="15" />
   <point x="37" y="-103" type="offcurve" name="14" />
   <point x="88" y="-194" type="offcurve" name="14" />
   <point x="206" y="-194" type="curve" smooth="yes" name="15" />
   <point x="284" y="-194" type="offcurve" name="14" />
   <point x="349" y="-160" type="offcurve" name="14" />
   <point x="384" y="-122" type="curve" smooth="no" name="13" />
   <point x="328" y="-40" type="line" smooth="no" name="13" />
   <point x="313" y="-58" type="offcurve" name="14" />
   <point x="266" y="-83" type="offcurve" name="14" />
   <point x="237" y="-83" type="curve" smooth="yes" name="15" />
   <point x="211" y="-83" type="offcurve" name="14" />
   <point x="174" y="-60" type="offcurve" name="14" />
   <point x="174" y="-25" type="curve" smooth="yes" name="15" />
   <point x="174" y="19" type="offcurve" name="14" />
   <point x="211" y="61" type="offcurve" name="14" />
   <point x="236" y="80" type="curve" smooth="yes" name="15" />
   <point x="305" y="131" type="offcurve" name="14" />
   <point x="308" y="158" type="offcurve" name="14" />
   <point x="308" y="211" type="curve" smooth="yes" name="15" />
   <point x="308" y="292" type="line" smooth="no" name="13" />
  </contour>
  <contour>
   <point x="315" y="390" type="curve" smooth="yes" name="15" />
   <point x="315" y="430" type="offcurve" name="14" />
   <point x="281" y="463" type="offcurve" name="14" />
   <point x="237" y="463" type="curve" smooth="yes" name="15" />
   <point x="197" y="463" type="offcurve" name="14" />
   <point x="163" y="430" type="offcurve" name="14" />
   <point x="163" y="390" type="curve" smooth="yes" name="15" />
   <point x="163" y="346" type="offcurve" name="14" />
   <point x="197" y="311" type="offcurve" name="14" />
   <point x="237" y="311" type="curve" smooth="yes" name="15" />
   <point x="281" y="311" type="offcurve" name="14" />
   <point x="315" y="346" type="offcurve" name="14" />
  </contour>
 </outline>
</glyph>
<glyph name="Aacute" format="1">
 <advance width="597" />
 <unicode hex="00c1" />
 <outline>
  <contour>
   <point x="468" y="823" type="line" smooth="no" name="13" />
   <point x="323" y="823" type="line" smooth="no" name="13" />
   <point x="244" y="663" type="line" smooth="no" name="13" />
   <point x="349" y="663" type="line" smooth="no" name="13" />
  </contour>
  <contour>
   <point x="237" y="633" type="line" smooth="no" name="13" />
   <point x="2" y="0" type="line" smooth="no" name="13" />
   <point x="155" y="0" type="line" smooth="no" name="13" />
   <point x="165" y="39" type="offcurve" name="14" />
   <point x="180" y="84" type="offcurve" name="14" />
   <point x="194" y="125" type="curve" smooth="no" name="13" />
   <point x="402" y="125" type="line" smooth="no" name="13" />
   <point x="416" y="82" type="offcurve" name="14" />
   <point x="428" y="43" type="offcurve" name="14" />
   <point x="440" y="0" type="curve" smooth="no" name="13" />
   <point x="596" y="0" type="line" smooth="no" name="13" />
   <point x="361" y="633" type="line" smooth="no" name="13" />
  </contour>
  <contour>
   <point x="301" y="427" type="curve" smooth="no" name="13" />
   <point x="320" y="370" type="offcurve" name="14" />
   <point x="340" y="310" type="offcurve" name="14" />
   <point x="359" y="252" type="curve" smooth="no" name="13" />
   <point x="239" y="252" type="line" smooth="no" name="13" />
   <point x="260" y="313" type="offcurve" name="14" />
   <point x="280" y="368" type="offcurve" name="14" />
  </contour>
 </outline>
</glyph>
<glyph name="Acircumflex" format="1">
 <advance width="597" />
 <unicode hex="00c2" />
 <outline>
  <contour>
   <point x="254" y="823" type="line" smooth="no" name="13" />
   <point x="146" y="663" type="line" smooth="no" name="13" />
   <point x="250" y="663" type="line" smooth="no" name="13" />
   <point x="304" y="738" type="line" smooth="no" name="13" />
   <point x="303" y="740" type="line" smooth="no" name="13" />
   <point x="349" y="663" type="line" smooth="no" name="13" />
   <point x="455" y="663" type="line" smooth="no" name="13" />
   <point x="434" y="696" type="offcurve" name="14" />
   <point x="411" y="729" type="offcurve" name="14" />
   <point x="389" y="761" type="curve" smooth="yes" name="15" />
   <point x="375" y="782" type="offcurve" name="14" />
   <point x="361" y="802" type="offcurve" name="14" />
   <point x="347" y="823" type="curve" smooth="no" name="13" />
  </contour>
  <contour>
   <point x="237" y="633" type="line" smooth="no" name="13" />
   <point x="2" y="0" type="line" smooth="no" name="13" />
   <point x="155" y="0" type="line" smooth="no" name="13" />
   <point x="165" y="39" type="offcurve" name="14" />
   <point x="180" y="84" type="offcurve" name="14" />
   <point x="194" y="125" type="curve" smooth="no" name="13" />
   <point x="402" y="125" type="line" smooth="no" name="13" />
   <point x="416" y="82" type="offcurve" name="14" />
   <point x="428" y="43" type="offcurve" name="14" />
   <point x="440" y="0" type="curve" smooth="no" name="13" />
   <point x="596" y="0" type="line" smooth="no" name="13" />
   <point x="361" y="633" type="line" smooth="no" name="13" />
  </contour>
  <contour>
   <point x="301" y="427" type="curve" smooth="no" name="13" />
   <point x="320" y="370" type="offcurve" name="14" />
   <point x="340" y="310" type="offcurve" name="14" />
   <point x="359" y="252" type="curve" smooth="no" name="13" />
   <point x="239" y="252" type="line" smooth="no" name="13" />
   <point x="260" y="313" type="offcurve" name="14" />
   <point x="280" y="368" type="offcurve" name="14" />
  </contour>
 </outline>
</glyph>
<glyph name="Atilde" format="1">
 <advance width="597" />
 <unicode hex="00c3" />
 <outline>
  <contour>
   <point x="204" y="655" type="line" smooth="no" name="13" />
   <point x="206" y="659" type="offcurve" name="14" />
   <point x="207" y="662" type="offcurve" name="14" />
   <point x="209" y="666" type="curve" smooth="yes" name="15" />
   <point x="219" y="686" type="offcurve" name="14" />
   <point x="226" y="701" type="offcurve" name="14" />
   <point x="246" y="701" type="curve" smooth="yes" name="15" />
   <point x="260" y="701" type="offcurve" name="14" />
   <point x="267" y="698" type="offcurve" name="14" />
   <point x="293" y="683" type="curve" smooth="yes" name="15" />
   <point x="313" y="671" type="offcurve" name="14" />
   <point x="333" y="664" type="offcurve" name="14" />
   <point x="356" y="664" type="curve" smooth="yes" name="15" />
   <point x="404" y="664" type="offcurve" name="14" />
   <point x="438" y="689" type="offcurve" name="14" />
   <point x="452" y="776" type="curve" smooth="no" name="13" />
   <point x="399" y="816" type="line" smooth="no" name="13" />
   <point x="382" y="782" type="offcurve" name="14" />
   <point x="373" y="760" type="offcurve" name="14" />
   <point x="353" y="760" type="curve" smooth="yes" name="15" />
   <point x="335" y="760" type="offcurve" name="14" />
   <point x="323" y="768" type="offcurve" name="14" />
   <point x="304" y="782" type="curve" smooth="yes" name="15" />
   <point x="289" y="793" type="offcurve" name="14" />
   <point x="271" y="807" type="offcurve" name="14" />
   <point x="246" y="807" type="curve" smooth="yes" name="15" />
   <point x="204" y="807" type="offcurve" name="14" />
   <point x="165" y="777" type="offcurve" name="14" />
   <point x="152" y="692" type="curve" smooth="no" name="13" />
  </contour>
  <contour>
   <point x="237" y="633" type="line" smooth="no" name="13" />
   <point x="2" y="0" type="line" smooth="no" name="13" />
   <point x="155" y="0" type="line" smooth="no" name="13" />
   <point x="165" y="39" type="offcurve" name="14" />
   <point x="180" y="84" type="offcurve" name="14" />
   <point x="194" y="125" type="curve" smooth="no" name="13" />
   <point x="402" y="125" type="line" smooth="no" name="13" />
   <point x="416" y="82" type="offcurve" name="14" />
   <point x="428" y="43" type="offcurve" name="14" />
   <point x="440" y="0" type="curve" smooth="no" name="13" />
   <point x="596" y="0" type="line" smooth="no" name="13" />
   <point x="361" y="633" type="line" smooth="no" name="13" />
  </contour>
  <contour>
   <point x="301" y="427" type="curve" smooth="no" name="13" />
   <point x="320" y="370" type="offcurve" name="14" />
   <point x="340" y="310" type="offcurve" name="14" />
   <point x="359" y="252" type="curve" smooth="no" name="13" />
   <point x="239" y="252" type="line" smooth="no" name="13" />
   <point x="260" y="313" type="offcurve" name="14" />
   <point x="280" y="368" type="offcurve" name="14" />
  </contour>
 </outline>
</glyph>
